<svg width="4274" height="857" viewBox="0 0 4274 857" fill="none" xmlns="http://www.w3.org/2000/svg">
<path d="M634.501 38.9481C634.501 38.9481 456.93 71.2827 415.966 169.93C374.989 268.584 734.435 295.044 719.503 429.45C704.323 566.044 590.493 591.834 472.117 638.887C472.117 638.887 528.282 745.714 350.717 846.335H811.371V38.9481H634.501Z" fill="white"/>
<path d="M394.715 713.255C430.833 580.63 84.8015 582.156 91.187 455.261C97.9728 320.185 232.323 291.344 350.707 244.291C350.707 244.291 268.738 145.637 463.312 38.9409H3.96484V846.335H179.507C179.507 846.335 366.646 816.313 394.715 713.255Z" fill="white"/>
<path d="M174.637 442.642C174.637 442.642 176.155 487.126 273.291 520.517C370.419 553.915 423.539 591.841 423.539 591.841C423.539 591.841 617.803 549.352 639.051 456.779C660.292 364.2 466.339 335.358 407.006 292.869C407.006 292.869 173.284 335.759 174.637 442.642Z" fill="white"/>
<path d="M1029.47 256.724C998.921 256.724 979.626 247.322 972.709 243.346C968.353 235.4 963.624 209.734 962.893 192.752C964.708 190.219 970.162 189.501 971.618 191.668C977.079 210.1 992.004 245.52 1034.2 245.52C1064.77 245.52 1079.68 225.639 1079.68 203.949C1079.68 188.051 1076.41 170.337 1049.85 153.362L1015.28 130.954C997.091 119.026 975.988 98.4264 975.988 68.7839C975.988 34.4473 1002.91 6.62036 1050.22 6.62036C1061.49 6.62036 1074.59 8.78799 1084.05 11.3215C1088.78 12.7642 1093.87 13.496 1096.79 13.496C1100.06 22.1664 1103.34 42.4066 1103.34 57.5868C1101.88 59.7544 1096.06 60.8384 1094.24 58.6708C1089.51 41.323 1079.69 17.8313 1044.76 17.8313C1009.1 17.8313 1001.47 41.316 1001.47 57.9528C1001.47 78.911 1018.93 94.0843 1032.39 102.396L1061.5 120.475C1084.42 134.572 1106.98 155.53 1106.98 189.867C1106.97 229.622 1076.78 256.724 1029.47 256.724ZM1229.83 192.076C1228.04 186.491 1227.02 185.738 1219.35 185.738H1180.79C1174.4 185.738 1172.87 186.498 1171.08 191.827L1162.14 218.467C1158.3 229.891 1156.52 236.739 1156.52 239.528C1156.52 242.58 1157.8 244.105 1163.93 244.602L1172.36 245.362C1174.15 246.639 1174.15 250.698 1171.85 251.706C1165.21 251.202 1157.29 251.202 1145.28 250.946C1136.85 250.946 1127.66 251.457 1120.76 251.706C1119.22 250.698 1118.72 246.632 1120.25 245.362L1128.68 244.602C1134.81 244.098 1140.43 241.302 1144.01 232.169C1148.6 220.503 1155.75 204.004 1166.48 175.577L1192.53 107.069C1196.1 97.9362 1197.64 93.1178 1196.86 89.0518C1202.99 87.2777 1207.34 82.7077 1210.15 79.408C1211.68 79.408 1213.47 79.9188 1213.98 81.693C1217.3 92.8555 1221.38 104.529 1225.22 115.698L1260.21 217.707C1267.61 239.528 1270.94 243.339 1281.93 244.602L1288.83 245.362C1290.62 246.639 1290.11 250.698 1288.83 251.706C1278.36 251.202 1269.41 250.946 1257.92 250.946C1245.66 250.946 1235.95 251.457 1228.54 251.706C1226.5 250.698 1226.24 246.632 1228.03 245.362L1235.44 244.602C1240.8 244.098 1244.38 242.58 1244.38 240.039C1244.38 237.25 1243.09 232.68 1241.06 226.592L1229.83 192.076ZM1179.25 169.488C1177.21 175.321 1177.47 175.577 1184.62 175.577H1216.03C1223.44 175.577 1223.95 174.562 1221.65 167.707L1207.86 126.357C1205.82 120.261 1203.52 113.413 1201.99 110.369H1201.48C1200.71 111.639 1198.15 117.721 1195.34 125.342L1179.25 169.488ZM1317.75 121.787C1317.75 97.6739 1316.98 93.3594 1306.51 92.0892L1298.33 91.0744C1296.55 89.8042 1296.55 85.7521 1298.59 84.7373C1312.89 83.4671 1330.52 82.7008 1355.55 82.7008C1371.39 82.7008 1386.45 83.971 1398.2 90.3151C1410.46 96.6523 1419.41 108.077 1419.41 125.846C1419.41 149.952 1400.25 163.137 1387.48 168.218C1386.21 169.744 1387.48 172.277 1388.76 174.307C1409.19 207.042 1422.73 227.344 1440.1 241.806C1444.44 245.61 1450.83 248.406 1457.72 248.91C1459 249.421 1459.26 251.45 1457.98 252.465C1455.68 253.231 1451.59 253.735 1446.74 253.735C1425.03 253.735 1412.01 247.391 1393.87 221.766C1387.23 212.378 1376.75 194.864 1368.84 183.447C1365.01 177.862 1360.93 175.328 1350.71 175.328C1339.21 175.328 1338.7 175.584 1338.7 180.92V212.889C1338.7 239.528 1339.21 242.58 1354.02 244.602L1359.39 245.362C1360.92 246.639 1360.41 250.946 1358.88 251.706C1347.39 251.202 1338.7 250.946 1328.48 250.946C1317.75 250.946 1308.56 251.209 1296.55 251.706C1295.01 250.946 1294.51 247.143 1296.04 245.362L1302.42 244.602C1317.24 242.828 1317.75 239.528 1317.75 212.889V121.787ZM1338.69 158.07C1338.69 162.64 1338.69 165.429 1339.46 166.444C1340.22 167.203 1344.05 167.707 1357.07 167.707C1366.28 167.707 1375.98 166.692 1383.39 161.115C1390.29 155.792 1396.16 146.901 1396.16 129.643C1396.16 109.596 1383.64 90.5705 1355.29 90.5705C1339.46 90.5705 1338.69 91.5853 1338.69 98.6956V158.07Z" fill="white"/>
<path d="M1553.78 192.076C1551.99 186.491 1550.97 185.738 1543.3 185.738H1504.74C1498.35 185.738 1496.82 186.498 1495.04 191.827L1486.1 218.467C1482.27 229.891 1480.48 236.739 1480.48 239.528C1480.48 242.58 1481.76 244.105 1487.89 244.602L1496.31 245.362C1498.1 246.639 1498.11 250.698 1495.81 251.706C1489.17 251.202 1481.24 251.202 1469.24 250.946C1460.81 250.946 1451.62 251.457 1444.72 251.706C1443.19 250.698 1442.67 246.632 1444.22 245.362L1452.64 244.602C1458.77 244.098 1464.4 241.302 1467.98 232.169C1472.57 220.503 1479.73 204.004 1490.45 175.577L1516.49 107.069C1520.08 97.9362 1521.6 93.1178 1520.83 89.0518C1526.96 87.2777 1531.31 82.7077 1534.13 79.408C1535.66 79.408 1537.44 79.9188 1537.96 81.693C1541.27 92.8555 1545.36 104.529 1549.19 115.698L1584.18 217.707C1591.59 239.528 1594.91 243.339 1605.9 244.602L1612.8 245.362C1614.59 246.639 1614.08 250.698 1612.8 251.706C1602.33 251.202 1593.38 250.946 1581.89 250.946C1569.63 250.946 1559.92 251.457 1552.52 251.706C1550.48 250.698 1550.23 246.632 1552.02 245.362L1559.42 244.602C1564.78 244.098 1568.36 242.58 1568.36 240.039C1568.36 237.25 1567.08 232.68 1565.04 226.592L1553.78 192.076ZM1503.21 169.488C1501.17 175.321 1501.42 175.577 1508.57 175.577H1539.98C1547.4 175.577 1547.9 174.562 1545.6 167.707L1531.81 126.357C1529.77 120.261 1527.46 113.413 1525.93 110.369H1525.42C1524.65 111.639 1522.1 117.721 1519.29 125.342L1503.21 169.488ZM1685.1 212.882C1685.1 239.521 1685.61 243.332 1700.42 244.595L1708.6 245.355C1710.13 246.369 1709.62 250.939 1708.1 251.699C1693.53 251.195 1684.85 250.939 1674.63 250.939C1664.41 250.939 1655.47 251.202 1639.12 251.699C1637.58 250.939 1637.08 246.625 1639.12 245.355L1648.32 244.595C1662.88 243.332 1664.15 239.521 1664.15 212.882V99.455C1664.15 91.5922 1664.15 91.3299 1656.49 91.3299H1642.44C1631.46 91.3299 1617.41 91.8407 1611.03 97.6739C1604.89 103.259 1602.34 108.843 1599.53 115.187C1597.49 116.706 1593.91 115.443 1592.89 113.406C1596.98 101.995 1600.81 85.7521 1602.6 75.5974C1603.36 75.0935 1606.69 74.8381 1607.46 75.5974C1608.98 83.7225 1617.41 83.4671 1629.16 83.4671H1732.61C1746.4 83.4671 1748.7 82.9563 1752.53 76.3637C1753.81 75.8528 1756.63 76.1082 1757.14 77.123C1754.32 87.5262 1752.53 108.077 1753.31 115.691C1752.28 117.714 1747.94 117.714 1746.67 116.202C1745.9 109.858 1744.11 100.47 1740.28 97.6739C1734.41 93.3594 1724.69 91.3299 1710.65 91.3299H1692.52C1684.86 91.3299 1685.11 91.5922 1685.11 99.9589V212.882H1685.1ZM1763.32 168.977C1763.32 118.232 1801.62 79.4011 1854.25 79.4011C1913.25 79.4011 1942.88 121.787 1942.88 166.437C1942.88 217.693 1903.54 254.992 1854.25 254.992C1797.55 254.998 1763.32 214.656 1763.32 168.977ZM1917.34 174.307C1917.34 132.445 1898.69 87.2708 1849.9 87.2708C1823.34 87.2708 1788.85 105.288 1788.85 160.859C1788.85 198.42 1807.25 247.143 1857.57 247.143C1888.21 247.143 1917.34 224.3 1917.34 174.307ZM2120.17 225.059C2120.17 235.207 2121.71 241.296 2126.3 243.07C2127.08 243.836 2127.08 245.355 2126.06 246.114C2122.99 246.114 2118.38 247.129 2113.55 248.399C2100 251.954 2081.62 254.992 2067.83 254.992C2037.42 254.992 2009.58 246.625 1989.92 226.826C1974.59 211.598 1966.42 191.551 1966.42 169.226C1966.42 147.653 1973.58 125.839 1989.4 109.092C2006.52 91.323 2031.81 79.3942 2070.37 79.3942C2084.93 79.3942 2098.46 82.19 2102.81 83.1979C2107.66 84.2126 2115.59 85.9937 2118.65 85.4897C2118.65 93.8633 2120.18 107.055 2122.48 122.284C2121.72 124.313 2117.12 124.569 2115.59 123.036C2108.44 95.6306 2089.27 87.0084 2063.23 87.0084C2013.68 87.0084 1991.96 122.029 1991.96 160.093C1991.96 208.809 2017.25 247.129 2068.58 247.129C2084.43 247.129 2093.86 243.829 2096.67 239.508C2097.96 237.733 2099.24 233.17 2099.24 225.045V214.891C2099.24 193.587 2098.46 192.055 2082.64 190.288L2071.39 189.017C2069.34 188.003 2069.61 183.426 2071.39 182.673C2078.79 183.184 2092.84 183.433 2107.93 183.433C2117.88 183.433 2126.56 183.184 2135 182.673C2136.78 183.688 2137.04 187.492 2135.24 189.017L2131.16 189.521C2120.44 190.785 2120.17 197.895 2120.17 210.832V225.059ZM2249.46 192.076C2247.65 186.491 2246.65 185.738 2238.98 185.738H2200.4C2194.02 185.738 2192.49 186.498 2190.72 191.827L2181.76 218.467C2177.94 229.891 2176.15 236.739 2176.15 239.528C2176.15 242.58 2177.43 244.105 2183.56 244.602L2191.97 245.362C2193.77 246.639 2193.77 250.698 2191.48 251.706C2184.83 251.202 2176.92 251.202 2164.91 250.946C2156.48 250.946 2147.27 251.457 2140.39 251.706C2138.85 250.698 2138.33 246.632 2139.87 245.362L2148.31 244.602C2154.44 244.098 2160.05 241.302 2163.64 232.169C2168.23 220.503 2175.4 204.004 2186.11 175.577L2212.17 107.069C2215.74 97.9362 2217.27 93.1178 2216.51 89.0518C2222.64 87.2777 2226.99 82.7077 2229.8 79.408C2231.33 79.408 2233.1 79.9188 2233.63 81.693C2236.94 92.8555 2241.03 104.529 2244.85 115.698L2279.86 217.707C2287.26 239.528 2290.59 243.339 2301.58 244.602L2308.46 245.362C2310.25 246.639 2309.76 250.698 2308.46 251.706C2297.99 251.202 2289.05 250.946 2277.55 250.946C2265.3 250.946 2255.59 251.457 2248.19 251.706C2246.14 250.698 2245.89 246.632 2247.66 245.362L2255.08 244.602C2260.44 244.098 2264.01 242.58 2264.01 240.039C2264.01 237.25 2262.74 232.68 2260.7 226.592L2249.46 192.076ZM2198.89 169.488C2196.85 175.321 2197.1 175.577 2204.25 175.577H2235.66C2243.06 175.577 2243.57 174.562 2241.28 167.707L2227.49 126.357C2225.44 120.261 2223.15 113.413 2221.6 110.369H2221.1C2220.32 111.639 2217.78 117.721 2214.95 125.342L2198.89 169.488ZM2450.04 256.724C2419.48 256.724 2400.19 247.322 2393.29 243.346C2388.92 235.4 2384.19 209.734 2383.45 192.752C2385.27 190.219 2390.74 189.501 2392.18 191.668C2397.64 210.1 2412.57 245.52 2454.77 245.52C2485.33 245.52 2500.24 225.639 2500.24 203.949C2500.24 188.051 2496.96 170.337 2470.42 153.362L2435.84 130.954C2417.65 119.026 2396.55 98.4264 2396.55 68.7839C2396.55 34.4473 2423.48 6.62036 2470.77 6.62036C2482.07 6.62036 2495.14 8.78799 2504.62 11.3215C2509.34 12.7642 2514.44 13.496 2517.36 13.496C2520.64 22.1664 2523.9 42.4066 2523.9 57.5868C2522.44 59.7544 2516.62 60.8384 2514.81 58.6708C2510.07 41.323 2500.25 17.8313 2465.32 17.8313C2429.66 17.8313 2422.02 41.316 2422.02 57.9528C2422.02 78.911 2439.49 94.0843 2452.95 102.396L2482.07 120.475C2504.98 134.572 2527.53 155.53 2527.53 189.867C2527.53 229.622 2497.34 256.724 2450.04 256.724ZM2589.86 100.981C2608.51 86.5183 2632.27 79.408 2658.84 79.408C2672.62 79.408 2692.03 82.2038 2704.05 85.5035C2707.1 86.2629 2708.9 86.7737 2711.19 86.5183C2711.45 92.3515 2712.72 108.346 2714.77 123.816C2713.48 125.597 2709.66 125.853 2707.88 124.327C2704.05 107.069 2692.55 87.2777 2655.52 87.2777C2616.43 87.2777 2583.23 111.888 2583.23 164.421C2583.23 217.707 2617.19 247.143 2659.09 247.143C2692.02 247.143 2706.59 225.825 2712.47 210.852C2714.26 209.582 2718.08 210.1 2719.11 211.867C2717.3 225.059 2710.67 241.806 2706.84 246.632C2703.79 247.143 2700.72 248.15 2697.91 249.165C2692.3 251.202 2673.89 255.005 2657.55 255.005C2634.57 255.005 2612.59 250.449 2593.95 238.01C2573.52 224.058 2557.67 200.953 2557.67 168.225C2557.68 140.053 2570.45 115.947 2589.86 100.981ZM2790.68 168.977C2778.43 168.977 2777.91 169.488 2777.91 177.096V212.882C2777.91 239.521 2779.18 243.077 2793.49 244.595L2800.89 245.355C2802.42 246.369 2801.91 250.939 2800.39 251.699C2786.61 251.195 2777.9 250.939 2767.95 250.939C2756.97 250.939 2748.28 251.45 2738.32 251.699C2736.8 250.939 2736.28 246.873 2737.82 245.355L2742.15 244.595C2756.45 242.055 2756.97 239.521 2756.97 212.882V121.531C2756.97 94.885 2755.17 90.5774 2741.88 89.5557L2735.25 89.0518C2733.7 88.037 2734.24 83.4671 2735.77 82.7077C2748.28 82.9632 2756.97 83.474 2767.94 83.474C2777.9 83.474 2786.6 83.2186 2797.58 82.7077C2799.1 83.474 2799.62 88.037 2798.08 89.0518L2793.23 89.5557C2778.42 91.0813 2777.9 94.885 2777.9 121.531V150.718C2777.9 158.574 2778.42 158.837 2790.67 158.837H2863.73C2875.99 158.837 2876.51 158.574 2876.51 150.718V121.531C2876.51 94.885 2875.99 91.0813 2860.91 89.5557L2856.06 89.0518C2854.52 88.037 2855.04 83.4671 2856.58 82.7077C2868.34 83.2186 2877.01 83.474 2887.49 83.474C2897.45 83.474 2906.13 83.2186 2917.62 82.7077C2919.16 83.474 2919.67 88.037 2918.12 89.0518L2912.78 89.5557C2897.95 91.0813 2897.45 94.885 2897.45 121.531V212.882C2897.45 239.521 2897.95 242.821 2912.78 244.595L2918.9 245.355C2920.44 246.369 2919.92 250.939 2918.41 251.699C2906.13 251.195 2897.46 250.939 2887.49 250.939C2877.01 250.939 2867.81 251.202 2856.58 251.699C2855.03 250.939 2854.52 246.873 2856.06 245.355L2860.91 244.595C2876.51 242.055 2876.51 239.521 2876.51 212.882V177.096C2876.51 169.488 2875.99 168.977 2863.73 168.977H2790.68ZM2962.88 121.531C2962.88 95.1473 2962.37 91.3299 2947.31 89.5557L2943.22 89.0518C2941.68 88.037 2942.19 83.4671 2943.72 82.7077C2954.7 83.2186 2963.4 83.474 2973.86 83.474H3021.89C3038.23 83.474 3053.3 83.474 3056.35 82.7077C3057.89 87.0222 3059.42 105.295 3060.45 116.465C3059.43 117.99 3055.34 118.494 3054.05 116.968C3050.22 105.047 3047.93 96.1621 3034.64 92.8624C3029.29 91.5991 3021.11 91.3368 3009.87 91.3368H2991.47C2983.81 91.3368 2983.81 91.8476 2983.81 101.491V152.244C2983.81 159.347 2984.58 159.347 2992.24 159.347H3007.06C3017.79 159.347 3025.7 158.843 3028.78 157.822C3031.85 156.807 3033.63 155.288 3034.9 148.944L3036.96 138.541C3038.23 137.015 3042.57 137.015 3043.6 138.796C3043.6 144.885 3042.57 154.784 3042.57 164.428C3042.57 173.561 3043.6 183.205 3043.6 188.79C3042.57 190.557 3038.23 190.557 3036.96 189.045L3034.65 179.146C3033.64 174.569 3031.85 170.765 3026.72 169.502C3023.16 168.487 3017.05 168.232 3007.07 168.232H2992.25C2984.59 168.232 2983.82 168.487 2983.82 175.087V210.859C2983.82 224.307 2984.59 232.936 2988.68 237.25C2991.75 240.295 2997.11 243.083 3019.58 243.083C3039.26 243.083 3046.66 242.069 3052.28 239.28C3056.86 236.746 3063.78 227.855 3070.42 214.663C3072.2 213.4 3075.77 214.152 3076.79 216.437C3075.01 225.315 3068.62 244.865 3065.31 251.706C3042.32 251.202 3019.58 250.946 2996.85 250.946H2973.87C2962.88 250.946 2954.19 251.209 2939.14 251.706C2937.6 250.946 2937.09 246.88 2938.62 245.362L2947.05 244.602C2961.63 243.339 2962.89 239.528 2962.89 212.889V121.531H2962.88ZM3249.51 207.801C3249.51 215.415 3249.51 245.61 3250.28 252.21C3249.78 253.735 3248.24 254.998 3245.43 254.998C3242.35 250.691 3234.95 241.806 3212.74 216.686L3153.48 149.704C3146.57 141.834 3129.21 121.021 3123.85 115.443H3123.32C3122.31 118.487 3122.04 124.327 3122.04 131.935V187.25C3122.04 199.172 3122.31 232.163 3126.66 239.777C3128.2 242.573 3133.3 244.091 3139.68 244.595L3147.6 245.355C3149.13 247.391 3148.88 250.442 3147.1 251.699C3135.6 251.195 3126.66 250.939 3117.21 250.939C3106.48 250.939 3099.58 251.202 3090.64 251.699C3088.85 250.435 3088.59 246.873 3090.12 245.355L3097.01 244.595C3102.9 243.843 3106.98 242.317 3108.27 239.521C3111.83 230.388 3111.58 199.434 3111.58 187.25V113.917C3111.58 106.814 3111.32 101.485 3105.97 95.6444C3102.39 92.0961 3096.27 90.322 3090.12 89.5557L3085.79 89.0518C3084.25 87.5262 3084.25 83.7294 3086.29 82.7077C3097.01 83.474 3110.56 83.474 3115.15 83.474C3119.25 83.474 3123.59 83.2186 3126.91 82.7077C3132.01 95.6513 3162.15 129.153 3170.57 138.534L3195.36 166.195C3212.99 185.731 3225.51 199.938 3237.5 212.123H3238.01C3239.03 210.852 3239.03 206.793 3239.03 201.464V147.163C3239.03 135.227 3238.77 102.251 3233.93 94.6365C3232.38 92.3446 3228.32 90.8328 3218.09 89.5557L3213.74 89.0518C3211.95 87.5262 3212.2 83.4671 3214.25 82.7077C3226 83.2186 3234.68 83.474 3244.39 83.474C3255.38 83.474 3262.01 83.2186 3270.7 82.7077C3272.75 83.9779 3272.75 87.5331 3271.21 89.0518L3267.63 89.5557C3259.45 90.8328 3254.35 92.8555 3253.34 94.885C3248.99 104.018 3249.49 135.49 3249.49 147.163V207.801H3249.51ZM3312.15 121.531C3312.15 95.1473 3311.64 91.3299 3296.57 89.5557L3292.47 89.0518C3290.94 88.037 3291.46 83.4671 3292.99 82.7077C3303.97 83.2186 3312.65 83.474 3323.13 83.474H3371.13C3387.49 83.474 3402.56 83.474 3405.62 82.7077C3407.17 87.0222 3408.69 105.295 3409.7 116.465C3408.69 117.99 3404.6 118.494 3403.32 116.968C3399.49 105.047 3397.2 96.1621 3383.9 92.8624C3378.55 91.5991 3370.37 91.3368 3359.14 91.3368H3340.75C3333.08 91.3368 3333.08 91.8476 3333.08 101.491V152.244C3333.08 159.347 3333.85 159.347 3341.5 159.347H3356.33C3367.05 159.347 3374.96 158.843 3378.04 157.822C3381.1 156.807 3382.88 155.288 3384.17 148.944L3386.22 138.541C3387.5 137.015 3391.84 137.015 3392.85 138.796C3392.85 144.885 3391.84 154.784 3391.84 164.428C3391.84 173.561 3392.85 183.205 3392.85 188.79C3391.84 190.557 3387.5 190.557 3386.22 189.045L3383.91 179.146C3382.89 174.569 3381.11 170.765 3375.99 169.502C3372.41 168.487 3366.29 168.232 3356.33 168.232H3341.51C3333.86 168.232 3333.09 168.487 3333.09 175.087V210.859C3333.09 224.307 3333.86 232.936 3337.94 237.25C3341 240.295 3346.37 243.083 3368.85 243.083C3388.52 243.083 3395.92 242.069 3401.52 239.28C3406.15 236.746 3413.03 227.855 3419.66 214.663C3421.46 213.4 3425.03 214.152 3426.06 216.437C3424.27 225.315 3417.88 244.865 3414.57 251.706C3391.57 251.202 3368.85 250.946 3346.11 250.946H3323.14C3312.15 250.946 3303.45 251.209 3288.39 251.706C3286.85 250.946 3286.36 246.88 3287.88 245.362L3296.32 244.602C3310.87 243.339 3312.16 239.528 3312.16 212.889V121.531H3312.15ZM3472.06 100.981C3490.69 86.5183 3514.45 79.408 3541.03 79.408C3554.81 79.408 3574.22 82.2038 3586.23 85.5035C3589.3 86.2629 3591.09 86.7737 3593.38 86.5183C3593.65 92.3515 3594.92 108.346 3596.96 123.816C3595.67 125.597 3591.85 125.853 3590.06 124.327C3586.23 107.069 3574.74 87.2777 3537.7 87.2777C3498.62 87.2777 3465.41 111.888 3465.41 164.421C3465.41 217.707 3499.39 247.143 3541.27 247.143C3574.21 247.143 3588.78 225.825 3594.65 210.852C3596.45 209.582 3600.27 210.1 3601.3 211.867C3599.51 225.059 3592.87 241.806 3589.04 246.632C3585.97 247.143 3582.9 248.15 3580.1 249.165C3574.49 251.202 3556.08 255.005 3539.73 255.005C3516.74 255.005 3494.78 250.449 3476.13 238.01C3455.71 224.058 3439.86 200.953 3439.86 168.225C3439.86 140.053 3452.64 115.947 3472.06 100.981ZM3700.47 212.882C3700.47 239.521 3700.96 243.332 3715.78 244.595L3723.95 245.355C3725.5 246.369 3724.98 250.939 3723.46 251.699C3708.9 251.195 3700.2 250.939 3689.99 250.939C3679.78 250.939 3670.83 251.202 3654.49 251.699C3652.95 250.939 3652.44 246.625 3654.49 245.355L3663.68 244.595C3678.24 243.332 3679.51 239.521 3679.51 212.882V99.455C3679.51 91.5922 3679.51 91.3299 3671.85 91.3299H3657.82C3646.82 91.3299 3632.78 91.8407 3626.39 97.6739C3620.24 103.259 3617.7 108.843 3614.89 115.187C3612.85 116.706 3609.28 115.443 3608.25 113.406C3612.34 101.995 3616.18 85.7521 3617.96 75.5974C3618.72 75.0935 3622.04 74.8381 3622.81 75.5974C3624.36 83.7225 3632.77 83.4671 3644.52 83.4671H3747.97C3761.76 83.4671 3764.06 82.9563 3767.89 76.3637C3769.17 75.8528 3771.98 76.1082 3772.49 77.123C3769.68 87.5262 3767.89 108.077 3768.66 115.691C3767.63 117.714 3763.3 117.714 3762.02 116.202C3761.24 109.858 3759.46 100.47 3755.63 97.6739C3749.75 93.3594 3740.04 91.3299 3726.01 91.3299H3707.87C3700.2 91.3299 3700.47 91.5922 3700.47 99.9589V212.882ZM3862.44 192.076C3860.64 186.491 3859.62 185.738 3851.96 185.738H3813.38C3807 185.738 3805.47 186.498 3803.68 191.827L3794.74 218.467C3790.91 229.891 3789.13 236.739 3789.13 239.528C3789.13 242.58 3790.41 244.105 3796.52 244.602L3804.96 245.362C3806.75 246.639 3806.75 250.698 3804.46 251.706C3797.81 251.202 3789.91 251.202 3777.88 250.946C3769.45 250.946 3760.27 251.457 3753.37 251.706C3751.83 250.698 3751.32 246.632 3752.85 245.362L3761.29 244.602C3767.42 244.098 3773.04 241.302 3776.62 232.169C3781.21 220.503 3788.37 204.004 3799.09 175.577L3825.14 107.069C3828.72 97.9362 3830.25 93.1178 3829.47 89.0518C3835.63 87.2777 3839.97 82.7077 3842.78 79.408C3844.3 79.408 3846.09 79.9188 3846.6 81.693C3849.93 92.8555 3854.01 104.529 3857.84 115.698L3892.84 217.707C3900.23 239.528 3903.56 243.339 3914.56 244.602L3921.45 245.362C3923.23 246.639 3922.73 250.698 3921.45 251.706C3910.98 251.202 3902.03 250.946 3890.54 250.946C3878.27 250.946 3868.57 251.457 3861.17 251.706C3859.13 250.698 3858.87 246.632 3860.65 245.362L3868.07 244.602C3873.42 244.098 3876.99 242.58 3876.99 240.039C3876.99 237.25 3875.73 232.68 3873.67 226.592L3862.44 192.076ZM3811.86 169.488C3809.83 175.321 3810.08 175.577 3817.23 175.577H3848.64C3856.04 175.577 3856.55 174.562 3854.26 167.707L3840.47 126.357C3838.43 120.261 3836.14 113.413 3834.6 110.369H3834.08C3833.3 111.639 3830.78 117.721 3827.94 125.342L3811.86 169.488ZM3950.31 116.458C3950.31 98.6956 3949.03 93.3663 3938.32 91.8476L3932.7 91.0813C3930.66 89.8112 3930.39 85.759 3932.95 84.7442C3954.67 83.474 3975.36 82.7077 3997.06 82.7077C4018.51 82.7077 4036.65 84.2333 4053.26 90.322C4087.74 102.755 4105.12 131.686 4105.12 165.187C4105.12 197.405 4089.52 225.066 4060.4 240.805C4043.8 249.69 4022.87 252.99 4003.19 252.99C3986.85 252.99 3970.5 250.953 3961.56 250.953C3950.85 250.953 3941.63 251.215 3929.64 251.713C3928.11 250.953 3927.59 246.887 3929.14 245.368L3935 244.609C3949.82 242.586 3950.33 239.535 3950.33 212.896V116.458H3950.31ZM3971.26 207.049C3971.26 220.503 3972.03 228.621 3976.37 234.703C3981.99 242.573 3991.69 245.113 4007.79 245.113C4057.34 245.113 4079.56 212.889 4079.56 165.685C4079.56 137.768 4066.02 90.5774 3999.11 90.5774C3984.03 90.5774 3975.87 92.607 3973.83 94.1326C3971.79 95.6513 3971.27 102.002 3971.27 113.413L3971.26 207.049ZM4200.19 212.378C4200.19 239.528 4201.74 243.587 4215.53 244.602L4225.22 245.362C4226.76 246.887 4226.25 250.946 4224.73 251.706C4208.89 251.202 4200.19 250.946 4189.98 250.946C4179.25 250.946 4170.05 251.209 4156.51 251.706C4154.99 250.946 4154.48 246.88 4156.02 245.362L4163.93 244.602C4178.75 243.077 4179.25 239.528 4179.25 212.378V199.434C4179.25 185.483 4178.51 182.183 4171.07 167.963L4140.93 109.596C4132.26 92.8486 4128.42 91.5853 4120.76 90.3151L4113.6 89.0449C4112.07 87.2708 4112.33 83.7225 4114.12 82.7008C4122.29 83.2117 4131.5 83.4671 4143.74 83.4671C4155.51 83.4671 4164.68 83.2117 4171.07 82.7008C4173.38 83.4671 4173.38 87.5262 4171.84 89.0449L4168.53 89.5488C4159.58 90.8259 4157.8 92.0892 4157.8 94.1188C4157.8 96.6522 4164.44 111.115 4165.72 113.655C4175.18 132.439 4184.61 152.486 4194.57 169.992C4202.49 156.545 4210.92 141.827 4218.59 127.102C4225.75 113.91 4235.18 96.6522 4235.18 93.6079C4235.18 92.0823 4230.6 90.3082 4224.46 89.5488L4219.86 89.0449C4218.07 87.2708 4218.32 83.7225 4220.38 82.7008C4229.57 83.2117 4236.97 83.4671 4244.9 83.4671C4252.82 83.4671 4259.97 83.2117 4268.64 82.7008C4270.69 83.971 4270.93 87.5262 4269.15 89.0449L4262 90.3151C4248.72 92.607 4241.07 108.588 4228.29 130.409L4212.2 158.07C4200.94 177.351 4200.18 179.643 4200.18 199.172V212.378H4200.19ZM1183.74 512.648C1183.74 527.096 1185.92 535.78 1192.47 538.3C1193.57 539.391 1193.57 541.565 1192.11 542.642C1187.74 542.642 1181.19 544.085 1174.28 545.893C1155 550.954 1128.8 555.296 1109.15 555.296C1065.86 555.296 1026.19 543.367 998.177 515.181C976.343 493.491 964.697 464.932 964.697 433.129C964.697 402.41 974.886 371.332 997.439 347.474C1021.82 322.174 1057.84 305.192 1112.78 305.192C1133.51 305.192 1152.81 309.175 1158.98 310.618C1165.9 312.067 1177.18 314.594 1181.55 313.876C1181.55 325.805 1183.73 344.595 1187 366.278C1185.9 369.171 1179.37 369.53 1177.18 367.362C1166.99 328.325 1139.7 316.044 1102.6 316.044C1032 316.044 1001.08 365.919 1001.08 420.13C1001.08 489.522 1037.09 544.092 1110.23 544.092C1132.79 544.092 1146.25 539.398 1150.26 533.254C1152.07 530.727 1153.89 524.224 1153.89 512.661V498.192C1153.89 467.846 1152.8 465.678 1130.24 463.131L1114.23 461.336C1111.32 459.886 1111.68 453.383 1114.23 452.293C1124.78 453.017 1144.79 453.383 1166.26 453.383C1180.46 453.383 1192.82 453.024 1204.83 452.293C1207.37 453.749 1207.74 459.161 1205.19 461.336L1199.37 462.054C1184.09 463.876 1183.72 473.989 1183.72 492.414V512.648H1183.74ZM1323.71 490.633C1321.92 485.055 1320.9 484.296 1313.24 484.296H1274.67C1268.29 484.296 1266.75 485.062 1264.97 490.392L1256.03 517.031C1252.2 528.449 1250.41 535.297 1250.41 538.093C1250.41 541.137 1251.68 542.663 1257.82 543.174L1266.24 543.926C1268.04 545.189 1268.04 549.248 1265.73 550.277C1259.1 549.766 1251.17 549.766 1239.18 549.511C1230.74 549.511 1221.55 550.022 1214.65 550.277C1213.12 549.255 1212.61 545.189 1214.14 543.926L1222.57 543.174C1228.7 542.663 1234.32 539.867 1237.9 530.727C1242.5 519.061 1249.65 502.576 1260.37 474.141L1286.43 405.634C1290 396.501 1291.53 391.682 1290.76 387.616C1296.89 385.842 1301.24 381.272 1304.05 377.979C1305.59 377.979 1307.37 378.483 1307.88 380.257C1311.2 391.427 1315.28 403.093 1319.12 414.256L1354.1 516.265C1361.51 538.086 1364.83 541.896 1375.82 543.167L1382.71 543.919C1384.51 545.182 1383.99 549.242 1382.71 550.27C1372.25 549.759 1363.3 549.504 1351.81 549.504C1339.55 549.504 1329.84 550.015 1322.44 550.27C1320.39 549.248 1320.14 545.182 1321.92 543.919L1329.33 543.167C1334.68 542.656 1338.26 541.13 1338.26 538.597C1338.26 535.801 1336.98 531.231 1334.95 525.149L1323.71 490.633ZM1273.14 468.053C1271.09 473.893 1271.35 474.141 1278.5 474.141H1309.92C1317.33 474.141 1317.83 473.127 1315.53 466.279L1301.75 424.921C1299.7 418.826 1297.4 411.971 1295.87 408.933H1295.35C1294.59 410.197 1292.03 416.285 1289.23 423.9L1273.14 468.053ZM1436.13 553.57C1414.67 553.57 1401.13 546.964 1396.28 544.175C1393.21 538.597 1389.89 520.579 1389.38 508.651C1390.66 506.876 1394.49 506.373 1395.51 507.898C1399.34 520.842 1409.82 545.7 1439.45 545.7C1460.9 545.7 1471.38 531.749 1471.38 516.534C1471.38 505.358 1469.07 492.932 1450.43 481.003L1426.16 465.271C1413.39 456.904 1398.59 442.428 1398.59 421.629C1398.59 397.522 1417.48 377.986 1450.69 377.986C1458.6 377.986 1467.8 379.498 1474.44 381.279C1477.76 382.294 1481.33 382.805 1483.38 382.805C1485.68 388.893 1487.98 403.1 1487.98 413.759C1486.95 415.284 1482.87 416.051 1481.59 414.525C1478.27 402.334 1471.38 385.849 1446.85 385.849C1421.82 385.849 1416.46 402.334 1416.46 414.014C1416.46 428.732 1428.72 439.384 1438.17 445.224L1458.6 457.912C1474.69 467.804 1490.52 482.522 1490.52 506.628C1490.53 534.545 1469.33 553.57 1436.13 553.57ZM1597.84 511.446C1597.84 538.086 1598.35 541.896 1613.17 543.174L1621.34 543.926C1622.87 544.934 1622.35 549.511 1620.83 550.277C1606.27 549.766 1597.58 549.511 1587.36 549.511C1577.14 549.511 1568.2 549.766 1551.86 550.277C1550.33 549.511 1549.81 545.189 1551.86 543.926L1561.05 543.174C1575.6 541.896 1576.89 538.093 1576.89 511.446V398.013C1576.89 390.15 1576.89 389.894 1569.23 389.894H1555.17C1544.2 389.894 1530.14 390.412 1523.76 396.238C1517.63 401.83 1515.08 407.408 1512.27 413.745C1510.23 415.271 1506.65 414.007 1505.63 411.971C1509.72 400.56 1513.54 384.323 1515.33 374.162C1516.1 373.658 1519.41 373.403 1520.19 374.162C1521.73 382.287 1530.15 382.032 1541.9 382.032H1645.35C1659.14 382.032 1661.44 381.528 1665.27 374.928C1666.54 374.424 1669.35 374.673 1669.87 375.688C1667.05 386.091 1665.27 406.649 1666.04 414.256C1665.02 416.285 1660.67 416.285 1659.4 414.774C1658.63 408.43 1656.83 399.034 1653 396.238C1647.14 391.931 1637.43 389.894 1623.38 389.894H1605.24C1597.58 389.894 1597.83 390.15 1597.83 398.53L1597.84 511.446ZM1705.16 420.351C1705.16 396.238 1704.4 391.931 1693.93 390.661L1685.75 389.646C1683.97 388.376 1683.97 384.323 1686.01 383.309C1700.31 382.032 1717.94 381.272 1742.97 381.272C1758.8 381.272 1773.87 382.542 1785.61 388.887C1797.87 395.231 1806.82 406.649 1806.82 424.411C1806.82 448.523 1787.66 461.709 1774.89 466.789C1773.62 468.308 1774.9 470.848 1776.18 472.878C1796.6 505.613 1810.14 525.909 1827.5 540.371C1831.85 544.175 1838.24 546.963 1845.14 547.467C1846.42 547.978 1846.67 550.015 1845.39 551.029C1843.08 551.789 1839 552.293 1834.14 552.293C1812.43 552.293 1799.42 545.956 1781.29 520.331C1774.64 510.942 1764.16 493.429 1756.25 482.011C1752.41 476.419 1748.34 473.886 1738.11 473.886C1726.62 473.886 1726.12 474.134 1726.12 479.471V511.44C1726.12 538.079 1726.61 541.13 1741.43 543.167L1746.8 543.919C1748.33 545.182 1747.82 549.504 1746.29 550.27C1734.79 549.759 1726.12 549.504 1715.89 549.504C1705.16 549.504 1695.98 549.759 1683.96 550.27C1682.43 549.504 1681.92 545.686 1683.45 543.919L1689.83 543.167C1704.65 541.386 1705.16 538.086 1705.16 511.44V420.351ZM1726.1 456.635C1726.1 461.198 1726.11 463.987 1726.88 465.001C1727.64 465.761 1731.47 466.272 1744.51 466.272C1753.69 466.272 1763.4 465.257 1770.81 459.679C1777.72 454.35 1783.59 445.465 1783.59 428.214C1783.59 408.167 1771.07 389.135 1742.72 389.135C1726.88 389.135 1726.12 390.15 1726.12 397.26V456.635H1726.1ZM1839.79 467.535C1839.79 416.789 1878.11 377.973 1930.73 377.973C1989.74 377.973 2019.36 420.345 2019.36 465.001C2019.36 516.258 1980.02 553.57 1930.73 553.57C1874.02 553.57 1839.79 513.227 1839.79 467.535ZM1993.82 472.878C1993.82 431.01 1975.17 385.842 1926.39 385.842C1899.83 385.842 1865.33 403.853 1865.33 459.424C1865.33 496.991 1883.73 545.693 1934.05 545.693C1964.7 545.693 1993.82 522.864 1993.82 472.878ZM2063.86 420.089C2063.86 393.712 2063.35 389.894 2048.28 388.127L2044.18 387.616C2042.65 386.602 2043.16 382.032 2044.7 381.272C2055.68 381.783 2064.38 382.032 2074.85 382.032H2122.86C2139.22 382.032 2154.28 382.032 2157.35 381.272C2158.88 385.587 2160.4 403.853 2161.42 415.022C2160.4 416.548 2156.32 417.052 2155.05 415.526C2151.21 403.597 2148.91 394.72 2135.63 391.427C2130.27 390.15 2122.11 389.894 2110.87 389.894H2092.47C2084.81 389.894 2084.81 390.412 2084.81 400.049V450.802C2084.81 457.912 2085.57 457.912 2093.23 457.912H2108.06C2118.78 457.912 2126.7 457.408 2129.78 456.386C2132.83 455.378 2134.61 453.846 2135.89 447.495L2137.95 437.092C2139.23 435.573 2143.56 435.573 2144.58 437.347C2144.58 443.436 2143.57 453.342 2143.57 462.979C2143.57 472.119 2144.58 481.763 2144.58 487.333C2143.57 489.114 2139.23 489.114 2137.95 487.596L2135.64 477.683C2134.62 473.12 2132.83 469.323 2127.72 468.046C2124.14 467.031 2118.03 466.783 2108.06 466.783H2093.24C2085.58 466.783 2084.81 467.031 2084.81 473.637V509.417C2084.81 522.857 2085.57 531.486 2089.66 535.794C2092.73 538.831 2098.11 541.634 2120.57 541.634C2140.25 541.634 2147.65 540.619 2153.27 537.831C2157.87 535.29 2164.75 526.413 2171.39 513.221C2173.2 511.95 2176.77 512.71 2177.78 514.988C2176 523.872 2169.61 543.415 2166.29 550.27C2143.3 549.759 2120.57 549.504 2097.84 549.504H2074.86C2063.87 549.504 2055.19 549.759 2040.12 550.27C2038.59 549.504 2038.09 545.438 2039.61 543.919L2048.04 543.167C2062.6 541.89 2063.87 538.086 2063.87 511.44V420.089H2063.86ZM2350.46 506.366C2350.46 513.987 2350.46 544.175 2351.22 550.781C2350.73 552.293 2349.19 553.57 2346.38 553.57C2343.32 549.248 2335.91 540.371 2313.69 515.236L2254.44 448.261C2247.53 440.392 2230.17 419.578 2224.8 414H2224.29C2223.27 417.045 2223 422.885 2223 430.492V485.815C2223 497.73 2223.26 530.72 2227.61 538.334C2229.15 541.123 2234.25 542.649 2240.64 543.16L2248.55 543.912C2250.1 545.942 2249.82 548.993 2248.04 550.263C2236.55 549.752 2227.61 549.497 2218.16 549.497C2207.44 549.497 2200.53 549.752 2191.59 550.263C2189.81 548.993 2189.54 545.431 2191.08 543.912L2197.97 543.16C2203.87 542.387 2207.93 540.882 2209.22 538.079C2212.8 528.946 2212.53 497.992 2212.53 485.815V412.475C2212.53 405.371 2212.28 400.042 2206.92 394.202C2203.34 390.654 2197.21 388.88 2191.08 388.12L2186.74 387.609C2185.21 386.084 2185.21 382.287 2187.26 381.265C2197.97 382.025 2211.52 382.025 2216.11 382.025C2220.21 382.025 2224.54 381.769 2227.86 381.265C2232.98 394.209 2263.11 427.703 2271.53 437.085L2296.32 464.746C2313.95 484.282 2326.45 498.496 2338.45 510.68H2338.98C2339.99 509.41 2339.99 505.344 2339.99 500.015V445.714C2339.99 433.778 2339.73 400.801 2334.88 393.187C2333.34 390.902 2329.27 389.377 2319.05 388.113L2314.71 387.603C2312.91 386.077 2313.17 382.018 2315.2 381.258C2326.94 381.769 2335.66 382.018 2345.34 382.018C2356.33 382.018 2362.98 381.762 2371.66 381.258C2373.7 382.529 2373.7 386.077 2372.16 387.603L2368.59 388.113C2360.41 389.377 2355.31 391.413 2354.3 393.436C2349.94 402.576 2350.45 434.04 2350.45 445.721V506.366H2350.46ZM2474.38 511.446C2474.38 538.086 2474.89 541.896 2489.72 543.174L2497.88 543.926C2499.42 544.934 2498.91 549.511 2497.39 550.277C2482.83 549.766 2474.14 549.511 2463.93 549.511C2453.71 549.511 2444.77 549.766 2428.42 550.277C2426.88 549.511 2426.37 545.189 2428.42 543.926L2437.62 543.174C2452.16 541.896 2453.43 538.093 2453.43 511.446V398.013C2453.43 390.15 2453.43 389.894 2445.78 389.894H2431.74C2420.75 389.894 2406.7 390.412 2400.32 396.238C2394.18 401.83 2391.63 407.408 2388.83 413.745C2386.78 415.271 2383.2 414.007 2382.18 411.971C2386.26 400.56 2390.1 384.323 2391.88 374.162C2392.66 373.658 2395.98 373.403 2396.74 374.162C2398.28 382.287 2406.7 382.032 2418.45 382.032H2521.9C2535.69 382.032 2538 381.528 2541.83 374.928C2543.1 374.424 2545.91 374.673 2546.41 375.688C2543.62 386.091 2541.83 406.649 2542.59 414.256C2541.57 416.285 2537.23 416.285 2535.94 414.774C2535.17 408.43 2533.38 399.034 2529.55 396.238C2523.69 391.931 2513.98 389.894 2499.93 389.894H2481.79C2474.13 389.894 2474.38 390.15 2474.38 398.53V511.446ZM2581.7 420.089C2581.7 393.712 2581.18 389.894 2566.12 388.127L2562.03 387.616C2560.5 386.602 2561.01 382.032 2562.53 381.272C2573.53 381.783 2582.21 382.032 2592.67 382.032H2640.7C2657.04 382.032 2672.13 382.032 2675.18 381.272C2676.71 385.587 2678.24 403.853 2679.26 415.022C2678.24 416.548 2674.17 417.052 2672.87 415.526C2669.05 403.597 2666.74 394.72 2653.47 391.427C2648.1 390.15 2639.92 389.894 2628.7 389.894H2610.29C2602.63 389.894 2602.63 390.412 2602.63 400.049V450.802C2602.63 457.912 2603.41 457.912 2611.06 457.912H2625.89C2636.6 457.912 2644.53 457.408 2647.6 456.386C2650.66 455.378 2652.45 453.846 2653.73 447.495L2655.78 437.092C2657.05 435.573 2661.39 435.573 2662.41 437.347C2662.41 443.436 2661.39 453.342 2661.39 462.979C2661.39 472.119 2662.41 481.763 2662.41 487.333C2661.39 489.114 2657.05 489.114 2655.78 487.596L2653.47 477.683C2652.45 473.12 2650.67 469.323 2645.56 468.046C2641.97 467.031 2635.86 466.783 2625.9 466.783H2611.07C2603.42 466.783 2602.64 467.031 2602.64 473.637V509.417C2602.64 522.857 2603.41 531.486 2607.49 535.794C2610.56 538.831 2615.93 541.634 2638.4 541.634C2658.07 541.634 2665.48 540.619 2671.09 537.831C2675.7 535.29 2682.59 526.413 2689.23 513.221C2691.01 511.95 2694.59 512.71 2695.62 514.988C2693.83 523.872 2687.45 543.415 2684.12 550.27C2661.13 549.759 2638.4 549.504 2615.67 549.504H2592.68C2581.7 549.504 2573 549.759 2557.95 550.27C2556.42 549.504 2555.9 545.438 2557.44 543.919L2565.87 543.167C2580.43 541.89 2581.71 538.086 2581.71 511.44V420.089H2581.7ZM2730.94 420.351C2730.94 396.238 2730.17 391.931 2719.7 390.661L2711.52 389.646C2709.74 388.376 2709.74 384.323 2711.77 383.309C2726.07 382.032 2743.69 381.272 2768.73 381.272C2784.57 381.272 2799.64 382.542 2811.39 388.887C2823.64 395.231 2832.59 406.649 2832.59 424.411C2832.59 448.523 2813.44 461.709 2800.65 466.789C2799.37 468.308 2800.65 470.848 2801.94 472.878C2822.38 505.613 2835.91 525.909 2853.28 540.371C2857.62 544.175 2864.02 546.963 2870.9 547.467C2872.2 547.978 2872.44 550.015 2871.16 551.029C2868.86 551.789 2864.78 552.293 2859.92 552.293C2838.21 552.293 2825.18 545.956 2807.06 520.331C2800.41 510.942 2789.94 493.429 2782.01 482.011C2778.18 476.419 2774.11 473.886 2763.88 473.886C2752.39 473.886 2751.87 474.134 2751.87 479.471V511.44C2751.87 538.079 2752.39 541.13 2767.2 543.167L2772.58 543.919C2774.12 545.182 2773.58 549.504 2772.05 550.27C2760.57 549.759 2751.87 549.504 2741.67 549.504C2730.94 549.504 2721.73 549.759 2709.75 550.27C2708.21 549.504 2707.69 545.686 2709.23 543.919L2715.62 543.167C2730.42 541.386 2730.95 538.086 2730.95 511.44V420.351H2730.94ZM2751.87 456.635C2751.87 461.198 2751.87 463.987 2752.64 465.001C2753.39 465.761 2757.24 466.272 2770.26 466.272C2779.46 466.272 2789.16 465.257 2796.57 459.679C2803.46 454.35 2809.36 445.465 2809.36 428.214C2809.36 408.167 2796.84 389.135 2768.48 389.135C2752.65 389.135 2751.87 390.15 2751.87 397.26L2751.87 456.635ZM2865.56 467.535C2865.56 416.789 2903.87 377.973 2956.48 377.973C3015.5 377.973 3045.13 420.345 3045.13 465.001C3045.13 516.258 3005.79 553.57 2956.48 553.57C2899.8 553.57 2865.56 513.227 2865.56 467.535ZM3019.59 472.878C3019.59 431.01 3000.94 385.842 2952.15 385.842C2925.58 385.842 2891.1 403.853 2891.1 459.424C2891.1 496.991 2909.49 545.693 2959.81 545.693C2990.46 545.693 3019.59 522.864 3019.59 472.878ZM3089.63 420.089C3089.63 393.443 3089.12 389.39 3073.04 388.127L3066.65 387.616C3065.1 386.602 3065.63 382.032 3067.15 381.272C3081.45 381.783 3090.14 382.032 3100.37 382.032C3110.32 382.032 3118.99 381.776 3131.77 381.272C3133.31 382.032 3133.82 386.602 3132.3 387.616L3126.15 388.127C3111.08 389.39 3110.56 393.45 3110.56 420.089V508.395C3110.56 524.39 3111.34 530.983 3115.93 535.808C3118.73 538.604 3123.58 541.648 3143.78 541.648C3165.49 541.648 3170.84 540.633 3174.93 538.348C3180.05 535.304 3186.69 526.164 3191.79 513.227C3193.32 511.957 3198.19 512.972 3198.19 514.746C3198.19 517.542 3191.04 543.422 3187.44 550.277C3174.43 549.766 3150.16 549.511 3123.85 549.511H3100.36C3089.62 549.511 3081.45 549.766 3067.14 550.277C3065.62 549.511 3065.09 545.445 3066.64 543.926L3074.3 543.174C3089.11 541.641 3089.63 538.093 3089.63 511.446V420.089H3089.63ZM3206.9 467.535C3206.9 416.789 3245.22 377.973 3297.82 377.973C3356.83 377.973 3386.47 420.345 3386.47 465.001C3386.47 516.258 3347.12 553.57 3297.82 553.57C3241.13 553.57 3206.9 513.227 3206.9 467.535ZM3360.92 472.878C3360.92 431.01 3342.27 385.842 3293.48 385.842C3266.92 385.842 3232.42 403.853 3232.42 459.424C3232.42 496.991 3250.82 545.693 3301.14 545.693C3331.79 545.693 3360.92 522.864 3360.92 472.878ZM3563.75 523.624C3563.75 533.771 3565.3 539.867 3569.89 541.634C3570.66 542.387 3570.66 543.919 3569.65 544.679C3566.57 544.679 3561.97 545.686 3557.12 546.957C3543.58 550.526 3525.2 553.563 3511.41 553.563C3481.01 553.563 3453.16 545.176 3433.5 525.391C3418.18 510.169 3410.01 490.122 3410.01 467.79C3410.01 446.225 3417.16 424.404 3432.99 407.656C3450.1 389.887 3475.4 377.966 3513.95 377.966C3528.52 377.966 3542.06 380.755 3546.41 381.769C3551.25 382.784 3559.17 384.565 3562.24 384.061C3562.24 392.428 3563.76 405.627 3566.07 420.848C3565.31 422.878 3560.71 423.133 3559.17 421.608C3552.02 394.202 3532.86 385.573 3506.82 385.573C3457.27 385.573 3435.55 420.593 3435.55 458.657C3435.55 507.373 3460.85 545.68 3512.17 545.68C3528.02 545.68 3537.47 542.38 3540.28 538.072C3541.57 536.305 3542.84 531.728 3542.84 523.61V513.448C3542.84 492.145 3542.06 490.612 3526.24 488.845L3514.99 487.582C3512.94 486.567 3513.21 481.997 3514.99 481.224C3522.41 481.742 3536.44 481.997 3551.52 481.997C3561.48 481.997 3570.16 481.742 3578.6 481.224C3580.38 482.253 3580.63 486.049 3578.84 487.582L3574.76 488.086C3564.04 489.356 3563.76 496.453 3563.76 509.41V523.624H3563.75ZM3674.93 510.942C3674.93 538.093 3676.47 542.152 3690.26 543.174L3699.95 543.926C3701.5 545.445 3700.98 549.511 3699.45 550.277C3683.61 549.766 3674.93 549.511 3664.71 549.511C3653.98 549.511 3644.78 549.766 3631.25 550.277C3629.71 549.511 3629.2 545.445 3630.74 543.926L3638.66 543.174C3653.48 541.641 3653.98 538.093 3653.98 510.942V498.006C3653.98 484.047 3653.23 480.748 3645.8 466.534L3615.66 408.174C3606.98 391.427 3603.15 390.157 3595.48 388.887L3588.34 387.616C3586.8 385.842 3587.06 382.294 3588.85 381.272C3597.03 381.783 3606.23 382.032 3618.47 382.032C3630.23 382.032 3639.42 381.776 3645.8 381.272C3648.11 382.032 3648.11 386.091 3646.57 387.616L3643.26 388.127C3634.32 389.39 3632.51 390.661 3632.51 392.69C3632.51 395.231 3639.16 409.686 3640.44 412.233C3649.89 431.01 3659.32 451.05 3669.28 468.564C3677.22 455.116 3685.64 440.398 3693.31 425.674C3700.46 412.482 3709.91 395.224 3709.91 392.179C3709.91 390.654 3705.3 388.88 3699.18 388.12L3694.58 387.609C3692.78 385.835 3693.04 382.287 3695.1 381.265C3704.28 381.776 3711.69 382.025 3719.6 382.025C3727.53 382.025 3734.68 381.769 3743.37 381.265C3745.41 382.536 3745.65 386.084 3743.86 387.609L3736.72 388.88C3723.44 391.171 3715.77 407.146 3703.01 428.974L3686.91 456.635C3675.66 475.915 3674.91 478.2 3674.91 497.73V510.942H3674.93ZM1096.05 764.222C1093.5 756.269 1092.05 755.179 1081.13 755.179H1026.2C1017.1 755.179 1014.92 756.262 1012.38 763.856L999.641 801.81C994.181 818.074 991.633 827.835 991.633 831.804C991.633 836.147 993.456 838.314 1002.19 839.032L1014.19 840.123C1016.74 841.931 1016.74 847.716 1013.47 849.152C1004 848.434 992.731 848.434 975.632 848.061C963.627 848.061 950.525 848.807 940.701 849.152C938.513 847.716 937.781 841.931 939.976 840.123L951.981 839.032C960.721 838.314 968.721 834.338 973.816 821.332C980.367 804.702 990.549 781.211 1005.83 740.737L1042.94 643.146C1048.04 630.134 1050.22 623.272 1049.13 617.48C1057.86 614.953 1064.04 608.444 1068.04 603.749C1070.23 603.749 1072.77 604.467 1073.51 607.001C1078.23 622.913 1084.05 639.536 1089.51 655.434L1139.36 800.726C1149.92 831.811 1154.65 837.23 1170.29 839.039L1180.11 840.13C1182.66 841.938 1181.93 847.723 1180.11 849.159C1165.19 848.441 1152.46 848.068 1136.09 848.068C1118.62 848.068 1104.8 848.814 1094.24 849.159C1091.34 847.723 1090.96 841.938 1093.52 840.13L1104.07 839.039C1111.71 838.321 1116.8 836.153 1116.8 832.543C1116.8 828.56 1114.99 822.057 1112.07 813.387L1096.05 764.222ZM1024.01 732.067C1021.1 740.371 1021.46 740.737 1031.65 740.737H1076.4C1086.95 740.737 1087.68 739.287 1084.41 729.533L1064.77 670.621C1061.85 661.944 1058.58 652.189 1056.39 647.847H1055.67C1054.58 649.649 1050.94 658.326 1046.93 669.164L1024.01 732.067ZM1231.83 852.128C1210.38 852.128 1196.84 845.535 1191.99 842.732C1188.92 837.161 1185.6 819.137 1185.09 807.215C1186.37 805.434 1190.2 804.937 1191.23 806.456C1195.05 819.392 1205.53 844.265 1235.15 844.265C1256.61 844.265 1267.08 830.313 1267.08 815.085C1267.08 803.908 1264.79 791.483 1246.13 779.561L1221.87 763.828C1209.1 755.455 1194.28 740.986 1194.28 720.186C1194.28 696.08 1213.19 676.544 1246.39 676.544C1254.31 676.544 1263.5 678.063 1270.14 679.844C1273.46 680.852 1277.04 681.376 1279.08 681.376C1281.38 687.451 1283.67 701.665 1283.67 712.316C1282.66 713.849 1278.57 714.601 1277.3 713.076C1273.98 700.899 1267.08 684.414 1242.56 684.414C1217.53 684.414 1212.16 700.905 1212.16 712.572C1212.16 727.296 1224.42 737.955 1233.87 743.788L1254.31 756.463C1270.39 766.376 1286.24 781.086 1286.24 805.192C1286.24 833.095 1265.04 852.128 1231.83 852.128ZM1356.77 852.128C1335.31 852.128 1321.77 845.535 1316.92 842.732C1313.86 837.161 1310.53 819.137 1310.02 807.215C1311.31 805.434 1315.13 804.937 1316.15 806.456C1319.99 819.392 1330.46 844.265 1360.09 844.265C1381.54 844.265 1392.02 830.313 1392.02 815.085C1392.02 803.908 1389.71 791.483 1371.07 779.561L1346.8 763.828C1334.03 755.455 1319.22 740.986 1319.22 720.186C1319.22 696.08 1338.12 676.544 1371.32 676.544C1379.24 676.544 1388.43 678.063 1395.07 679.844C1398.4 680.852 1401.97 681.376 1404.01 681.376C1406.31 687.451 1408.61 701.665 1408.61 712.316C1407.59 713.849 1403.5 714.601 1402.23 713.076C1398.91 700.899 1392.02 684.414 1367.49 684.414C1342.46 684.414 1337.1 700.905 1337.1 712.572C1337.1 727.296 1349.35 737.955 1358.8 743.788L1379.24 756.463C1395.33 766.376 1411.16 781.086 1411.16 805.192C1411.18 833.095 1389.97 852.128 1356.77 852.128ZM1436.25 766.099C1436.25 715.361 1474.56 676.53 1527.18 676.53C1586.18 676.53 1615.82 718.902 1615.82 763.559C1615.82 814.822 1576.47 852.121 1527.18 852.121C1470.48 852.128 1436.25 811.792 1436.25 766.099ZM1590.27 771.443C1590.27 729.568 1571.62 684.407 1522.84 684.407C1496.27 684.407 1461.78 702.417 1461.78 757.981C1461.78 795.549 1480.18 844.265 1530.5 844.265C1561.15 844.265 1590.27 821.422 1590.27 771.443ZM1671.02 698.103C1689.66 683.64 1713.41 676.537 1739.98 676.537C1753.77 676.537 1773.19 679.319 1785.19 682.626C1788.25 683.385 1790.04 683.889 1792.34 683.641C1792.59 689.481 1793.88 705.462 1795.91 720.932C1794.64 722.706 1790.8 722.968 1789.02 721.443C1785.19 704.184 1773.69 684.4 1736.66 684.4C1697.58 684.4 1664.37 709.003 1664.37 761.543C1664.37 814.829 1698.34 844.258 1740.23 844.258C1773.18 844.258 1787.74 822.941 1793.62 807.968C1795.4 806.697 1799.23 807.215 1800.26 808.982C1798.47 822.181 1791.83 838.928 1788 843.747C1784.93 844.251 1781.87 845.273 1779.06 846.274C1773.44 848.31 1755.05 852.121 1738.71 852.121C1715.71 852.121 1693.75 847.558 1675.11 835.118C1654.67 821.167 1638.84 798.068 1638.84 765.333C1638.83 737.182 1651.6 713.069 1671.02 698.103ZM1838.12 719.158C1838.12 692.269 1837.6 687.955 1822.53 686.685L1816.15 686.188C1814.62 685.166 1815.13 680.589 1816.67 679.837C1829.44 680.334 1838.13 680.589 1848.85 680.589C1859.07 680.589 1867.75 680.334 1880.51 679.837C1882.05 680.589 1882.56 685.159 1881.03 686.188L1874.65 686.685C1859.57 687.962 1859.06 692.276 1859.06 719.158V809.5C1859.06 836.395 1859.57 839.943 1874.65 841.724L1881.03 842.491C1882.56 843.498 1882.05 848.062 1880.51 848.835C1867.74 848.324 1859.07 848.061 1848.85 848.061C1838.13 848.061 1829.44 848.324 1816.67 848.835C1815.13 848.062 1814.62 844.009 1816.15 842.491L1822.53 841.724C1837.6 839.943 1838.12 836.395 1838.12 809.5V719.158ZM1995.73 789.198C1993.95 783.606 1992.93 782.86 1985.26 782.86H1946.68C1940.3 782.86 1938.77 783.606 1936.98 788.942L1928.04 815.582C1924.22 827.007 1922.43 833.862 1922.43 836.644C1922.43 839.695 1923.7 841.213 1929.84 841.717L1938.26 842.484C1940.05 843.754 1940.05 847.806 1937.75 848.828C1931.11 848.317 1923.2 848.317 1911.18 848.055C1902.76 848.055 1893.56 848.572 1886.66 848.828C1885.13 847.813 1884.62 843.754 1886.16 842.484L1894.59 841.717C1900.72 841.213 1906.34 838.418 1909.91 829.292C1914.5 817.625 1921.66 801.12 1932.38 772.706L1958.43 704.184C1962.01 695.052 1963.55 690.233 1962.77 686.181C1968.91 684.4 1973.25 679.83 1976.05 676.537C1977.59 676.537 1979.37 677.041 1979.89 678.815C1983.21 689.984 1987.3 701.658 1991.12 712.82L2026.12 814.829C2033.52 836.644 2036.84 840.461 2047.83 841.724L2054.72 842.491C2056.52 843.761 2056.01 847.813 2054.72 848.835C2044.26 848.324 2035.31 848.061 2023.82 848.061C2011.56 848.061 2001.84 848.579 1994.44 848.835C1992.41 847.82 1992.15 843.761 1993.94 842.491L2001.34 841.724C2006.7 841.22 2010.28 839.702 2010.28 837.168C2010.28 834.372 2009 829.802 2006.95 823.714L1995.73 789.198ZM1945.16 766.61C1943.11 772.45 1943.37 772.713 1950.52 772.713H1981.93C1989.33 772.713 1989.85 771.691 1987.55 764.836L1973.76 723.479C1971.72 717.383 1969.43 710.535 1967.89 707.498H1967.38C1966.6 708.761 1964.06 714.857 1961.25 722.464L1945.16 766.61ZM2127.07 810.011C2127.07 836.644 2127.57 840.461 2142.39 841.724L2150.56 842.491C2152.1 843.498 2151.58 848.062 2150.06 848.835C2135.5 848.324 2126.81 848.061 2116.6 848.061C2106.38 848.061 2097.43 848.324 2081.09 848.835C2079.55 848.062 2079.05 843.761 2081.09 842.491L2090.27 841.724C2104.84 840.461 2106.12 836.65 2106.12 810.011V696.577C2106.12 688.707 2106.12 688.445 2098.46 688.445H2084.42C2073.43 688.445 2059.38 688.956 2053 694.803C2046.86 700.395 2044.3 705.959 2041.5 712.303C2039.46 713.835 2035.88 712.558 2034.86 710.529C2038.95 699.111 2042.78 682.874 2044.58 672.72C2045.34 672.209 2048.66 671.96 2049.41 672.72C2050.96 680.838 2059.38 680.582 2071.13 680.582H2174.58C2188.37 680.582 2190.67 680.085 2194.51 673.486C2195.78 672.989 2198.59 673.237 2199.1 674.245C2196.31 684.655 2194.51 705.192 2195.27 712.813C2194.24 714.85 2189.9 714.85 2188.62 713.324C2187.86 706.98 2186.07 697.592 2182.23 694.796C2176.36 690.475 2166.66 688.438 2152.62 688.438H2134.48C2126.81 688.438 2127.08 688.701 2127.08 697.074L2127.07 810.011ZM2234.35 718.661C2234.35 692.269 2233.83 688.445 2218.77 686.678L2214.68 686.181C2213.16 685.159 2213.66 680.582 2215.19 679.83C2226.17 680.327 2234.87 680.582 2245.32 680.582H2293.35C2309.7 680.582 2324.77 680.582 2327.83 679.83C2329.36 684.138 2330.88 702.41 2331.92 713.587C2330.89 715.112 2326.82 715.609 2325.53 714.077C2321.7 702.155 2319.4 693.277 2306.12 689.985C2300.75 688.707 2292.59 688.445 2281.35 688.445H2262.96C2255.29 688.445 2255.29 688.956 2255.29 698.607V749.359C2255.29 756.456 2256.06 756.456 2263.73 756.456H2278.55C2289.26 756.456 2297.19 755.966 2300.26 754.951C2303.32 753.929 2305.1 752.41 2306.38 746.059L2308.44 735.649C2309.71 734.131 2314.05 734.131 2315.07 735.905C2315.07 742 2314.06 751.893 2314.06 761.543C2314.06 770.669 2315.07 780.32 2315.07 785.898C2314.06 787.672 2309.71 787.672 2308.44 786.153L2306.12 776.247C2305.11 771.677 2303.32 767.881 2298.21 766.603C2294.63 765.596 2288.51 765.333 2278.55 765.333H2263.73C2256.07 765.333 2255.29 765.589 2255.29 772.195V807.968C2255.29 821.415 2256.06 830.044 2260.14 834.359C2263.22 837.403 2268.59 840.199 2291.06 840.199C2310.72 840.199 2318.14 839.184 2323.74 836.381C2328.35 833.862 2335.24 824.97 2341.88 811.785C2343.67 810.508 2347.25 811.274 2348.28 813.552C2346.47 822.444 2340.1 841.98 2336.79 848.828C2313.79 848.317 2291.06 848.055 2268.33 848.055H2245.33C2234.35 848.055 2225.66 848.317 2210.6 848.828C2209.06 848.055 2208.56 844.002 2210.09 842.484L2218.53 841.717C2233.09 840.454 2234.36 836.644 2234.36 810.004V718.661H2234.35ZM2408.09 852.128C2386.64 852.128 2373.09 845.535 2368.25 842.732C2365.19 837.161 2361.87 819.137 2361.36 807.215C2362.63 805.434 2366.46 804.937 2367.47 806.456C2371.33 819.392 2381.79 844.265 2411.41 844.265C2432.86 844.265 2443.33 830.313 2443.33 815.085C2443.33 803.908 2441.04 791.483 2422.41 779.561L2398.14 763.828C2385.36 755.455 2370.55 740.986 2370.55 720.186C2370.55 696.08 2389.44 676.544 2422.65 676.544C2430.58 676.544 2439.76 678.063 2446.41 679.844C2449.73 680.852 2453.3 681.376 2455.35 681.376C2457.65 687.451 2459.94 701.665 2459.94 712.316C2458.92 713.849 2454.83 714.601 2453.56 713.076C2450.24 700.899 2443.33 684.414 2418.82 684.414C2393.79 684.414 2388.43 700.905 2388.43 712.572C2388.43 727.296 2400.69 737.955 2410.14 743.788L2430.58 756.463C2446.66 766.376 2462.5 781.086 2462.5 805.192C2462.5 833.095 2441.3 852.128 2408.09 852.128Z" fill="white"/>
</svg>
