<svg width="4274" height="856" viewBox="0 0 4274 856" fill="none" xmlns="http://www.w3.org/2000/svg">
<path d="M634.501 38.3958C634.501 38.3958 456.93 70.7304 415.966 169.377C374.989 268.031 734.435 294.492 719.503 428.897C704.323 565.492 590.493 591.282 472.117 638.334C472.117 638.334 528.282 745.162 350.717 845.783H811.371V38.3958H634.501Z" fill="#332F2E"/>
<path d="M394.715 712.703C430.833 580.078 84.8015 581.604 91.187 454.708C97.9728 319.633 232.323 290.791 350.707 243.739C350.707 243.739 268.738 145.085 463.312 38.3887H3.96484V845.783H179.507C179.507 845.783 366.646 815.761 394.715 712.703Z" fill="#332F2E"/>
<path d="M174.637 442.089C174.637 442.089 176.155 486.574 273.291 519.965C370.419 553.362 423.539 591.289 423.539 591.289C423.539 591.289 617.803 548.799 639.051 456.227C660.292 363.648 466.339 334.806 407.006 292.317C407.006 292.317 173.284 335.207 174.637 442.089Z" fill="#332F2E"/>
<path d="M1029.47 256.172C998.921 256.172 979.626 246.77 972.709 242.794C968.353 234.848 963.624 209.182 962.893 192.2C964.708 189.666 970.162 188.948 971.618 191.116C977.079 209.548 992.004 244.968 1034.2 244.968C1064.77 244.968 1079.68 225.087 1079.68 203.397C1079.68 187.499 1076.41 169.785 1049.85 152.81L1015.28 130.402C997.091 118.473 975.988 97.8741 975.988 68.2317C975.988 33.895 1002.91 6.06812 1050.22 6.06812C1061.49 6.06812 1074.59 8.23574 1084.05 10.7692C1088.78 12.212 1093.87 12.9437 1096.79 12.9437C1100.06 21.6142 1103.34 41.8544 1103.34 57.0346C1101.88 59.2022 1096.06 60.2861 1094.24 58.1185C1089.51 40.7707 1079.69 17.279 1044.76 17.279C1009.1 17.279 1001.47 40.7637 1001.47 57.4005C1001.47 78.3587 1018.93 93.532 1032.39 101.843L1061.5 119.923C1084.42 134.019 1106.98 154.978 1106.98 189.314C1106.97 229.07 1076.78 256.172 1029.47 256.172ZM1229.83 191.523C1228.04 185.939 1227.02 185.186 1219.35 185.186H1180.79C1174.4 185.186 1172.87 185.945 1171.08 191.275L1162.14 217.914C1158.3 229.339 1156.52 236.187 1156.52 238.976C1156.52 242.027 1157.8 243.553 1163.93 244.05L1172.36 244.809C1174.15 246.086 1174.15 250.145 1171.85 251.153C1165.21 250.649 1157.29 250.649 1145.28 250.394C1136.85 250.394 1127.66 250.905 1120.76 251.153C1119.22 250.145 1118.72 246.079 1120.25 244.809L1128.68 244.05C1134.81 243.546 1140.43 240.75 1144.01 231.617C1148.6 219.951 1155.75 203.452 1166.48 175.025L1192.53 106.517C1196.1 97.384 1197.64 92.5655 1196.86 88.4995C1202.99 86.7254 1207.34 82.1555 1210.15 78.8557C1211.68 78.8557 1213.47 79.3666 1213.98 81.1407C1217.3 92.3032 1221.38 103.977 1225.22 115.146L1260.21 217.155C1267.61 238.976 1270.94 242.787 1281.93 244.05L1288.83 244.809C1290.62 246.086 1290.11 250.145 1288.83 251.153C1278.36 250.649 1269.41 250.394 1257.92 250.394C1245.66 250.394 1235.95 250.905 1228.54 251.153C1226.5 250.145 1226.24 246.079 1228.03 244.809L1235.44 244.05C1240.8 243.546 1244.38 242.027 1244.38 239.487C1244.38 236.698 1243.09 232.128 1241.06 226.039L1229.83 191.523ZM1179.25 168.936C1177.21 174.769 1177.47 175.025 1184.62 175.025H1216.03C1223.44 175.025 1223.95 174.01 1221.65 167.155L1207.86 125.805C1205.82 119.709 1203.52 112.861 1201.99 109.817H1201.48C1200.71 111.087 1198.15 117.169 1195.34 124.79L1179.25 168.936ZM1317.75 121.235C1317.75 97.1217 1316.98 92.8072 1306.51 91.537L1298.33 90.5222C1296.55 89.252 1296.55 85.1998 1298.59 84.185C1312.89 82.9148 1330.52 82.1486 1355.55 82.1486C1371.39 82.1486 1386.45 83.4188 1398.2 89.7628C1410.46 96.1 1419.41 107.525 1419.41 125.294C1419.41 149.4 1400.25 162.585 1387.48 167.666C1386.21 169.191 1387.48 171.725 1388.76 173.754C1409.19 206.489 1422.73 226.792 1440.1 241.254C1444.44 245.058 1450.83 247.854 1457.72 248.358C1459 248.868 1459.26 250.898 1457.98 251.913C1455.68 252.679 1451.59 253.183 1446.74 253.183C1425.03 253.183 1412.01 246.839 1393.87 221.214C1387.23 211.826 1376.75 194.312 1368.84 182.894C1365.01 177.31 1360.93 174.776 1350.71 174.776C1339.21 174.776 1338.7 175.031 1338.7 180.368V212.337C1338.7 238.976 1339.21 242.027 1354.02 244.05L1359.39 244.809C1360.92 246.086 1360.41 250.394 1358.88 251.153C1347.39 250.649 1338.7 250.394 1328.48 250.394C1317.75 250.394 1308.56 250.656 1296.55 251.153C1295.01 250.394 1294.51 246.59 1296.04 244.809L1302.42 244.05C1317.24 242.276 1317.75 238.976 1317.75 212.337V121.235ZM1338.69 157.518C1338.69 162.088 1338.69 164.877 1339.46 165.892C1340.22 166.651 1344.05 167.155 1357.07 167.155C1366.28 167.155 1375.98 166.14 1383.39 160.562C1390.29 155.24 1396.16 146.349 1396.16 129.091C1396.16 109.044 1383.64 90.0183 1355.29 90.0183C1339.46 90.0183 1338.69 91.033 1338.69 98.1434V157.518Z" fill="#332F2E"/>
<path d="M1553.78 191.523C1551.99 185.939 1550.97 185.186 1543.3 185.186H1504.74C1498.35 185.186 1496.82 185.945 1495.04 191.275L1486.1 217.914C1482.27 229.339 1480.48 236.187 1480.48 238.976C1480.48 242.027 1481.76 243.553 1487.89 244.05L1496.31 244.809C1498.1 246.086 1498.11 250.145 1495.81 251.153C1489.17 250.649 1481.24 250.649 1469.24 250.394C1460.81 250.394 1451.62 250.905 1444.72 251.153C1443.19 250.145 1442.67 246.079 1444.22 244.809L1452.64 244.05C1458.77 243.546 1464.4 240.75 1467.98 231.617C1472.57 219.951 1479.73 203.452 1490.45 175.025L1516.49 106.517C1520.08 97.384 1521.6 92.5655 1520.83 88.4995C1526.96 86.7254 1531.31 82.1555 1534.13 78.8557C1535.66 78.8557 1537.44 79.3666 1537.96 81.1407C1541.27 92.3032 1545.36 103.977 1549.19 115.146L1584.18 217.155C1591.59 238.976 1594.91 242.787 1605.9 244.05L1612.8 244.809C1614.59 246.086 1614.08 250.145 1612.8 251.153C1602.33 250.649 1593.38 250.394 1581.89 250.394C1569.63 250.394 1559.92 250.905 1552.52 251.153C1550.48 250.145 1550.23 246.079 1552.02 244.809L1559.42 244.05C1564.78 243.546 1568.36 242.027 1568.36 239.487C1568.36 236.698 1567.08 232.128 1565.04 226.039L1553.78 191.523ZM1503.21 168.936C1501.17 174.769 1501.42 175.025 1508.57 175.025H1539.98C1547.4 175.025 1547.9 174.01 1545.6 167.155L1531.81 125.805C1529.77 119.709 1527.46 112.861 1525.93 109.817H1525.42C1524.65 111.087 1522.1 117.169 1519.29 124.79L1503.21 168.936ZM1685.1 212.33C1685.1 238.969 1685.61 242.78 1700.42 244.043L1708.6 244.802C1710.13 245.817 1709.62 250.387 1708.1 251.146C1693.53 250.643 1684.85 250.387 1674.63 250.387C1664.41 250.387 1655.47 250.649 1639.12 251.146C1637.58 250.387 1637.08 246.073 1639.12 244.802L1648.32 244.043C1662.88 242.78 1664.15 238.969 1664.15 212.33V98.9027C1664.15 91.0399 1664.15 90.7776 1656.49 90.7776H1642.44C1631.46 90.7776 1617.41 91.2885 1611.03 97.1217C1604.89 102.706 1602.34 108.291 1599.53 114.635C1597.49 116.154 1593.91 114.891 1592.89 112.854C1596.98 101.443 1600.81 85.1998 1602.6 75.0452C1603.36 74.5412 1606.69 74.2858 1607.46 75.0452C1608.98 83.1703 1617.41 82.9148 1629.16 82.9148H1732.61C1746.4 82.9148 1748.7 82.404 1752.53 75.8114C1753.81 75.3006 1756.63 75.556 1757.14 76.5708C1754.32 86.9739 1752.53 107.525 1753.31 115.139C1752.28 117.162 1747.94 117.162 1746.67 115.65C1745.9 109.306 1744.11 99.9175 1740.28 97.1217C1734.41 92.8072 1724.69 90.7776 1710.65 90.7776H1692.52C1684.86 90.7776 1685.11 91.0399 1685.11 99.4066V212.33H1685.1ZM1763.32 168.425C1763.32 117.679 1801.62 78.8488 1854.25 78.8488C1913.25 78.8488 1942.88 121.235 1942.88 165.885C1942.88 217.141 1903.54 254.439 1854.25 254.439C1797.55 254.446 1763.32 214.104 1763.32 168.425ZM1917.34 173.754C1917.34 131.893 1898.69 86.7185 1849.9 86.7185C1823.34 86.7185 1788.85 104.736 1788.85 160.307C1788.85 197.867 1807.25 246.59 1857.57 246.59C1888.21 246.59 1917.34 223.748 1917.34 173.754ZM2120.17 224.507C2120.17 234.655 2121.71 240.743 2126.3 242.517C2127.08 243.284 2127.08 244.802 2126.06 245.562C2122.99 245.562 2118.38 246.577 2113.55 247.847C2100 251.402 2081.62 254.439 2067.83 254.439C2037.42 254.439 2009.58 246.073 1989.92 226.274C1974.59 211.046 1966.42 190.999 1966.42 168.674C1966.42 147.101 1973.58 125.287 1989.4 108.54C2006.52 90.7707 2031.81 78.8419 2070.37 78.8419C2084.93 78.8419 2098.46 81.6377 2102.81 82.6456C2107.66 83.6604 2115.59 85.4414 2118.65 84.9375C2118.65 93.3111 2120.18 106.503 2122.48 121.732C2121.72 123.761 2117.12 124.017 2115.59 122.484C2108.44 95.0783 2089.27 86.4562 2063.23 86.4562C2013.68 86.4562 1991.96 121.476 1991.96 159.541C1991.96 208.257 2017.25 246.577 2068.58 246.577C2084.43 246.577 2093.86 243.277 2096.67 238.955C2097.96 237.181 2099.24 232.618 2099.24 224.493V214.338C2099.24 193.035 2098.46 191.503 2082.64 189.735L2071.39 188.465C2069.34 187.45 2069.61 182.874 2071.39 182.121C2078.79 182.632 2092.84 182.88 2107.93 182.88C2117.88 182.88 2126.56 182.632 2135 182.121C2136.78 183.136 2137.04 186.94 2135.24 188.465L2131.16 188.969C2120.44 190.232 2120.17 197.343 2120.17 210.279V224.507ZM2249.46 191.523C2247.65 185.939 2246.65 185.186 2238.98 185.186H2200.4C2194.02 185.186 2192.49 185.945 2190.72 191.275L2181.76 217.914C2177.94 229.339 2176.15 236.187 2176.15 238.976C2176.15 242.027 2177.43 243.553 2183.56 244.05L2191.97 244.809C2193.77 246.086 2193.77 250.145 2191.48 251.153C2184.83 250.649 2176.92 250.649 2164.91 250.394C2156.48 250.394 2147.27 250.905 2140.39 251.153C2138.85 250.145 2138.33 246.079 2139.87 244.809L2148.31 244.05C2154.44 243.546 2160.05 240.75 2163.64 231.617C2168.23 219.951 2175.4 203.452 2186.11 175.025L2212.17 106.517C2215.74 97.384 2217.27 92.5655 2216.51 88.4995C2222.64 86.7254 2226.99 82.1555 2229.8 78.8557C2231.33 78.8557 2233.1 79.3666 2233.63 81.1407C2236.94 92.3032 2241.03 103.977 2244.85 115.146L2279.86 217.155C2287.26 238.976 2290.59 242.787 2301.58 244.05L2308.46 244.809C2310.25 246.086 2309.76 250.145 2308.46 251.153C2297.99 250.649 2289.05 250.394 2277.55 250.394C2265.3 250.394 2255.59 250.905 2248.19 251.153C2246.14 250.145 2245.89 246.079 2247.66 244.809L2255.08 244.05C2260.44 243.546 2264.01 242.027 2264.01 239.487C2264.01 236.698 2262.74 232.128 2260.7 226.039L2249.46 191.523ZM2198.89 168.936C2196.85 174.769 2197.1 175.025 2204.25 175.025H2235.66C2243.06 175.025 2243.57 174.01 2241.28 167.155L2227.49 125.805C2225.44 119.709 2223.15 112.861 2221.6 109.817H2221.1C2220.32 111.087 2217.78 117.169 2214.95 124.79L2198.89 168.936ZM2450.04 256.172C2419.48 256.172 2400.19 246.77 2393.29 242.794C2388.92 234.848 2384.19 209.182 2383.45 192.2C2385.27 189.666 2390.74 188.948 2392.18 191.116C2397.64 209.548 2412.57 244.968 2454.77 244.968C2485.33 244.968 2500.24 225.087 2500.24 203.397C2500.24 187.499 2496.96 169.785 2470.42 152.81L2435.84 130.402C2417.65 118.473 2396.55 97.8741 2396.55 68.2317C2396.55 33.895 2423.48 6.06812 2470.77 6.06812C2482.07 6.06812 2495.14 8.23574 2504.62 10.7692C2509.34 12.212 2514.44 12.9437 2517.36 12.9437C2520.64 21.6142 2523.9 41.8544 2523.9 57.0346C2522.44 59.2022 2516.62 60.2861 2514.81 58.1185C2510.07 40.7707 2500.25 17.279 2465.32 17.279C2429.66 17.279 2422.02 40.7637 2422.02 57.4005C2422.02 78.3587 2439.49 93.532 2452.95 101.843L2482.07 119.923C2504.98 134.019 2527.53 154.978 2527.53 189.314C2527.53 229.07 2497.34 256.172 2450.04 256.172ZM2589.86 100.428C2608.51 85.9661 2632.27 78.8557 2658.84 78.8557C2672.62 78.8557 2692.03 81.6515 2704.05 84.9513C2707.1 85.7106 2708.9 86.2215 2711.19 85.9661C2711.45 91.7993 2712.72 107.794 2714.77 123.264C2713.48 125.045 2709.66 125.301 2707.88 123.775C2704.05 106.517 2692.55 86.7254 2655.52 86.7254C2616.43 86.7254 2583.23 111.335 2583.23 163.869C2583.23 217.155 2617.19 246.59 2659.09 246.59C2692.02 246.59 2706.59 225.273 2712.47 210.3C2714.26 209.03 2718.08 209.548 2719.11 211.315C2717.3 224.507 2710.67 241.254 2706.84 246.079C2703.79 246.59 2700.72 247.598 2697.91 248.613C2692.3 250.649 2673.89 254.453 2657.55 254.453C2634.57 254.453 2612.59 249.897 2593.95 237.457C2573.52 223.506 2557.67 200.401 2557.67 167.673C2557.68 139.501 2570.45 115.395 2589.86 100.428ZM2790.68 168.425C2778.43 168.425 2777.91 168.936 2777.91 176.543V212.33C2777.91 238.969 2779.18 242.524 2793.49 244.043L2800.89 244.802C2802.42 245.817 2801.91 250.387 2800.39 251.146C2786.61 250.643 2777.9 250.387 2767.95 250.387C2756.97 250.387 2748.28 250.898 2738.32 251.146C2736.8 250.387 2736.28 246.321 2737.82 244.802L2742.15 244.043C2756.45 241.503 2756.97 238.969 2756.97 212.33V120.979C2756.97 94.3328 2755.17 90.0252 2741.88 89.0035L2735.25 88.4995C2733.7 87.4848 2734.24 82.9148 2735.77 82.1555C2748.28 82.4109 2756.97 82.9217 2767.94 82.9217C2777.9 82.9217 2786.6 82.6663 2797.58 82.1555C2799.1 82.9217 2799.62 87.4848 2798.08 88.4995L2793.23 89.0035C2778.42 90.5291 2777.9 94.3328 2777.9 120.979V150.166C2777.9 158.022 2778.42 158.284 2790.67 158.284H2863.73C2875.99 158.284 2876.51 158.022 2876.51 150.166V120.979C2876.51 94.3328 2875.99 90.5291 2860.91 89.0035L2856.06 88.4995C2854.52 87.4848 2855.04 82.9148 2856.58 82.1555C2868.34 82.6663 2877.01 82.9217 2887.49 82.9217C2897.45 82.9217 2906.13 82.6663 2917.62 82.1555C2919.16 82.9217 2919.67 87.4848 2918.12 88.4995L2912.78 89.0035C2897.95 90.5291 2897.45 94.3328 2897.45 120.979V212.33C2897.45 238.969 2897.95 242.269 2912.78 244.043L2918.9 244.802C2920.44 245.817 2919.92 250.387 2918.41 251.146C2906.13 250.643 2897.46 250.387 2887.49 250.387C2877.01 250.387 2867.81 250.649 2856.58 251.146C2855.03 250.387 2854.52 246.321 2856.06 244.802L2860.91 244.043C2876.51 241.503 2876.51 238.969 2876.51 212.33V176.543C2876.51 168.936 2875.99 168.425 2863.73 168.425H2790.68ZM2962.88 120.979C2962.88 94.5951 2962.37 90.7776 2947.31 89.0035L2943.22 88.4995C2941.68 87.4848 2942.19 82.9148 2943.72 82.1555C2954.7 82.6663 2963.4 82.9217 2973.86 82.9217H3021.89C3038.23 82.9217 3053.3 82.9217 3056.35 82.1555C3057.89 86.47 3059.42 104.743 3060.45 115.912C3059.43 117.438 3055.34 117.942 3054.05 116.416C3050.22 104.494 3047.93 95.6099 3034.64 92.3101C3029.29 91.0468 3021.11 90.7845 3009.87 90.7845H2991.47C2983.81 90.7845 2983.81 91.2954 2983.81 100.939V151.692C2983.81 158.795 2984.58 158.795 2992.24 158.795H3007.06C3017.79 158.795 3025.7 158.291 3028.78 157.269C3031.85 156.255 3033.63 154.736 3034.9 148.392L3036.96 137.989C3038.23 136.463 3042.57 136.463 3043.6 138.244C3043.6 144.333 3042.57 154.232 3042.57 163.876C3042.57 173.009 3043.6 182.653 3043.6 188.237C3042.57 190.005 3038.23 190.005 3036.96 188.493L3034.65 178.594C3033.63 174.017 3031.85 170.213 3026.72 168.95C3023.16 167.935 3017.05 167.68 3007.07 167.68H2992.25C2984.59 167.68 2983.82 167.935 2983.82 174.534V210.307C2983.82 223.754 2984.59 232.383 2988.68 236.698C2991.75 239.742 2997.11 242.531 3019.58 242.531C3039.26 242.531 3046.66 241.516 3052.28 238.728C3056.86 236.194 3063.78 227.303 3070.42 214.111C3072.2 212.847 3075.77 213.6 3076.79 215.885C3075.01 224.762 3068.62 244.312 3065.31 251.153C3042.32 250.649 3019.58 250.394 2996.85 250.394H2973.87C2962.88 250.394 2954.19 250.656 2939.14 251.153C2937.6 250.394 2937.09 246.328 2938.62 244.809L2947.05 244.05C2961.63 242.787 2962.89 238.976 2962.89 212.337V120.979H2962.88ZM3249.51 207.249C3249.51 214.863 3249.51 245.058 3250.28 251.657C3249.78 253.183 3248.24 254.446 3245.43 254.446C3242.35 250.139 3234.95 241.254 3212.74 216.133L3153.48 149.151C3146.57 141.282 3129.21 120.468 3123.85 114.891H3123.32C3122.31 117.935 3122.04 123.775 3122.04 131.382V186.698C3122.04 198.62 3122.31 231.61 3126.66 239.225C3128.2 242.02 3133.3 243.539 3139.68 244.043L3147.6 244.802C3149.13 246.839 3148.88 249.89 3147.1 251.146C3135.6 250.643 3126.66 250.387 3117.21 250.387C3106.48 250.387 3099.58 250.649 3090.63 251.146C3088.85 249.883 3088.59 246.321 3090.12 244.802L3097.01 244.043C3102.9 243.291 3106.98 241.765 3108.27 238.969C3111.83 229.836 3111.58 198.882 3111.58 186.698V113.365C3111.58 106.262 3111.32 100.932 3105.97 95.0921C3102.39 91.5439 3096.27 89.7697 3090.12 89.0035L3085.79 88.4995C3084.25 86.9739 3084.25 83.1772 3086.29 82.1555C3097.01 82.9217 3110.56 82.9217 3115.15 82.9217C3119.25 82.9217 3123.59 82.6663 3126.91 82.1555C3132.01 95.099 3162.15 128.6 3170.57 137.982L3195.36 165.643C3212.99 185.179 3225.51 199.386 3237.5 211.57H3238.01C3239.03 210.3 3239.03 206.241 3239.03 200.912V146.611C3239.03 134.675 3238.77 101.699 3233.93 94.0843C3232.38 91.7924 3228.32 90.2806 3218.09 89.0035L3213.74 88.4995C3211.95 86.9739 3212.2 82.9148 3214.25 82.1555C3226 82.6663 3234.68 82.9217 3244.39 82.9217C3255.38 82.9217 3262.01 82.6663 3270.7 82.1555C3272.75 83.4257 3272.75 86.9808 3271.21 88.4995L3267.63 89.0035C3259.45 90.2806 3254.35 92.3032 3253.34 94.3328C3248.99 103.466 3249.49 134.938 3249.49 146.611V207.249H3249.51ZM3312.15 120.979C3312.15 94.5951 3311.64 90.7776 3296.57 89.0035L3292.47 88.4995C3290.94 87.4848 3291.46 82.9148 3292.99 82.1555C3303.97 82.6663 3312.65 82.9217 3323.13 82.9217H3371.13C3387.49 82.9217 3402.56 82.9217 3405.62 82.1555C3407.17 86.47 3408.69 104.743 3409.7 115.912C3408.69 117.438 3404.6 117.942 3403.32 116.416C3399.49 104.494 3397.2 95.6099 3383.9 92.3101C3378.55 91.0468 3370.37 90.7845 3359.14 90.7845H3340.75C3333.08 90.7845 3333.08 91.2954 3333.08 100.939V151.692C3333.08 158.795 3333.85 158.795 3341.5 158.795H3356.33C3367.05 158.795 3374.96 158.291 3378.04 157.269C3381.1 156.255 3382.88 154.736 3384.17 148.392L3386.22 137.989C3387.5 136.463 3391.84 136.463 3392.85 138.244C3392.85 144.333 3391.84 154.232 3391.84 163.876C3391.84 173.009 3392.85 182.653 3392.85 188.237C3391.84 190.005 3387.5 190.005 3386.22 188.493L3383.91 178.594C3382.89 174.017 3381.11 170.213 3375.99 168.95C3372.41 167.935 3366.29 167.68 3356.33 167.68H3341.51C3333.86 167.68 3333.09 167.935 3333.09 174.534V210.307C3333.09 223.754 3333.86 232.383 3337.94 236.698C3341 239.742 3346.37 242.531 3368.85 242.531C3388.52 242.531 3395.92 241.516 3401.52 238.728C3406.15 236.194 3413.03 227.303 3419.66 214.111C3421.46 212.847 3425.03 213.6 3426.06 215.885C3424.27 224.762 3417.88 244.312 3414.57 251.153C3391.57 250.649 3368.85 250.394 3346.11 250.394H3323.14C3312.15 250.394 3303.45 250.656 3288.39 251.153C3286.85 250.394 3286.36 246.328 3287.88 244.809L3296.32 244.05C3310.87 242.787 3312.16 238.976 3312.16 212.337V120.979H3312.15ZM3472.06 100.428C3490.69 85.9661 3514.45 78.8557 3541.03 78.8557C3554.81 78.8557 3574.22 81.6515 3586.23 84.9513C3589.3 85.7106 3591.09 86.2215 3593.38 85.9661C3593.65 91.7993 3594.92 107.794 3596.96 123.264C3595.67 125.045 3591.85 125.301 3590.06 123.775C3586.23 106.517 3574.74 86.7254 3537.7 86.7254C3498.62 86.7254 3465.41 111.335 3465.41 163.869C3465.41 217.155 3499.39 246.59 3541.27 246.59C3574.21 246.59 3588.78 225.273 3594.65 210.3C3596.45 209.03 3600.27 209.548 3601.3 211.315C3599.51 224.507 3592.87 241.254 3589.04 246.079C3585.97 246.59 3582.9 247.598 3580.1 248.613C3574.49 250.649 3556.09 254.453 3539.73 254.453C3516.74 254.453 3494.78 249.897 3476.13 237.457C3455.71 223.506 3439.86 200.401 3439.86 167.673C3439.86 139.501 3452.64 115.395 3472.06 100.428ZM3700.47 212.33C3700.47 238.969 3700.96 242.78 3715.78 244.043L3723.95 244.802C3725.5 245.817 3724.98 250.387 3723.46 251.146C3708.9 250.643 3700.2 250.387 3689.99 250.387C3679.78 250.387 3670.83 250.649 3654.49 251.146C3652.95 250.387 3652.44 246.073 3654.49 244.802L3663.68 244.043C3678.24 242.78 3679.51 238.969 3679.51 212.33V98.9027C3679.51 91.0399 3679.51 90.7776 3671.85 90.7776H3657.82C3646.82 90.7776 3632.78 91.2885 3626.39 97.1217C3620.24 102.706 3617.7 108.291 3614.89 114.635C3612.85 116.154 3609.28 114.891 3608.25 112.854C3612.34 101.443 3616.18 85.1998 3617.96 75.0452C3618.72 74.5412 3622.04 74.2858 3622.81 75.0452C3624.36 83.1703 3632.77 82.9148 3644.52 82.9148H3747.97C3761.76 82.9148 3764.06 82.404 3767.89 75.8114C3769.17 75.3006 3771.98 75.556 3772.49 76.5708C3769.68 86.9739 3767.89 107.525 3768.66 115.139C3767.63 117.162 3763.3 117.162 3762.02 115.65C3761.24 109.306 3759.46 99.9175 3755.63 97.1217C3749.75 92.8072 3740.04 90.7776 3726.01 90.7776H3707.87C3700.2 90.7776 3700.47 91.0399 3700.47 99.4066V212.33ZM3862.44 191.523C3860.64 185.939 3859.62 185.186 3851.96 185.186H3813.38C3807 185.186 3805.47 185.945 3803.68 191.275L3794.74 217.914C3790.91 229.339 3789.13 236.187 3789.13 238.976C3789.13 242.027 3790.41 243.553 3796.52 244.05L3804.96 244.809C3806.75 246.086 3806.75 250.145 3804.46 251.153C3797.81 250.649 3789.91 250.649 3777.88 250.394C3769.45 250.394 3760.27 250.905 3753.37 251.153C3751.83 250.145 3751.32 246.079 3752.85 244.809L3761.29 244.05C3767.42 243.546 3773.04 240.75 3776.62 231.617C3781.21 219.951 3788.37 203.452 3799.09 175.025L3825.14 106.517C3828.72 97.384 3830.25 92.5655 3829.47 88.4995C3835.63 86.7254 3839.97 82.1555 3842.78 78.8557C3844.3 78.8557 3846.09 79.3666 3846.6 81.1407C3849.93 92.3032 3854.01 103.977 3857.84 115.146L3892.84 217.155C3900.23 238.976 3903.56 242.787 3914.56 244.05L3921.45 244.809C3923.23 246.086 3922.73 250.145 3921.45 251.153C3910.98 250.649 3902.03 250.394 3890.54 250.394C3878.27 250.394 3868.57 250.905 3861.17 251.153C3859.13 250.145 3858.87 246.079 3860.65 244.809L3868.07 244.05C3873.42 243.546 3876.99 242.027 3876.99 239.487C3876.99 236.698 3875.73 232.128 3873.67 226.039L3862.44 191.523ZM3811.86 168.936C3809.83 174.769 3810.08 175.025 3817.23 175.025H3848.64C3856.04 175.025 3856.55 174.01 3854.26 167.155L3840.47 125.805C3838.43 119.709 3836.13 112.861 3834.6 109.817H3834.08C3833.3 111.087 3830.78 117.169 3827.94 124.79L3811.86 168.936ZM3950.31 115.905C3950.31 98.1434 3949.03 92.8141 3938.32 91.2954L3932.7 90.5291C3930.66 89.2589 3930.39 85.2067 3932.95 84.1919C3954.67 82.9217 3975.36 82.1555 3997.06 82.1555C4018.51 82.1555 4036.65 83.6811 4053.26 89.7697C4087.74 102.202 4105.12 131.134 4105.12 164.635C4105.12 196.853 4089.52 224.514 4060.4 240.253C4043.8 249.138 4022.87 252.437 4003.19 252.437C3986.85 252.437 3970.5 250.401 3961.56 250.401C3950.85 250.401 3941.63 250.663 3929.64 251.16C3928.11 250.401 3927.59 246.335 3929.14 244.816L3935 244.057C3949.82 242.034 3950.33 238.983 3950.33 212.343V115.905H3950.31ZM3971.26 206.496C3971.26 219.951 3972.03 228.069 3976.37 234.151C3981.99 242.02 3991.69 244.561 4007.79 244.561C4057.34 244.561 4079.56 212.337 4079.56 165.132C4079.56 137.216 4066.02 90.0252 3999.11 90.0252C3984.03 90.0252 3975.87 92.0547 3973.83 93.5803C3971.79 95.099 3971.27 101.45 3971.27 112.861L3971.26 206.496ZM4200.19 211.826C4200.19 238.976 4201.74 243.035 4215.53 244.05L4225.22 244.809C4226.76 246.335 4226.25 250.394 4224.73 251.153C4208.89 250.649 4200.19 250.394 4189.98 250.394C4179.25 250.394 4170.05 250.656 4156.51 251.153C4154.99 250.394 4154.48 246.328 4156.02 244.809L4163.93 244.05C4178.75 242.524 4179.25 238.976 4179.25 211.826V198.882C4179.25 184.931 4178.51 181.631 4171.07 167.41L4140.93 109.044C4132.26 92.2963 4128.42 91.033 4120.76 89.7628L4113.6 88.4926C4112.07 86.7185 4112.33 83.1703 4114.12 82.1486C4122.29 82.6594 4131.5 82.9148 4143.74 82.9148C4155.51 82.9148 4164.68 82.6594 4171.07 82.1486C4173.38 82.9148 4173.38 86.9739 4171.84 88.4926L4168.53 88.9966C4159.58 90.2737 4157.8 91.537 4157.8 93.5665C4157.8 96.1 4164.44 110.562 4165.72 113.103C4175.18 131.886 4184.61 151.933 4194.57 169.44C4202.49 155.992 4210.92 141.275 4218.59 126.55C4225.75 113.358 4235.18 96.1 4235.18 93.0557C4235.18 91.5301 4230.6 89.7559 4224.46 88.9966L4219.86 88.4926C4218.07 86.7185 4218.32 83.1703 4220.38 82.1486C4229.57 82.6594 4236.97 82.9148 4244.9 82.9148C4252.82 82.9148 4259.97 82.6594 4268.64 82.1486C4270.69 83.4188 4270.93 86.9739 4269.15 88.4926L4262 89.7628C4248.72 92.0547 4241.07 108.036 4228.29 129.857L4212.19 157.518C4200.94 176.799 4200.18 179.091 4200.18 198.62V211.826H4200.19ZM1183.74 512.095C1183.74 526.544 1185.92 535.228 1192.47 537.748C1193.57 538.838 1193.57 541.013 1192.11 542.09C1187.74 542.09 1181.19 543.533 1174.28 545.341C1155 550.401 1128.8 554.743 1109.15 554.743C1065.86 554.743 1026.19 542.815 998.177 514.629C976.343 492.939 964.697 464.38 964.697 432.577C964.697 401.858 974.886 370.779 997.439 346.922C1021.82 321.621 1057.84 304.64 1112.78 304.64C1133.51 304.64 1152.81 308.623 1158.98 310.065C1165.9 311.515 1177.18 314.042 1181.55 313.324C1181.55 325.253 1183.73 344.043 1187 365.726C1185.9 368.619 1179.37 368.978 1177.18 366.81C1166.99 327.772 1139.7 315.491 1102.6 315.491C1032 315.491 1001.08 365.367 1001.08 419.578C1001.08 488.969 1037.09 543.539 1110.23 543.539C1132.79 543.539 1146.25 538.845 1150.26 532.701C1152.07 530.175 1153.89 523.672 1153.89 512.109V497.64C1153.89 467.293 1152.8 465.126 1130.24 462.578L1114.23 460.784C1111.32 459.334 1111.68 452.831 1114.23 451.74C1124.78 452.465 1144.79 452.831 1166.26 452.831C1180.46 452.831 1192.82 452.472 1204.83 451.74C1207.37 453.197 1207.74 458.609 1205.19 460.784L1199.37 461.502C1184.09 463.324 1183.72 473.437 1183.72 491.862V512.095H1183.74ZM1323.71 490.081C1321.92 484.503 1320.9 483.744 1313.24 483.744H1274.67C1268.29 483.744 1266.75 484.51 1264.97 489.839L1256.03 516.479C1252.2 527.897 1250.41 534.745 1250.41 537.541C1250.41 540.585 1251.68 542.11 1257.82 542.621L1266.24 543.374C1268.04 544.637 1268.04 548.696 1265.73 549.725C1259.1 549.214 1251.17 549.214 1239.18 548.959C1230.74 548.959 1221.55 549.469 1214.65 549.725C1213.12 548.703 1212.61 544.637 1214.14 543.374L1222.57 542.621C1228.7 542.11 1234.32 539.315 1237.9 530.175C1242.5 518.508 1249.65 502.023 1260.37 473.589L1286.43 405.081C1290 395.949 1291.53 391.13 1290.76 387.064C1296.89 385.29 1301.24 380.72 1304.05 377.427C1305.59 377.427 1307.37 377.931 1307.88 379.705C1311.2 390.875 1315.28 402.541 1319.12 413.704L1354.1 515.713C1361.51 537.534 1364.83 541.344 1375.82 542.614L1382.71 543.367C1384.51 544.63 1383.99 548.689 1382.71 549.718C1372.25 549.207 1363.3 548.952 1351.81 548.952C1339.55 548.952 1329.84 549.462 1322.44 549.718C1320.39 548.696 1320.14 544.63 1321.92 543.367L1329.33 542.614C1334.68 542.104 1338.26 540.578 1338.26 538.045C1338.26 535.249 1336.98 530.679 1334.95 524.597L1323.71 490.081ZM1273.14 467.5C1271.09 473.341 1271.35 473.589 1278.5 473.589H1309.92C1317.33 473.589 1317.83 472.574 1315.53 465.726L1301.75 424.369C1299.7 418.274 1297.4 411.419 1295.87 408.381H1295.35C1294.59 409.645 1292.03 415.733 1289.23 423.347L1273.14 467.5ZM1436.13 553.018C1414.67 553.018 1401.13 546.411 1396.28 543.622C1393.21 538.045 1389.89 520.027 1389.38 508.098C1390.66 506.324 1394.49 505.82 1395.51 507.346C1399.34 520.289 1409.82 545.148 1439.45 545.148C1460.9 545.148 1471.38 531.197 1471.38 515.982C1471.38 504.806 1469.07 492.38 1450.43 480.451L1426.16 464.718C1413.39 456.352 1398.59 441.876 1398.59 421.076C1398.59 396.97 1417.48 377.434 1450.69 377.434C1458.6 377.434 1467.8 378.946 1474.44 380.727C1477.76 381.742 1481.33 382.253 1483.38 382.253C1485.68 388.341 1487.98 402.548 1487.98 413.207C1486.95 414.732 1482.87 415.498 1481.59 413.973C1478.27 401.782 1471.38 385.297 1446.85 385.297C1421.82 385.297 1416.46 401.782 1416.46 413.462C1416.46 428.18 1428.72 438.831 1438.17 444.671L1458.6 457.36C1474.69 467.252 1490.52 481.97 1490.52 506.076C1490.53 533.992 1469.33 553.018 1436.13 553.018ZM1597.84 510.894C1597.84 537.534 1598.35 541.344 1613.17 542.621L1621.34 543.374C1622.87 544.382 1622.35 548.959 1620.83 549.725C1606.27 549.214 1597.58 548.959 1587.36 548.959C1577.14 548.959 1568.2 549.214 1551.86 549.725C1550.33 548.959 1549.81 544.637 1551.86 543.374L1561.05 542.621C1575.6 541.344 1576.89 537.541 1576.89 510.894V397.46C1576.89 389.598 1576.89 389.342 1569.23 389.342H1555.17C1544.2 389.342 1530.14 389.86 1523.76 395.686C1517.63 401.278 1515.08 406.856 1512.27 413.193C1510.23 414.718 1506.65 413.455 1505.63 411.419C1509.72 400.008 1513.54 383.771 1515.33 373.61C1516.1 373.106 1519.41 372.85 1520.19 373.61C1521.73 381.735 1530.15 381.479 1541.9 381.479H1645.35C1659.14 381.479 1661.44 380.975 1665.27 374.376C1666.54 373.872 1669.35 374.121 1669.87 375.135C1667.05 385.538 1665.27 406.096 1666.04 413.704C1665.02 415.733 1660.67 415.733 1659.4 414.221C1658.63 407.877 1656.83 398.482 1653 395.686C1647.14 391.379 1637.43 389.342 1623.38 389.342H1605.24C1597.58 389.342 1597.83 389.598 1597.83 397.978L1597.84 510.894ZM1705.16 419.799C1705.16 395.686 1704.4 391.379 1693.93 390.108L1685.75 389.094C1683.97 387.823 1683.97 383.771 1686.01 382.756C1700.31 381.479 1717.94 380.72 1742.97 380.72C1758.8 380.72 1773.87 381.99 1785.61 388.334C1797.87 394.678 1806.82 406.096 1806.82 423.858C1806.82 447.971 1787.66 461.156 1774.89 466.237C1773.62 467.756 1774.9 470.296 1776.18 472.326C1796.6 505.061 1810.14 525.356 1827.5 539.819C1831.85 543.622 1838.24 546.411 1845.14 546.915C1846.42 547.426 1846.67 549.462 1845.39 550.477C1843.08 551.237 1839 551.741 1834.14 551.741C1812.43 551.741 1799.42 545.403 1781.29 519.779C1774.64 510.39 1764.16 492.877 1756.25 481.459C1752.41 475.867 1748.34 473.334 1738.11 473.334C1726.62 473.334 1726.12 473.582 1726.12 478.918V510.887C1726.12 537.527 1726.61 540.578 1741.43 542.614L1746.8 543.367C1748.33 544.63 1747.82 548.952 1746.29 549.718C1734.79 549.207 1726.12 548.952 1715.89 548.952C1705.16 548.952 1695.98 549.207 1683.96 549.718C1682.43 548.952 1681.92 545.134 1683.45 543.367L1689.83 542.614C1704.65 540.833 1705.16 537.534 1705.16 510.887V419.799ZM1726.1 456.083C1726.1 460.646 1726.11 463.434 1726.88 464.449C1727.64 465.209 1731.47 465.719 1744.51 465.719C1753.69 465.719 1763.4 464.705 1770.81 459.127C1777.72 453.798 1783.59 444.913 1783.59 427.662C1783.59 407.615 1771.07 388.583 1742.72 388.583C1726.88 388.583 1726.12 389.598 1726.12 396.708V456.083H1726.1ZM1839.79 466.983C1839.79 416.237 1878.11 377.42 1930.73 377.42C1989.74 377.42 2019.36 419.792 2019.36 464.449C2019.36 515.706 1980.02 553.018 1930.73 553.018C1874.02 553.018 1839.79 512.675 1839.79 466.983ZM1993.82 472.326C1993.82 430.458 1975.17 385.29 1926.39 385.29C1899.83 385.29 1865.33 403.3 1865.33 458.871C1865.33 496.439 1883.73 545.141 1934.05 545.141C1964.7 545.141 1993.82 522.312 1993.82 472.326ZM2063.86 419.537C2063.86 393.16 2063.35 389.342 2048.28 387.575L2044.18 387.064C2042.65 386.049 2043.16 381.479 2044.7 380.72C2055.68 381.231 2064.38 381.479 2074.85 381.479H2122.86C2139.22 381.479 2154.28 381.479 2157.35 380.72C2158.88 385.035 2160.4 403.3 2161.42 414.47C2160.4 415.995 2156.32 416.499 2155.05 414.974C2151.21 403.045 2148.91 394.168 2135.63 390.875C2130.27 389.598 2122.11 389.342 2110.87 389.342H2092.47C2084.81 389.342 2084.81 389.86 2084.81 399.497V450.249C2084.81 457.36 2085.57 457.36 2093.23 457.36H2108.06C2118.78 457.36 2126.7 456.856 2129.78 455.834C2132.83 454.826 2134.61 453.294 2135.89 446.943L2137.95 436.539C2139.23 435.021 2143.56 435.021 2144.58 436.795C2144.58 442.884 2143.57 452.79 2143.57 462.427C2143.57 471.566 2144.58 481.21 2144.58 486.781C2143.57 488.562 2139.23 488.562 2137.95 487.044L2135.64 477.13C2134.62 472.567 2132.83 468.771 2127.72 467.494C2124.14 466.479 2118.03 466.23 2108.06 466.23H2093.24C2085.58 466.23 2084.81 466.479 2084.81 473.085V508.865C2084.81 522.305 2085.57 530.934 2089.66 535.242C2092.73 538.279 2098.11 541.082 2120.57 541.082C2140.25 541.082 2147.65 540.067 2153.27 537.278C2157.87 534.738 2164.75 525.86 2171.39 512.668C2173.2 511.398 2176.77 512.157 2177.78 514.436C2176 523.32 2169.61 542.863 2166.29 549.718C2143.3 549.207 2120.57 548.952 2097.84 548.952H2074.86C2063.87 548.952 2055.19 549.207 2040.12 549.718C2038.59 548.952 2038.09 544.886 2039.61 543.367L2048.04 542.614C2062.6 541.337 2063.87 537.534 2063.87 510.887V419.537H2063.86ZM2350.46 505.813C2350.46 513.435 2350.46 543.622 2351.22 550.229C2350.73 551.741 2349.19 553.018 2346.38 553.018C2343.32 548.696 2335.91 539.819 2313.69 514.684L2254.44 447.709C2247.53 439.839 2230.17 419.026 2224.8 413.448H2224.29C2223.27 416.493 2223 422.333 2223 429.94V485.262C2223 497.177 2223.26 530.168 2227.61 537.782C2229.15 540.571 2234.25 542.097 2240.64 542.608L2248.55 543.36C2250.1 545.39 2249.82 548.441 2248.04 549.711C2236.55 549.2 2227.61 548.945 2218.16 548.945C2207.44 548.945 2200.53 549.2 2191.59 549.711C2189.81 548.441 2189.54 544.879 2191.08 543.36L2197.97 542.608C2203.87 541.834 2207.93 540.329 2209.22 537.527C2212.8 528.394 2212.53 497.44 2212.53 485.262V411.923C2212.53 404.819 2212.28 399.49 2206.92 393.65C2203.34 390.101 2197.21 388.327 2191.08 387.568L2186.74 387.057C2185.21 385.532 2185.21 381.735 2187.26 380.713C2197.97 381.472 2211.52 381.472 2216.11 381.472C2220.21 381.472 2224.54 381.217 2227.86 380.713C2232.98 393.657 2263.11 427.151 2271.53 436.533L2296.32 464.194C2313.95 483.73 2326.45 497.944 2338.45 510.128H2338.98C2339.99 508.858 2339.99 504.792 2339.99 499.462V445.162C2339.99 433.226 2339.73 400.249 2334.88 392.635C2333.34 390.35 2329.27 388.824 2319.05 387.561L2314.71 387.05C2312.91 385.525 2313.17 381.466 2315.2 380.706C2326.94 381.217 2335.66 381.466 2345.34 381.466C2356.33 381.466 2362.98 381.21 2371.66 380.706C2373.7 381.976 2373.7 385.525 2372.16 387.05L2368.59 387.561C2360.41 388.824 2355.31 390.861 2354.3 392.883C2349.94 402.023 2350.45 433.488 2350.45 445.169V505.813H2350.46ZM2474.38 510.894C2474.38 537.534 2474.89 541.344 2489.72 542.621L2497.88 543.374C2499.42 544.382 2498.91 548.959 2497.39 549.725C2482.83 549.214 2474.14 548.959 2463.93 548.959C2453.71 548.959 2444.77 549.214 2428.42 549.725C2426.88 548.959 2426.37 544.637 2428.42 543.374L2437.62 542.621C2452.16 541.344 2453.43 537.541 2453.43 510.894V397.46C2453.43 389.598 2453.43 389.342 2445.78 389.342H2431.74C2420.75 389.342 2406.7 389.86 2400.32 395.686C2394.18 401.278 2391.63 406.856 2388.83 413.193C2386.78 414.718 2383.2 413.455 2382.18 411.419C2386.26 400.008 2390.1 383.771 2391.88 373.61C2392.66 373.106 2395.98 372.85 2396.74 373.61C2398.28 381.735 2406.7 381.479 2418.45 381.479H2521.9C2535.69 381.479 2538 380.975 2541.83 374.376C2543.1 373.872 2545.91 374.121 2546.41 375.135C2543.62 385.538 2541.83 406.096 2542.59 413.704C2541.57 415.733 2537.23 415.733 2535.94 414.221C2535.17 407.877 2533.38 398.482 2529.55 395.686C2523.69 391.379 2513.98 389.342 2499.93 389.342H2481.79C2474.13 389.342 2474.38 389.598 2474.38 397.978V510.894ZM2581.7 419.537C2581.7 393.16 2581.18 389.342 2566.12 387.575L2562.03 387.064C2560.5 386.049 2561.01 381.479 2562.53 380.72C2573.53 381.231 2582.21 381.479 2592.67 381.479H2640.7C2657.04 381.479 2672.13 381.479 2675.18 380.72C2676.71 385.035 2678.24 403.3 2679.26 414.47C2678.24 415.995 2674.17 416.499 2672.87 414.974C2669.05 403.045 2666.74 394.168 2653.47 390.875C2648.1 389.598 2639.92 389.342 2628.7 389.342H2610.29C2602.63 389.342 2602.63 389.86 2602.63 399.497V450.249C2602.63 457.36 2603.41 457.36 2611.06 457.36H2625.89C2636.6 457.36 2644.53 456.856 2647.6 455.834C2650.66 454.826 2652.45 453.294 2653.73 446.943L2655.78 436.539C2657.05 435.021 2661.39 435.021 2662.41 436.795C2662.41 442.884 2661.39 452.79 2661.39 462.427C2661.39 471.566 2662.41 481.21 2662.41 486.781C2661.39 488.562 2657.05 488.562 2655.78 487.044L2653.47 477.13C2652.45 472.567 2650.67 468.771 2645.56 467.494C2641.97 466.479 2635.86 466.23 2625.9 466.23H2611.07C2603.42 466.23 2602.64 466.479 2602.64 473.085V508.865C2602.64 522.305 2603.41 530.934 2607.49 535.242C2610.56 538.279 2615.93 541.082 2638.4 541.082C2658.07 541.082 2665.48 540.067 2671.09 537.278C2675.7 534.738 2682.59 525.86 2689.23 512.668C2691.01 511.398 2694.59 512.157 2695.62 514.436C2693.83 523.32 2687.45 542.863 2684.12 549.718C2661.13 549.207 2638.4 548.952 2615.67 548.952H2592.68C2581.7 548.952 2573 549.207 2557.95 549.718C2556.42 548.952 2555.9 544.886 2557.44 543.367L2565.87 542.614C2580.43 541.337 2581.71 537.534 2581.71 510.887V419.537H2581.7ZM2730.94 419.799C2730.94 395.686 2730.17 391.379 2719.7 390.108L2711.52 389.094C2709.74 387.823 2709.74 383.771 2711.77 382.756C2726.07 381.479 2743.69 380.72 2768.73 380.72C2784.57 380.72 2799.64 381.99 2811.39 388.334C2823.64 394.678 2832.59 406.096 2832.59 423.858C2832.59 447.971 2813.44 461.156 2800.65 466.237C2799.37 467.756 2800.65 470.296 2801.94 472.326C2822.38 505.061 2835.91 525.356 2853.28 539.819C2857.62 543.622 2864.02 546.411 2870.9 546.915C2872.2 547.426 2872.44 549.462 2871.16 550.477C2868.86 551.237 2864.78 551.741 2859.92 551.741C2838.21 551.741 2825.18 545.403 2807.06 519.779C2800.41 510.39 2789.94 492.877 2782.01 481.459C2778.18 475.867 2774.11 473.334 2763.88 473.334C2752.39 473.334 2751.87 473.582 2751.87 478.918V510.887C2751.87 537.527 2752.39 540.578 2767.2 542.614L2772.58 543.367C2774.12 544.63 2773.58 548.952 2772.05 549.718C2760.57 549.207 2751.87 548.952 2741.67 548.952C2730.94 548.952 2721.73 549.207 2709.75 549.718C2708.21 548.952 2707.69 545.134 2709.23 543.367L2715.62 542.614C2730.42 540.833 2730.95 537.534 2730.95 510.887V419.799H2730.94ZM2751.87 456.083C2751.87 460.646 2751.87 463.434 2752.64 464.449C2753.39 465.209 2757.24 465.719 2770.26 465.719C2779.46 465.719 2789.16 464.705 2796.57 459.127C2803.46 453.798 2809.36 444.913 2809.36 427.662C2809.36 407.615 2796.84 388.583 2768.48 388.583C2752.65 388.583 2751.87 389.598 2751.87 396.708L2751.87 456.083ZM2865.56 466.983C2865.56 416.237 2903.87 377.42 2956.48 377.42C3015.5 377.42 3045.13 419.792 3045.13 464.449C3045.13 515.706 3005.79 553.018 2956.48 553.018C2899.8 553.018 2865.56 512.675 2865.56 466.983ZM3019.59 472.326C3019.59 430.458 3000.94 385.29 2952.15 385.29C2925.58 385.29 2891.1 403.3 2891.1 458.871C2891.1 496.439 2909.49 545.141 2959.81 545.141C2990.46 545.141 3019.59 522.312 3019.59 472.326ZM3089.63 419.537C3089.63 392.89 3089.12 388.838 3073.04 387.575L3066.65 387.064C3065.1 386.049 3065.63 381.479 3067.15 380.72C3081.45 381.231 3090.14 381.479 3100.37 381.479C3110.32 381.479 3118.99 381.224 3131.77 380.72C3133.31 381.479 3133.82 386.049 3132.3 387.064L3126.15 387.575C3111.08 388.838 3110.56 392.897 3110.56 419.537V507.843C3110.56 523.838 3111.34 530.43 3115.93 535.256C3118.73 538.051 3123.58 541.096 3143.78 541.096C3165.49 541.096 3170.84 540.081 3174.93 537.796C3180.05 534.752 3186.69 525.612 3191.79 512.675C3193.32 511.405 3198.19 512.42 3198.19 514.194C3198.19 516.99 3191.04 542.87 3187.44 549.725C3174.43 549.214 3150.16 548.959 3123.85 548.959H3100.36C3089.62 548.959 3081.45 549.214 3067.14 549.725C3065.62 548.959 3065.09 544.893 3066.64 543.374L3074.3 542.621C3089.11 541.089 3089.63 537.541 3089.63 510.894V419.537H3089.63ZM3206.9 466.983C3206.9 416.237 3245.22 377.42 3297.82 377.42C3356.83 377.42 3386.47 419.792 3386.47 464.449C3386.47 515.706 3347.12 553.018 3297.82 553.018C3241.13 553.018 3206.9 512.675 3206.9 466.983ZM3360.92 472.326C3360.92 430.458 3342.27 385.29 3293.48 385.29C3266.92 385.29 3232.42 403.3 3232.42 458.871C3232.42 496.439 3250.82 545.141 3301.13 545.141C3331.79 545.141 3360.92 522.312 3360.92 472.326ZM3563.75 523.071C3563.75 533.219 3565.3 539.315 3569.89 541.082C3570.66 541.834 3570.66 543.367 3569.65 544.126C3566.57 544.126 3561.97 545.134 3557.12 546.404C3543.58 549.973 3525.2 553.011 3511.41 553.011C3481.01 553.011 3453.16 544.623 3433.5 524.839C3418.18 509.617 3410.01 489.57 3410.01 467.238C3410.01 445.672 3417.16 423.851 3432.99 407.104C3450.1 389.335 3475.4 377.413 3513.95 377.413C3528.52 377.413 3542.06 380.202 3546.41 381.217C3551.25 382.232 3559.17 384.013 3562.24 383.509C3562.24 391.876 3563.76 405.075 3566.07 420.296C3565.31 422.326 3560.71 422.581 3559.17 421.056C3552.02 393.65 3532.86 385.021 3506.82 385.021C3457.27 385.021 3435.55 420.041 3435.55 458.105C3435.55 506.821 3460.85 545.127 3512.17 545.127C3528.02 545.127 3537.47 541.827 3540.28 537.52C3541.57 535.753 3542.84 531.176 3542.84 523.058V512.896C3542.84 491.593 3542.06 490.06 3526.24 488.293L3514.99 487.03C3512.94 486.015 3513.21 481.445 3514.99 480.672C3522.41 481.19 3536.44 481.445 3551.52 481.445C3561.48 481.445 3570.16 481.19 3578.6 480.672C3580.38 481.7 3580.63 485.497 3578.85 487.03L3574.76 487.534C3564.04 488.804 3563.76 495.9 3563.76 508.858V523.071H3563.75ZM3674.93 510.39C3674.93 537.541 3676.47 541.6 3690.26 542.621L3699.95 543.374C3701.5 544.893 3700.98 548.959 3699.45 549.725C3683.61 549.214 3674.93 548.959 3664.71 548.959C3653.98 548.959 3644.78 549.214 3631.25 549.725C3629.71 548.959 3629.2 544.893 3630.74 543.374L3638.66 542.621C3653.48 541.089 3653.98 537.541 3653.98 510.39V497.454C3653.98 483.495 3653.23 480.195 3645.8 465.982L3615.66 407.622C3606.98 390.875 3603.15 389.604 3595.48 388.334L3588.34 387.064C3586.8 385.29 3587.06 381.742 3588.85 380.72C3597.03 381.231 3606.23 381.479 3618.47 381.479C3630.23 381.479 3639.42 381.224 3645.8 380.72C3648.11 381.479 3648.11 385.538 3646.57 387.064L3643.26 387.575C3634.32 388.838 3632.51 390.108 3632.51 392.138C3632.51 394.678 3639.16 409.134 3640.44 411.681C3649.89 430.458 3659.32 450.498 3669.28 468.011C3677.22 454.564 3685.64 439.846 3693.31 425.122C3700.46 411.929 3709.91 394.671 3709.91 391.627C3709.91 390.101 3705.31 388.327 3699.17 387.568L3694.58 387.057C3692.78 385.283 3693.04 381.735 3695.1 380.713C3704.28 381.224 3711.69 381.472 3719.6 381.472C3727.53 381.472 3734.68 381.217 3743.37 380.713C3745.41 381.983 3745.65 385.532 3743.86 387.057L3736.72 388.327C3723.44 390.619 3715.77 406.593 3703.01 428.421L3686.91 456.083C3675.66 475.363 3674.91 477.648 3674.91 497.177V510.39H3674.93ZM1096.05 763.67C1093.5 755.717 1092.05 754.626 1081.13 754.626H1026.2C1017.1 754.626 1014.92 755.71 1012.38 763.304L999.641 801.258C994.181 817.522 991.633 827.283 991.633 831.252C991.633 835.594 993.456 837.762 1002.19 838.48L1014.19 839.571C1016.74 841.379 1016.74 847.164 1013.47 848.6C1004 847.882 992.731 847.882 975.632 847.509C963.627 847.509 950.525 848.255 940.701 848.6C938.513 847.164 937.781 841.379 939.976 839.571L951.981 838.48C960.721 837.762 968.721 833.786 973.816 820.78C980.367 804.15 990.549 780.658 1005.83 740.185L1042.94 642.594C1048.04 629.581 1050.22 622.719 1049.13 616.928C1057.86 614.401 1064.04 607.891 1068.04 603.197C1070.23 603.197 1072.77 603.915 1073.51 606.449C1078.23 622.361 1084.05 638.983 1089.51 654.882L1139.36 800.174C1149.92 831.259 1154.65 836.678 1170.29 838.487L1180.11 839.577C1182.66 841.386 1181.93 847.171 1180.11 848.607C1165.19 847.889 1152.46 847.516 1136.09 847.516C1118.62 847.516 1104.8 848.262 1094.24 848.607C1091.34 847.171 1090.96 841.386 1093.52 839.577L1104.07 838.487C1111.71 837.769 1116.8 835.601 1116.8 831.991C1116.8 828.008 1114.99 821.505 1112.07 812.834L1096.05 763.67ZM1024.01 731.514C1021.1 739.819 1021.46 740.185 1031.65 740.185H1076.4C1086.95 740.185 1087.68 738.735 1084.41 728.981L1064.77 670.069C1061.85 661.391 1058.58 651.637 1056.39 647.295H1055.67C1054.58 649.097 1050.94 657.774 1046.93 668.612L1024.01 731.514ZM1231.83 851.575C1210.38 851.575 1196.84 844.983 1191.99 842.18C1188.92 836.609 1185.6 818.585 1185.09 806.663C1186.37 804.882 1190.2 804.385 1191.23 805.903C1195.05 818.84 1205.53 843.712 1235.15 843.712C1256.61 843.712 1267.08 829.761 1267.08 814.533C1267.08 803.356 1264.79 790.93 1246.13 779.009L1221.87 763.276C1209.1 754.902 1194.28 740.433 1194.28 719.634C1194.28 695.528 1213.19 675.992 1246.39 675.992C1254.31 675.992 1263.5 677.51 1270.14 679.291C1273.46 680.299 1277.04 680.824 1279.08 680.824C1281.38 686.899 1283.67 701.113 1283.67 711.764C1282.66 713.297 1278.57 714.049 1277.3 712.524C1273.98 700.346 1267.08 683.861 1242.56 683.861C1217.53 683.861 1212.16 700.353 1212.16 712.02C1212.16 726.744 1224.42 737.403 1233.87 743.236L1254.31 755.91C1270.39 765.823 1286.24 780.534 1286.24 804.64C1286.24 832.543 1265.04 851.575 1231.83 851.575ZM1356.77 851.575C1335.31 851.575 1321.77 844.983 1316.92 842.18C1313.86 836.609 1310.53 818.585 1310.02 806.663C1311.31 804.882 1315.13 804.385 1316.15 805.903C1319.99 818.84 1330.46 843.712 1360.09 843.712C1381.54 843.712 1392.02 829.761 1392.02 814.533C1392.02 803.356 1389.71 790.93 1371.07 779.009L1346.8 763.276C1334.03 754.902 1319.22 740.433 1319.22 719.634C1319.22 695.528 1338.12 675.992 1371.32 675.992C1379.24 675.992 1388.43 677.51 1395.07 679.291C1398.4 680.299 1401.97 680.824 1404.01 680.824C1406.31 686.899 1408.61 701.113 1408.61 711.764C1407.59 713.297 1403.5 714.049 1402.23 712.524C1398.91 700.346 1392.02 683.861 1367.49 683.861C1342.46 683.861 1337.1 700.353 1337.1 712.02C1337.1 726.744 1349.35 737.403 1358.8 743.236L1379.24 755.91C1395.33 765.823 1411.16 780.534 1411.16 804.64C1411.18 832.543 1389.97 851.575 1356.77 851.575ZM1436.25 765.547C1436.25 714.809 1474.56 675.978 1527.18 675.978C1586.18 675.978 1615.82 718.35 1615.82 763.007C1615.82 814.27 1576.47 851.568 1527.18 851.568C1470.48 851.575 1436.25 811.24 1436.25 765.547ZM1590.27 770.89C1590.27 729.015 1571.62 683.854 1522.84 683.854C1496.27 683.854 1461.78 701.865 1461.78 757.429C1461.78 794.996 1480.18 843.712 1530.5 843.712C1561.15 843.712 1590.27 820.87 1590.27 770.89ZM1671.02 697.55C1689.66 683.088 1713.41 675.985 1739.98 675.985C1753.77 675.985 1773.19 678.767 1785.19 682.073C1788.25 682.833 1790.04 683.337 1792.34 683.088C1792.59 688.928 1793.88 704.909 1795.91 720.379C1794.64 722.154 1790.8 722.416 1789.02 720.89C1785.19 703.632 1773.69 683.848 1736.66 683.848C1697.58 683.848 1664.37 708.451 1664.37 760.991C1664.37 814.277 1698.34 843.706 1740.23 843.706C1773.18 843.706 1787.74 822.388 1793.62 807.415C1795.4 806.145 1799.23 806.663 1800.26 808.43C1798.47 821.629 1791.83 838.376 1788 843.195C1784.93 843.699 1781.87 844.72 1779.06 845.721C1773.44 847.758 1755.05 851.568 1738.71 851.568C1715.71 851.568 1693.75 847.005 1675.11 834.566C1654.67 820.614 1638.84 797.516 1638.84 764.781C1638.83 736.63 1651.6 712.517 1671.02 697.55ZM1838.12 718.605C1838.12 691.717 1837.6 687.403 1822.53 686.133L1816.15 685.635C1814.62 684.614 1815.13 680.037 1816.67 679.285C1829.44 679.782 1838.13 680.037 1848.85 680.037C1859.07 680.037 1867.75 679.782 1880.51 679.285C1882.05 680.037 1882.56 684.607 1881.03 685.635L1874.65 686.133C1859.57 687.41 1859.06 691.724 1859.06 718.605V808.948C1859.06 835.843 1859.57 839.391 1874.65 841.172L1881.03 841.938C1882.56 842.946 1882.05 847.509 1880.51 848.282C1867.74 847.772 1859.07 847.509 1848.85 847.509C1838.13 847.509 1829.44 847.772 1816.67 848.282C1815.13 847.509 1814.62 843.457 1816.15 841.938L1822.53 841.172C1837.6 839.391 1838.12 835.843 1838.12 808.948V718.605ZM1995.73 788.645C1993.95 783.054 1992.93 782.308 1985.26 782.308H1946.68C1940.3 782.308 1938.77 783.054 1936.98 788.39L1928.04 815.03C1924.22 826.454 1922.43 833.309 1922.43 836.091C1922.43 839.143 1923.7 840.661 1929.84 841.165L1938.26 841.931C1940.05 843.202 1940.05 847.254 1937.75 848.275C1931.11 847.765 1923.2 847.765 1911.18 847.502C1902.76 847.502 1893.56 848.02 1886.66 848.275C1885.13 847.261 1884.62 843.202 1886.16 841.931L1894.59 841.165C1900.72 840.661 1906.34 837.865 1909.91 828.739C1914.5 817.073 1921.66 800.567 1932.38 772.154L1958.43 703.632C1962.01 694.499 1963.55 689.681 1962.77 685.629C1968.91 683.848 1973.25 679.278 1976.05 675.985C1977.59 675.985 1979.37 676.489 1979.89 678.263C1983.21 689.432 1987.3 701.106 1991.12 712.268L2026.12 814.277C2033.52 836.091 2036.84 839.909 2047.83 841.172L2054.72 841.938C2056.52 843.209 2056.01 847.261 2054.72 848.282C2044.26 847.772 2035.31 847.509 2023.82 847.509C2011.56 847.509 2001.84 848.027 1994.44 848.282C1992.41 847.268 1992.15 843.209 1993.94 841.938L2001.34 841.172C2006.7 840.668 2010.28 839.149 2010.28 836.616C2010.28 833.82 2009 829.25 2006.95 823.162L1995.73 788.645ZM1945.16 766.058C1943.11 771.898 1943.37 772.161 1950.52 772.161H1981.93C1989.33 772.161 1989.85 771.139 1987.55 764.284L1973.76 722.927C1971.72 716.831 1969.43 709.983 1967.89 706.946H1967.38C1966.6 708.209 1964.06 714.305 1961.25 721.912L1945.16 766.058ZM2127.07 809.459C2127.07 836.091 2127.57 839.909 2142.39 841.172L2150.56 841.938C2152.1 842.946 2151.58 847.509 2150.06 848.282C2135.5 847.772 2126.81 847.509 2116.6 847.509C2106.38 847.509 2097.43 847.772 2081.09 848.282C2079.55 847.509 2079.05 843.209 2081.09 841.938L2090.27 841.172C2104.84 839.909 2106.12 836.098 2106.12 809.459V696.025C2106.12 688.155 2106.12 687.893 2098.46 687.893H2084.42C2073.43 687.893 2059.38 688.404 2053 694.251C2046.86 699.842 2044.3 705.406 2041.5 711.75C2039.46 713.283 2035.88 712.006 2034.86 709.976C2038.95 698.558 2042.78 682.322 2044.58 672.167C2045.34 671.656 2048.66 671.408 2049.41 672.167C2050.96 680.286 2059.38 680.03 2071.13 680.03H2174.58C2188.37 680.03 2190.67 679.533 2194.51 672.934C2195.78 672.437 2198.59 672.685 2199.1 673.693C2196.31 684.103 2194.51 704.64 2195.27 712.261C2194.24 714.298 2189.9 714.298 2188.62 712.772C2187.86 706.428 2186.07 697.04 2182.23 694.244C2176.36 689.922 2166.66 687.886 2152.62 687.886H2134.48C2126.81 687.886 2127.08 688.148 2127.08 696.522L2127.07 809.459ZM2234.35 718.108C2234.35 691.717 2233.83 687.893 2218.77 686.126L2214.68 685.629C2213.16 684.607 2213.66 680.03 2215.19 679.278C2226.17 679.775 2234.87 680.03 2245.32 680.03H2293.35C2309.7 680.03 2324.77 680.03 2327.83 679.278C2329.36 683.585 2330.88 701.858 2331.92 713.034C2330.89 714.56 2326.82 715.057 2325.53 713.525C2321.7 701.603 2319.4 692.725 2306.12 689.432C2300.75 688.155 2292.59 687.893 2281.35 687.893H2262.96C2255.29 687.893 2255.29 688.404 2255.29 698.054V748.807C2255.29 755.903 2256.06 755.903 2263.73 755.903H2278.55C2289.26 755.903 2297.19 755.413 2300.26 754.399C2303.32 753.377 2305.1 751.858 2306.38 745.507L2308.44 735.097C2309.71 733.578 2314.05 733.578 2315.07 735.353C2315.07 741.448 2314.06 751.34 2314.06 760.991C2314.06 770.117 2315.07 779.768 2315.07 785.346C2314.06 787.12 2309.71 787.12 2308.44 785.601L2306.12 775.695C2305.11 771.125 2303.32 767.328 2298.21 766.051C2294.63 765.043 2288.51 764.781 2278.55 764.781H2263.73C2256.07 764.781 2255.29 765.036 2255.29 771.643V807.415C2255.29 820.863 2256.06 829.492 2260.14 833.806C2263.22 836.851 2268.59 839.646 2291.06 839.646C2310.72 839.646 2318.14 838.632 2323.74 835.829C2328.35 833.309 2335.24 824.418 2341.88 811.233C2343.67 809.956 2347.25 810.722 2348.28 813C2346.47 821.891 2340.1 841.427 2336.79 848.275C2313.79 847.765 2291.06 847.502 2268.33 847.502H2245.33C2234.35 847.502 2225.66 847.765 2210.6 848.275C2209.06 847.502 2208.56 843.45 2210.09 841.931L2218.53 841.165C2233.09 839.902 2234.36 836.091 2234.36 809.452V718.108H2234.35ZM2408.09 851.575C2386.64 851.575 2373.09 844.983 2368.25 842.18C2365.19 836.609 2361.87 818.585 2361.36 806.663C2362.63 804.882 2366.46 804.385 2367.47 805.903C2371.33 818.84 2381.79 843.712 2411.41 843.712C2432.86 843.712 2443.33 829.761 2443.33 814.533C2443.33 803.356 2441.04 790.93 2422.41 779.009L2398.14 763.276C2385.36 754.902 2370.55 740.433 2370.55 719.634C2370.55 695.528 2389.44 675.992 2422.65 675.992C2430.58 675.992 2439.76 677.51 2446.41 679.291C2449.73 680.299 2453.3 680.824 2455.35 680.824C2457.65 686.899 2459.94 701.113 2459.94 711.764C2458.92 713.297 2454.83 714.049 2453.56 712.524C2450.24 700.346 2443.33 683.861 2418.82 683.861C2393.79 683.861 2388.43 700.353 2388.43 712.02C2388.43 726.744 2400.69 737.403 2410.14 743.236L2430.58 755.91C2446.66 765.823 2462.5 780.534 2462.5 804.64C2462.5 832.543 2441.3 851.575 2408.09 851.575Z" fill="#332F2E"/>
</svg>
