<svg width="411" height="410" viewBox="0 0 411 410" fill="none" xmlns="http://www.w3.org/2000/svg">
<path d="M238.902 0.102748C234.807 -0.578576 230.923 2.19913 230.242 6.33948L205.739 155.602C205.058 159.69 207.843 163.568 211.99 164.25C216.126 164.931 219.959 162.153 220.64 158.013L245.143 8.75032C245.823 4.66238 243.048 0.784073 238.902 0.102748ZM141.737 15.1444C140.271 11.2661 135.915 9.27458 131.978 10.742C128.104 12.2095 126.104 16.5595 127.58 20.4902L180.88 161.996C181.822 164.511 184.073 166.346 186.754 166.765C188.063 166.975 189.424 166.817 190.639 166.346C194.461 164.879 196.356 160.686 194.985 156.86L141.685 15.1444H141.737ZM45.8401 84.0104L163.089 179.657C164.083 180.496 165.298 181.021 166.607 181.23C170.021 181.807 173.319 180.025 174.796 176.933C176.209 173.84 175.372 170.119 172.691 167.97L55.4424 72.323C52.1858 69.7026 47.4631 70.1742 44.7929 73.3712C42.1646 76.6206 42.6359 81.3375 45.8401 84.0104ZM164.932 198.053C165.612 193.965 162.827 190.088 158.68 189.406L9.27384 164.93C5.17951 164.25 1.29469 167.027 0.614051 171.167C-0.0665918 175.307 2.71883 179.134 6.86552 179.815L156.272 204.29C160.366 204.972 164.251 202.194 164.932 198.053ZM167.288 219.174C165.822 215.349 161.623 213.462 157.79 214.825L16.1431 268.073C12.9493 269.278 10.9493 272.475 11.2635 275.881C11.5776 279.289 14.2058 282.013 17.5672 282.59C18.8761 282.8 20.2375 282.695 21.4417 282.224L163.089 228.976C166.921 227.403 168.754 223.053 167.235 219.227L167.288 219.174ZM179.403 236.365C176.209 233.901 171.644 234.374 169.016 237.413L73.2752 354.549C70.8144 357.746 71.2857 362.305 74.3748 364.926C75.4324 365.764 76.6365 366.289 77.9455 366.55C80.6262 366.969 83.2964 365.974 85.0242 363.878L180.775 246.742C183.236 243.493 182.607 238.881 179.403 236.365ZM198.712 245.065C194.618 244.383 190.744 247.161 190.053 251.302L165.56 400.565C164.879 404.652 167.654 408.53 171.801 409.212C175.948 409.893 179.77 407.116 180.461 402.975L204.953 253.712C205.634 249.624 202.859 245.747 198.712 245.065ZM229.614 247.318C228.095 243.598 223.896 241.711 220.116 243.021C216.283 244.488 214.346 248.681 215.76 252.507L269.06 394.013C270.013 396.529 272.264 398.362 274.944 398.782C276.253 398.992 277.562 398.835 278.819 398.415C282.599 396.895 284.484 392.755 283.175 388.929L229.614 247.318ZM364.863 325.357L247.604 229.709C244.41 227.193 239.792 227.665 237.216 230.809C234.755 234.006 235.226 238.566 238.274 241.186L355.522 336.834C356.517 337.725 357.773 338.249 359.093 338.459C362.444 339.036 365.805 337.253 367.166 334.109C368.528 330.964 367.69 327.296 365.072 325.146L364.81 325.357H364.863ZM403.89 229.499L254.483 205.024C250.389 204.343 246.504 207.121 245.823 211.261C245.143 215.401 247.918 219.227 252.064 219.908L401.481 244.383C405.565 245.065 409.45 242.287 410.131 238.146C410.811 234.006 408.036 230.181 403.89 229.499ZM243.729 190.193C244.672 192.708 246.871 194.542 249.604 194.961C250.86 195.171 252.221 195.066 253.426 194.595L395.073 141.346C398.958 139.879 400.958 135.529 399.481 131.599C398.015 127.72 393.659 125.728 389.722 127.196L248.075 180.444C244.2 181.912 242.253 186.314 243.729 190.193ZM231.289 173.263C232.284 174.102 233.551 174.679 234.86 174.941C237.53 175.36 240.211 174.364 241.939 172.268L337.689 55.1327C340.307 51.8833 339.836 47.1665 336.632 44.4936C333.386 41.8732 328.663 42.3448 325.982 45.5418L230.242 162.677C228.985 164.197 228.357 166.189 228.567 168.181C228.776 170.171 229.771 172.006 231.341 173.263H231.289Z" fill="#332F2E"/>
</svg>
