<svg width="1582" height="733" viewBox="0 0 1582 733" fill="none" xmlns="http://www.w3.org/2000/svg">
<path d="M325.837 261.627C325.942 273 323.791 283.743 319.332 293.597C314.925 303.449 308.682 312.097 300.918 319.277C293.154 326.51 283.71 332.327 272.903 336.519C262.096 340.765 250.187 342.967 237.544 343.124H234.344C223.222 343.333 197.306 343.752 182.931 339.979C132.883 326.981 118.456 307.695 115.151 293.806C112.108 281.123 117.826 269.226 124.803 263.094C130.47 258.115 137.971 255.442 145.631 255.442C148.411 255.442 151.139 255.809 153.868 256.49C163.048 258.901 169.921 265.085 172.859 273.418C182.564 301.405 208.481 330.336 235.078 330.336C247.249 330.336 257.27 326.928 264.877 320.273C272.326 313.67 276.051 304.917 275.946 294.278C275.841 284.739 272.117 277.454 263.407 269.907C255.276 262.832 241.95 256.019 223.852 249.73L188.335 237.309C165.567 229.342 148.726 220.381 138.339 210.684C130.417 203.294 124.385 190.559 123.072 178.19C122.863 176.514 122.548 172.006 122.548 171.43C122.443 160.319 124.751 149.68 129.42 139.879C134.089 130.026 140.594 121.431 148.726 114.355C156.91 107.228 166.721 101.515 178.053 97.2702C189.332 93.025 201.818 90.8239 215.195 90.6666C221.386 90.6142 227.944 90.981 234.658 91.8196C235.026 91.8196 235.603 91.9769 236.39 92.0292C264.3 95.8552 287.488 96.1696 305.325 92.9726C305.849 92.8678 306.846 92.6058 307.685 92.3961C307.895 92.3437 308.157 92.2913 308.368 92.2389L307.948 122.531C307.843 130.603 303.174 137.468 295.777 140.455C288.432 143.391 280.458 141.713 274.844 136.053C254.017 115.037 235.918 104.765 219.55 104.765C211.418 104.765 196.571 105.813 188.755 112.784C181.882 118.863 178.473 127.038 178.577 136.997C178.63 142.028 179.836 146.849 182.092 151.305C184.348 155.812 187.444 159.586 191.221 162.52C195.47 165.664 201.502 169.072 209.162 172.688C216.822 176.304 225.425 179.815 234.712 183.065L267.184 194.857C280.195 199.626 291.108 205.077 299.711 211.156C304.223 214.51 308.105 217.969 311.2 221.429C320.8 232.173 325.785 245.747 325.942 261.679L325.837 261.627ZM539.671 236.051C539.671 250.831 536.943 264.928 531.592 277.979C526.241 291.028 518.897 302.506 509.768 312.044C500.64 321.583 489.78 329.235 477.399 334.79C464.493 340.607 452.532 343.176 438.63 343.176C434.696 343.176 428.925 342.914 425.515 342.337C422.315 341.76 418.17 340.607 413.187 338.826H412.871L412.556 339.14V371.32C412.556 382.273 413.081 390.502 414.182 395.743C415.285 401.036 417.173 405.701 419.848 409.631C421.318 411.675 423.049 413.457 424.938 414.976C423.311 415.501 421.685 416.077 420.059 416.654C418.957 417.073 417.802 417.44 416.753 417.807C414.13 418.384 411.717 418.96 409.356 419.537C405.474 420.533 400.962 421.738 395.979 423.205C390.89 424.673 386.536 425.931 382.811 427.031C379.086 428.132 375.519 429.18 372.161 430.123C368.699 431.119 365.236 432.167 361.879 433.216C358.522 434.264 354.534 435.626 350.022 437.199V217.603C350.022 206.648 349.497 198.473 348.448 193.232C347.346 187.939 345.458 183.274 342.783 179.343C342.625 179.134 342.468 178.924 342.258 178.715L341.891 178.295C340.685 176.828 339.425 175.518 338.166 174.47C338.008 174.365 337.903 174.207 337.746 174.102L337.642 173.997C339.268 173.474 340.894 172.897 342.52 172.321C343.674 171.953 344.776 171.535 345.877 171.168C348.5 170.591 350.914 170.014 353.275 169.438C357.209 168.442 361.669 167.237 366.653 165.821C371.689 164.354 376.096 163.097 379.82 161.996C383.545 160.896 387.113 159.847 390.47 158.904L391.677 158.537C394.353 157.751 397.553 156.808 400.753 155.812C403.481 154.973 406.891 153.82 410.878 152.405L412.871 151.671L413.239 152.038C417.278 155.864 422.472 158.065 428.19 158.537H432.335C434.853 158.327 437.266 157.751 439.575 156.86C447.444 153.82 455.942 152.353 469.006 151.776C478.501 151.357 490.095 153.82 498.594 158.118C506.935 162.31 514.28 168.285 520.366 175.78C526.451 183.222 531.277 192.237 534.635 202.509C537.992 212.78 539.723 224.101 539.723 236.208L539.671 236.051ZM479.183 240.349C479.183 216.397 476.193 198.892 470.264 188.358C464.284 177.719 454.159 172.373 440.152 172.373C434.801 172.373 430.184 173.212 426.459 174.784H426.354C417.908 178.558 412.662 186 412.662 194.281V307.852C412.662 313.879 414.813 318.753 419.062 322.265C423.259 325.723 428.872 327.505 435.745 327.505C450.067 327.505 461.032 319.959 468.324 305.127C475.563 290.399 479.235 268.597 479.235 240.296L479.183 240.349ZM742.069 338.511C740.285 338.668 735.511 338.826 724.232 338.826C711.221 338.826 694.066 338.72 681.895 338.616H681.686C672.347 333.742 661.644 332.746 651.572 335.734C650.365 336.1 649.316 336.415 648.319 336.834C639.087 340.45 623.715 344.381 602.836 342.808C589.562 341.813 580.224 338.563 571.568 332.012C560.183 323.365 558.137 310.053 557.928 302.872C556.669 260.421 629.381 230.129 667.101 226.407H667.521V214.877C666.944 198.735 664.006 184.636 659.546 177.194L659.336 176.88C657.501 173.788 655.087 171.167 652.255 169.018L652.149 168.914C647.322 165.403 641.972 163.62 636.201 163.568C635.729 163.568 635.256 163.568 634.836 163.673H633.787C633.421 163.777 633.053 163.777 632.738 163.83H632.109C627.073 164.459 622.77 166.451 619.308 169.7C614.167 174.47 611.491 179.815 611.229 185.528C611.124 187.938 611.229 190.245 611.544 192.341V192.498C611.701 193.547 612.173 195.748 612.488 197.425L613.433 201.88C613.537 202.351 613.642 202.771 613.695 203.19C614.167 205.548 614.376 208.117 614.272 210.736C614.01 217.603 612.121 223.735 608.659 228.819C607.556 230.443 606.245 232.015 604.881 233.43C599.268 239.142 592.396 242.13 584.474 242.392C578.283 242.602 572.354 240.925 567.686 237.675C564.328 235.317 561.653 232.434 559.502 228.819C558.4 226.932 557.456 224.783 556.669 222.162C555.514 218.389 554.99 214.458 555.2 210.37C555.357 206.02 556.145 201.618 557.56 197.267C558.714 193.547 560.183 190.193 562.02 186.996C565.692 180.601 571.411 174.365 579.594 167.918C586.625 162.415 594.704 158.17 603.517 155.392C623.295 149.103 654.824 146.01 676.753 152.143C697.843 158.065 714.631 175.675 720.297 189.93C726.592 205.915 729.792 226.407 729.792 250.777V296.688C729.845 306.803 730.422 314.455 731.419 319.382C732.52 324.675 734.409 329.339 737.085 333.27C737.242 333.479 737.4 333.638 737.557 333.847L737.977 334.371C739.183 335.839 740.442 337.149 741.701 338.197C741.859 338.302 741.963 338.406 742.121 338.511H742.069ZM667.521 291.238V237.046H667.101C660.124 237.046 654.878 238.828 651.519 240.138C648.162 241.502 644.752 243.546 641.395 246.165C635.361 250.306 630.955 255.547 628.332 261.627C625.708 267.706 624.344 275.462 624.344 284.687C624.344 295.64 626.181 304.13 629.801 310C632.844 314.927 637.093 317.862 642.392 318.648C643.545 318.805 644.595 318.911 645.592 318.911C652.412 318.911 657.815 316.394 661.698 311.467C665.579 306.542 667.521 299.728 667.521 291.185V291.238ZM915.035 178.924C915.035 187.31 912.412 194.542 907.218 200.412C902.077 206.23 894.365 209.531 886.496 209.217C877.839 208.903 870.705 204.763 865.301 197.005L860.632 190.402C857.17 185.423 853.287 182.908 849.09 182.908C845.418 182.908 841.431 186.891 837.234 194.804C831.516 205.548 828.525 218.179 828.525 231.229V295.273C828.525 306.226 829.05 314.403 830.152 319.696C831.253 324.989 833.142 329.654 835.818 333.585C837.182 335.523 838.808 337.201 840.539 338.616H753.768C755.499 337.201 757.125 335.523 758.489 333.585C761.165 329.654 763.054 324.989 764.155 319.696C765.257 314.403 765.782 306.226 765.782 295.273V217.13C765.782 206.177 765.257 197.949 764.155 192.708C763.054 187.415 761.165 182.751 758.489 178.82C758.28 178.505 758.069 178.295 757.86 178.033C757.702 177.876 757.597 177.719 757.492 177.614C756.128 175.937 754.817 174.627 753.453 173.526C758.226 171.953 762.843 170.486 767.617 169.281L769.086 168.914C773.074 167.918 777.585 166.66 782.465 165.245C787.5 163.777 791.908 162.52 795.632 161.419C799.357 160.319 802.925 159.27 806.282 158.327C809.797 157.331 813.259 156.283 816.564 155.235C819.397 154.344 823.699 152.981 828.63 151.252V184.322L829.47 182.435C843.635 150.99 871.701 147.583 883.138 147.583C892.109 147.583 899.769 150.623 905.959 156.598C912.097 162.572 915.244 170.12 915.192 178.977L915.035 178.924ZM997.452 283.429V295.169C997.452 306.123 997.977 314.35 999.079 319.591C1000.18 324.884 1002.07 329.55 1004.74 333.48C1006.11 335.42 1007.73 337.096 1009.47 338.511H922.8C924.531 337.096 926.157 335.366 927.521 333.48C930.197 329.55 932.085 324.884 933.186 319.591C934.289 314.298 934.814 306.123 934.814 295.169V148.579C934.603 133.538 933.711 121.956 932.085 114.198C931.141 109.587 929.777 105.132 928.046 100.939C926.472 97.1655 924.635 93.654 922.537 90.5094C920.018 86.998 917.186 84.0106 913.933 81.4426C914.038 81.4426 914.143 81.3901 914.248 81.3378C914.353 81.3378 914.51 81.2853 914.615 81.233L914.93 81.1281C918.34 80.2896 922.484 79.2414 927.154 77.9836C927.888 77.7215 928.623 77.4595 929.357 77.1974L930.563 76.7781C932.609 76.3065 934.76 75.8347 936.912 75.2583C942.42 73.686 947.403 72.3233 951.654 71.1179L955.168 70.1222C959.051 69.0215 962.828 67.9733 966.395 66.9775C970.277 65.8769 974.474 64.6715 979.248 63.2565L981.923 62.4703C986.488 61.0553 991.629 59.3781 997.295 57.4389V155.341L997.4 183.851V230.81L1020.96 207.173C1036.96 190.193 1046.45 173.893 1046.45 163.568C1046.45 158.59 1044.56 154.659 1040.94 151.985L1040.52 151.462H1116.27C1094.14 179.763 1073.15 191.869 1044.56 203.137L1044.04 203.347L1114.18 305.965C1117.23 310.263 1119.63 313.67 1121.63 316.394C1123.62 319.12 1125.51 321.635 1127.25 323.89C1128.92 326.091 1130.6 328.082 1132.13 329.759C1133.7 331.489 1135.43 333.218 1137.37 334.895C1138.89 336.31 1140.41 337.568 1141.82 338.563H1057.1L997.348 237.099V283.481L997.452 283.429ZM1395.9 0.102748C1391.81 -0.578576 1387.92 2.19913 1387.24 6.33948L1362.74 155.602C1362.06 159.69 1364.84 163.568 1368.99 164.25C1373.13 164.931 1376.96 162.153 1377.64 158.013L1402.14 8.75032C1402.82 4.66238 1400.05 0.784073 1395.9 0.102748ZM1298.74 15.1444C1297.27 11.2661 1292.92 9.27458 1288.98 10.742C1285.1 12.2095 1283.1 16.5595 1284.58 20.4902L1337.88 161.996C1338.82 164.511 1341.07 166.346 1343.75 166.765C1345.06 166.975 1346.42 166.817 1347.64 166.346C1351.46 164.879 1353.36 160.686 1351.98 156.86L1298.69 15.1444H1298.74ZM1202.84 84.0104L1320.09 179.657C1321.08 180.496 1322.3 181.021 1323.61 181.23C1327.02 181.807 1330.32 180.025 1331.8 176.933C1333.21 173.84 1332.37 170.119 1329.69 167.97L1212.44 72.323C1209.19 69.7026 1204.46 70.1742 1201.79 73.3712C1199.16 76.6206 1199.64 81.3375 1202.84 84.0104ZM1321.93 198.053C1322.61 193.965 1319.83 190.088 1315.68 189.406L1166.27 164.93C1162.18 164.25 1158.29 167.027 1157.61 171.167C1156.93 175.307 1159.72 179.134 1163.87 179.815L1313.27 204.29C1317.37 204.972 1321.25 202.194 1321.93 198.053ZM1324.29 219.174C1322.82 215.349 1318.62 213.462 1314.79 214.825L1173.14 268.073C1169.95 269.278 1167.95 272.475 1168.26 275.881C1168.58 279.289 1171.21 282.013 1174.57 282.59C1175.88 282.8 1177.24 282.695 1178.44 282.224L1320.09 228.976C1323.92 227.403 1325.75 223.053 1324.24 219.227L1324.29 219.174ZM1336.4 236.365C1333.21 233.901 1328.64 234.374 1326.02 237.413L1230.28 354.549C1227.81 357.746 1228.29 362.305 1231.37 364.926C1232.43 365.764 1233.64 366.289 1234.95 366.55C1237.63 366.969 1240.3 365.974 1242.02 363.878L1337.77 246.742C1340.24 243.493 1339.61 238.881 1336.4 236.365ZM1355.71 245.065C1351.62 244.383 1347.74 247.161 1347.05 251.302L1322.56 400.565C1321.88 404.652 1324.65 408.53 1328.8 409.212C1332.95 409.893 1336.77 407.116 1337.46 402.975L1361.95 253.712C1362.63 249.624 1359.86 245.747 1355.71 245.065ZM1386.61 247.318C1385.1 243.598 1380.9 241.711 1377.12 243.021C1373.28 244.488 1371.35 248.681 1372.76 252.507L1426.06 394.013C1427.01 396.529 1429.26 398.362 1431.94 398.782C1433.25 398.992 1434.56 398.835 1435.82 398.415C1439.6 396.895 1441.48 392.755 1440.18 388.929L1386.61 247.318ZM1521.86 325.357L1404.6 229.709C1401.41 227.193 1396.79 227.665 1394.22 230.809C1391.76 234.006 1392.23 238.566 1395.27 241.186L1512.52 336.834C1513.52 337.725 1514.77 338.249 1516.09 338.459C1519.44 339.036 1522.81 337.253 1524.17 334.109C1525.53 330.964 1524.69 327.296 1522.07 325.146L1521.81 325.357H1521.86ZM1560.89 229.499L1411.48 205.024C1407.39 204.343 1403.5 207.121 1402.82 211.261C1402.14 215.401 1404.92 219.227 1409.06 219.908L1558.48 244.383C1562.57 245.065 1566.45 242.287 1567.13 238.146C1567.81 234.006 1565.04 230.181 1560.89 229.499ZM1400.73 190.193C1401.67 192.708 1403.87 194.542 1406.6 194.961C1407.86 195.171 1409.22 195.066 1410.43 194.595L1552.07 141.347C1555.96 139.879 1557.96 135.529 1556.48 131.599C1555.02 127.72 1550.66 125.728 1546.72 127.196L1405.07 180.444C1401.2 181.912 1399.25 186.314 1400.73 190.193ZM1388.29 173.263C1389.28 174.102 1390.55 174.679 1391.86 174.941C1394.53 175.36 1397.21 174.364 1398.94 172.268L1494.69 55.1327C1497.31 51.8833 1496.84 47.1665 1493.63 44.4936C1490.39 41.8732 1485.66 42.3448 1482.98 45.5418L1387.24 162.677C1385.99 164.197 1385.36 166.189 1385.57 168.181C1385.78 170.171 1386.77 172.006 1388.34 173.263H1388.29ZM211.524 557.111C211.628 568.484 209.477 579.228 205.018 589.082C200.611 598.934 194.368 607.582 186.604 614.762C178.84 621.994 169.397 627.812 158.589 632.005C147.782 636.25 135.874 638.451 123.231 638.608H120.031C108.908 638.818 82.9921 639.237 68.6176 635.464C18.5691 622.466 4.14212 603.232 0.837038 589.344C-2.20574 576.661 3.51259 564.763 10.49 558.631C16.1559 553.653 23.6579 550.979 31.3173 550.979C34.0453 550.979 36.8258 551.347 39.5537 552.028C48.7346 554.439 55.6071 560.623 58.5449 568.956C68.2504 596.943 94.1664 625.873 120.765 625.873C132.936 625.873 142.956 622.466 150.563 615.81C158.013 609.207 161.737 600.454 161.632 589.815C161.528 580.276 157.802 572.991 149.094 565.445C140.962 558.369 127.637 551.556 109.538 545.267L74.0212 532.846C51.2527 524.879 34.4126 515.918 24.0251 506.221C16.1034 498.832 10.0703 486.096 8.75875 473.727C8.54891 472.051 8.23414 467.544 8.23414 466.967C8.12921 455.856 10.4375 445.217 15.1066 435.417C19.7757 425.563 26.281 416.968 34.4126 409.893C42.5965 402.766 52.4069 397.053 63.7387 392.807C75.018 388.562 87.5038 386.361 100.882 386.204C107.072 386.152 113.629 386.518 120.345 387.357C120.712 387.357 121.289 387.514 122.076 387.566C149.986 391.393 173.174 391.707 191.011 388.51C191.536 388.405 192.533 388.143 193.371 387.933C193.582 387.881 193.844 387.828 194.053 387.776L193.634 418.069C193.528 426.14 188.86 433.006 181.462 435.993C174.119 438.928 166.144 437.251 160.531 431.59C139.703 410.574 121.604 400.302 105.235 400.302C97.1043 400.302 82.2576 401.35 74.4409 408.321C67.5684 414.401 64.1584 422.577 64.2633 432.534C64.3157 437.565 65.5224 442.386 67.7782 446.842C70.0341 451.349 73.1293 455.123 76.9066 458.057C81.1559 461.202 87.189 464.609 94.8484 468.225C102.508 471.842 111.112 475.353 120.397 478.602L152.871 490.394C165.882 495.164 176.794 500.614 185.397 506.694C189.91 510.048 193.791 513.506 196.887 516.966C206.487 527.71 211.471 541.284 211.628 557.216L211.524 557.111ZM351.019 611.46C337.799 621.26 326.205 628.336 316.604 632.424C306.951 636.564 297.035 638.608 287.068 638.608C273.113 638.608 261.257 634.678 251.813 626.974C245.938 622.152 241.741 616.072 239.381 608.839C237.019 601.608 235.813 591.126 235.813 577.813V467.754H203.444L209.53 461.988C239.538 435.574 268.497 408.164 295.62 380.649L298.452 377.976V451.768H343.674L335.123 467.701H298.505V573.778C298.505 587.771 300.866 597.886 305.483 603.913C310.099 609.993 318.02 613.085 328.932 613.085C332.343 613.085 335.543 612.823 338.376 612.351C341.261 611.879 344.934 610.779 349.34 609.154L351.071 611.46H351.019Z" fill="white"/>
<path d="M664.271 399.36C664.743 416.342 652.415 429.025 634.892 429.496C619.889 429.916 613.593 421.845 606.301 412.516C597.802 401.667 588.202 389.403 562.076 389.403H561.289C528.448 389.717 489.783 411.363 462.714 444.591C453.271 456.173 445.454 468.856 439.526 482.326C430.292 503.184 425.57 525.511 425.57 548.623V590.656C425.57 601.609 426.095 609.785 427.197 615.078C428.298 620.371 430.187 625.036 432.863 628.967C434.227 630.906 435.853 632.583 437.584 633.998H350.813C352.596 632.583 354.17 630.906 355.534 628.967C358.21 625.036 360.098 620.371 361.201 615.078C362.302 609.785 362.827 601.556 362.827 590.656V512.513C362.827 501.559 362.302 493.331 361.201 488.09C360.098 482.797 358.21 478.133 355.534 474.202C355.324 473.888 355.115 473.625 354.852 473.415C354.747 473.258 354.59 473.154 354.485 472.997C353.121 471.319 351.81 470.009 350.445 468.908C355.167 467.336 359.836 465.869 364.558 464.663L366.027 464.296C369.961 463.3 374.421 462.095 379.404 460.628C384.441 459.16 388.847 457.902 392.572 456.801C396.297 455.701 399.864 454.653 403.222 453.709C406.789 452.661 410.199 451.665 413.504 450.617C416.337 449.726 420.639 448.364 425.57 446.634V479.705L426.41 477.818L426.724 477.189C426.829 476.979 426.935 476.769 427.04 476.56C447.027 424.36 496.079 383.69 558.247 367.653C573.618 363.722 625.817 352.244 650.737 370.955C659.392 377.453 663.904 386.993 664.271 399.36Z" fill="white"/>
<path d="M641.869 633.998C640.086 634.156 635.311 634.313 624.032 634.313C611.021 634.313 593.867 634.208 581.695 634.102H581.486C572.147 629.229 561.445 628.233 551.373 631.221C550.166 631.587 549.116 631.901 548.119 632.321C538.887 635.937 523.516 639.868 502.636 638.296C489.363 637.3 480.025 634.05 471.368 627.499C459.985 618.852 457.939 605.539 457.728 598.359C456.469 555.908 529.181 525.615 566.901 521.894H567.321V510.364C566.744 494.222 563.806 480.123 559.347 472.681L559.136 472.367C557.301 469.275 554.887 466.655 552.055 464.506L551.95 464.4C547.124 460.889 541.772 459.107 536.001 459.055C535.529 459.055 535.057 459.055 534.638 459.159H533.588C533.221 459.265 532.853 459.265 532.539 459.317H531.91C526.873 459.946 522.571 461.937 519.108 465.187C513.967 469.956 511.291 475.302 511.03 481.014C510.925 483.426 511.03 485.732 511.344 487.828V487.985C511.502 489.033 511.974 491.234 512.288 492.912L513.233 497.366C513.338 497.838 513.442 498.257 513.496 498.676C513.967 501.035 514.177 503.603 514.073 506.223C513.81 513.089 511.922 519.221 508.459 524.305C507.357 525.929 506.045 527.502 504.682 528.917C499.068 534.63 492.196 537.616 484.274 537.879C478.083 538.089 472.156 536.411 467.486 533.162C464.129 530.804 461.453 527.921 459.302 524.305C458.2 522.418 457.256 520.269 456.469 517.648C455.315 513.876 454.791 509.945 455 505.857C455.158 501.507 455.945 497.105 457.362 492.755C458.515 489.033 459.985 485.679 461.82 482.482C465.493 476.088 471.211 469.852 479.395 463.404C486.425 457.902 494.504 453.657 503.317 450.88C523.096 444.59 554.625 441.498 576.555 447.629C597.644 453.552 614.432 471.162 620.097 485.417C626.392 501.402 629.593 521.894 629.593 546.265V592.175C629.646 602.29 630.223 609.942 631.22 614.868C632.321 620.162 634.209 624.827 636.885 628.757C637.043 628.967 637.2 629.124 637.357 629.334L637.777 629.857C638.983 631.325 640.243 632.635 641.502 633.683C641.659 633.788 641.764 633.893 641.921 633.998H641.869ZM567.321 586.724V532.534H566.901C559.924 532.534 554.678 534.315 551.321 535.625C547.962 536.988 544.553 539.032 541.195 541.652C535.162 545.793 530.755 551.034 528.132 557.113C525.509 563.193 524.145 570.949 524.145 580.173C524.145 591.126 525.981 599.618 529.601 605.487C532.644 610.414 536.893 613.349 542.192 614.134C543.346 614.292 544.395 614.397 545.392 614.397C552.212 614.397 557.616 611.881 561.498 606.955C565.38 602.028 567.321 595.215 567.321 586.672V586.724ZM770.872 611.462C757.652 621.262 746.058 628.338 736.458 632.426C726.805 636.566 716.89 638.61 706.922 638.61C692.967 638.61 681.111 634.679 671.668 626.975C665.791 622.153 661.594 616.074 659.234 608.841C656.873 601.609 655.666 591.128 655.666 577.815V467.755H623.298L629.383 461.99C659.391 435.575 688.35 408.165 715.473 380.651L718.305 377.977V451.77H763.527L754.976 467.703H718.358V573.78C718.358 587.772 720.719 597.888 725.336 603.915C729.953 609.995 737.874 613.087 748.786 613.087C752.196 613.087 755.396 612.824 758.229 612.353C761.115 611.881 764.787 610.78 769.193 609.156L770.925 611.462H770.872Z" fill="white"/>
<path d="M927.473 563.088H930.62C928.731 571.84 925.688 580.278 921.544 588.088C921.387 588.402 921.177 588.716 921.019 589.03C920.757 589.502 920.495 589.921 920.18 590.446C915.564 598.622 909.74 606.116 902.868 612.667C885.451 629.281 862.787 638.506 839.022 638.61H836.818C835.14 638.61 833.409 638.506 831.415 638.349C830.103 638.243 828.792 638.138 827.48 637.981C824.647 637.667 822.286 637.3 820.083 636.828C819.821 636.828 819.611 636.723 819.349 636.671C819.191 636.671 818.981 636.566 818.824 636.566C786.718 629.595 760.172 605.539 749.522 573.832C746.112 563.717 744.381 553.287 744.381 542.858C744.381 489.977 786.612 447.001 838.549 447.001H840.071C878.054 447.629 911.734 471.214 925.899 507.01C927.053 509.892 928.05 512.828 928.889 515.763C929.308 518.016 928.731 520.322 927.262 522.104C925.847 523.833 923.748 524.829 921.491 524.829H811.322V525.249C811.689 570.687 832.044 593.748 871.811 593.748C884.454 593.748 895.523 591.18 904.599 586.096C913.36 581.222 919.761 574.775 927.473 563.088ZM810.955 511.936V512.355H838.392C846.681 512.355 854.446 508.582 859.692 501.926C864.885 495.375 866.722 486.937 864.78 478.918L864.36 479.023L864.728 478.708C863.206 472.158 860.583 467.283 856.963 464.191C853.344 461.099 848.308 459.527 842.012 459.527C832.149 459.527 824.438 464.139 819.086 473.206C813.735 482.22 811.007 495.218 811.007 511.884L810.955 511.936Z" fill="white"/>
<path d="M1122.78 647.467C1122.78 656.378 1122.47 664.081 1121.89 670.318C1121.31 676.503 1120.21 682.005 1118.64 686.67C1117.12 691.387 1115.01 695.58 1112.4 699.144C1109.77 702.812 1106.26 706.586 1102.01 710.411C1093.66 717.907 1083.69 723.567 1072.36 727.34C1069.06 728.441 1065.44 729.384 1060.98 730.328C1059.99 730.537 1059.04 730.694 1058.04 730.904L1057.25 731.061C1056.36 731.27 1055.42 731.428 1054.53 731.585C1049.02 732.477 1043.41 732.948 1037.43 732.948H1035.85C1018.33 732.948 1001.23 730.327 991.049 726.082L989.475 725.61C981.711 723.252 972.949 718.168 967.388 714.133C961.671 710.045 957.158 705.171 953.958 699.615C950.758 694.112 949.132 688.033 949.132 681.534C949.132 673.883 951.755 667.383 956.949 662.247C962.143 657.112 968.805 654.491 976.831 654.491C980.189 654.491 983.337 654.91 986.222 655.801C991.102 657.269 995.351 659.941 998.918 663.872C1000.6 665.55 1001.91 667.226 1002.8 668.904C1003.74 670.58 1004.58 672.624 1005.27 675.036C1006 677.603 1006.58 680.538 1006.89 683.735C1007.99 695.37 1015.34 714.814 1035.8 713.923C1052.37 713.189 1060.09 701.293 1060.09 676.45V616.389L1059.36 616.965C1050.07 624.46 1040.68 629.963 1031.39 633.37C1022.11 636.776 1012.45 638.454 1002.7 638.454C991.94 638.454 981.763 636.305 972.477 632.112C963.244 627.867 955.165 621.944 948.449 614.45C941.787 606.956 936.489 597.836 932.764 587.354C929.039 576.82 927.15 565.237 927.15 552.921C927.15 537.932 929.878 523.729 935.282 510.836C940.686 497.891 948.345 486.571 957.998 477.137C967.651 467.703 979.14 460.261 992.151 454.915C1005.16 449.569 1019.64 446.897 1035.06 446.897C1038.37 446.897 1041.73 447.001 1044.98 447.263C1047.65 447.473 1050.59 447.788 1053.95 448.207C1054.43 448.259 1058.14 448.836 1059.51 449.045C1061.71 449.464 1063.55 449.884 1065.23 450.355C1068.22 451.194 1077.09 454.077 1078.13 454.443C1089.93 458.27 1100.37 456.959 1109.19 450.617C1111.14 449.255 1114.44 447.473 1119.26 446.949H1122.68V647.415L1122.78 647.467ZM1060.09 585.729V494.013C1060.09 481.749 1058.2 472.944 1054.53 467.808C1050.8 462.62 1044.56 459.999 1035.85 459.999C1013.87 459.999 990.157 484.422 990.157 538.037C990.157 570.688 1002.28 605.592 1036.22 605.592C1040.68 605.592 1044.66 604.964 1048.03 603.706H1048.18C1055.26 600.981 1060.04 593.8 1060.04 585.729H1060.09ZM1136.05 391.971L1133.12 390.399L1136.05 388.826C1152.73 379.917 1166.38 366.605 1175.51 350.306L1177.13 347.371L1178.75 350.306C1187.83 366.553 1201.53 379.917 1218.21 388.826L1221.19 390.399L1218.21 391.971C1201.53 400.881 1187.88 414.193 1178.75 430.492L1177.13 433.427L1175.51 430.492C1166.38 414.193 1152.68 400.881 1136.05 391.971ZM1148.7 590.656V526.454L1148.65 512.513C1148.65 501.56 1148.12 493.331 1147.01 488.09C1145.91 482.797 1144.03 478.133 1141.35 474.202C1141.14 473.888 1140.93 473.677 1140.67 473.416C1140.51 473.259 1140.41 473.101 1140.3 472.997C1138.94 471.319 1137.63 470.009 1136.26 468.909L1136.94 468.699C1141.61 467.126 1146.49 465.712 1151.74 464.348H1151.84C1155.78 463.353 1160.29 462.095 1165.22 460.68C1170.26 459.213 1174.67 457.955 1178.39 456.854C1182.11 455.753 1185.68 454.705 1189.04 453.762C1192.55 452.766 1196.02 451.718 1199.32 450.67C1202.68 449.621 1206.67 448.259 1211.18 446.687V590.708C1211.18 601.662 1211.71 609.89 1212.81 615.131C1213.91 620.425 1215.79 625.089 1218.47 629.02C1219.88 630.959 1221.47 632.636 1223.19 634.051H1136.63C1138.42 632.636 1139.99 630.906 1141.35 629.02C1144.03 625.089 1145.91 620.425 1147.01 615.131C1148.12 609.837 1148.65 601.662 1148.65 590.708L1148.7 590.656ZM1411.06 563.089H1414.2C1412.32 571.841 1409.27 580.279 1405.12 588.088C1404.97 588.402 1404.76 588.716 1404.6 589.031C1404.34 589.503 1404.08 589.922 1403.76 590.446C1399.14 598.622 1393.32 606.117 1386.45 612.668C1369.04 629.282 1346.37 638.506 1322.61 638.611H1320.4C1318.72 638.611 1317 638.506 1315 638.349C1313.69 638.243 1312.38 638.138 1311.07 637.981C1308.23 637.667 1305.88 637.301 1303.67 636.829C1303.4 636.829 1303.2 636.724 1302.93 636.671C1302.78 636.671 1302.57 636.567 1302.41 636.567C1270.3 629.596 1243.76 605.54 1233.11 573.832C1229.7 563.717 1228.02 553.287 1228.02 542.858C1228.02 489.977 1270.25 447.001 1322.19 447.001H1323.71C1361.69 447.63 1395.38 471.214 1409.53 507.01C1410.69 509.893 1411.69 512.828 1412.53 515.763C1412.95 518.017 1412.37 520.322 1410.9 522.105C1409.48 523.833 1407.39 524.829 1405.12 524.829H1294.96V525.249C1295.33 570.688 1315.68 593.748 1355.45 593.748C1368.09 593.748 1379.17 591.18 1388.23 586.097C1397 581.222 1403.4 574.776 1411.11 563.089H1411.06ZM1294.54 511.937V512.356H1321.98C1330.26 512.356 1338.03 508.583 1343.28 501.926C1348.47 495.375 1350.31 486.937 1348.37 478.918L1347.95 479.023L1348.32 478.709C1346.79 472.158 1344.17 467.284 1340.55 464.191C1336.93 461.099 1331.9 459.527 1325.59 459.527C1315.73 459.527 1308.02 464.139 1302.67 473.206C1297.32 482.22 1294.59 495.218 1294.59 511.884L1294.54 511.937ZM1575.94 572.994C1575.94 582.323 1573.9 591.075 1570.07 599.041C1566.13 607.113 1560.57 614.188 1553.6 620.005C1546.56 625.823 1538.07 630.435 1528.31 633.684C1518.5 636.933 1507.74 638.611 1496.31 638.611C1493 638.611 1489.65 638.506 1486.39 638.297C1483.19 638.086 1479.63 637.615 1475.8 636.933C1471.96 636.253 1467.71 635.414 1463.16 634.366C1458.59 633.317 1453.14 631.797 1446.94 629.858C1442.85 628.652 1439.54 627.657 1437.03 626.924C1434.35 626.137 1432.05 625.455 1429.99 624.722C1427.85 623.988 1425.74 623.254 1423.7 622.52C1421.66 621.787 1419.24 620.844 1416.57 619.691L1416.15 568.487C1422.86 571.788 1429.42 577.973 1436.98 585.101C1448.36 595.792 1461.21 607.899 1479.63 615.498C1486.92 618.486 1494.79 620.005 1503.07 620.005C1511.37 620.005 1517.61 618.171 1522.49 614.502C1527.42 610.833 1529.88 605.96 1529.88 600.037C1529.88 593.591 1527.05 587.564 1522.33 583.948C1517.24 580.017 1507.64 576.925 1495.68 573.308L1494.47 572.941C1447.84 558.791 1414.1 548.571 1414.1 507.587V506.801C1414.1 498.363 1416.1 490.396 1420.02 483.163C1423.96 475.931 1429.37 469.537 1436.18 464.244C1442.96 458.95 1451.14 454.705 1460.42 451.665C1469.76 448.625 1479.99 447.106 1490.96 447.106C1500.51 447.106 1510.32 447.84 1520.12 449.307C1530.51 450.828 1546.98 455.073 1559.11 458.584L1555.43 501.087C1546.72 493.908 1540.11 487.619 1534.81 482.535C1531.57 479.443 1528.99 476.979 1526.84 475.198C1521.07 470.376 1515.08 466.603 1509.11 463.929C1503.07 461.204 1497.2 459.841 1491.64 459.841C1484.87 459.841 1479 461.833 1474.28 465.816C1469.45 469.8 1467.03 474.673 1467.03 480.386C1467.03 492.755 1477.94 502.346 1499.4 508.897C1542.84 522.052 1576.05 535.154 1576 573.151L1575.94 572.994Z" fill="white"/>
</svg>
