<svg width="1854" height="2036" viewBox="0 0 1854 2036" fill="none" xmlns="http://www.w3.org/2000/svg">
<path d="M927.001 23.8705C1425.92 23.8705 1830.69 401.95 1830.69 868.99C1830.69 1336.03 1425.92 1714.11 927.001 1714.11C428.083 1714.11 23.3153 1336.03 23.3153 868.99C23.3153 401.95 428.083 23.8705 927.001 23.8705ZM927.001 0.88916C802.457 0.88916 680.878 23.8705 566.713 69.0918C456.254 112.83 357.657 175.103 272.403 254.425C187.15 334.489 120.43 427.156 73.726 530.201C24.798 637.694 0.333984 751.118 0.333984 868.99C0.333984 986.862 24.798 1100.29 73.726 1207.04C120.43 1310.08 187.15 1403.49 272.403 1482.81C357.657 1562.14 456.254 1625.15 566.713 1668.15C680.878 1713.37 801.715 1736.35 927.001 1736.35C1052.29 1736.35 1173.12 1713.37 1287.29 1668.15C1397.75 1624.41 1496.34 1562.14 1581.6 1482.81C1666.85 1403.49 1733.57 1310.08 1780.28 1207.04C1828.46 1099.55 1853.67 986.121 1853.67 868.99C1853.67 751.86 1829.2 637.694 1780.28 530.942C1733.57 427.897 1666.85 334.489 1581.6 255.166C1496.34 175.844 1397.75 112.83 1287.29 69.8332C1173.12 23.8705 1051.54 0.88916 927.001 0.88916Z" fill="white"/>
<path d="M656.411 1848.29L620.827 1896.48C604.518 1919.46 591.915 1931.32 582.278 1931.32C577.83 1931.32 574.123 1929.1 571.158 1923.91C568.193 1919.46 564.486 1912.05 561.521 1902.41C557.814 1892.77 555.59 1885.36 554.107 1880.17C551.142 1868.31 548.918 1861.64 548.177 1860.16L542.987 1888.33C541.505 1897.22 539.281 1905.38 537.798 1912.79C536.315 1920.2 534.091 1929.1 531.867 1940.22C529.643 1950.6 528.161 1958.75 528.161 1963.94C528.161 1965.43 526.678 1967.65 522.971 1969.87C520.006 1972.1 517.041 1972.84 515.558 1972.84C511.851 1972.84 508.886 1971.36 505.921 1968.39C502.955 1965.43 501.473 1962.46 501.473 1959.49C501.473 1952.82 502.955 1943.93 505.921 1933.55C517.782 1890.55 524.454 1863.12 525.937 1852C527.419 1840.88 528.161 1831.24 528.161 1823.83C528.161 1820.12 529.643 1817.16 533.35 1814.93C537.057 1812.71 540.763 1811.97 546.694 1811.97C549.659 1811.97 552.625 1814.19 555.59 1817.9C558.555 1821.61 560.779 1825.31 561.521 1828.28L576.347 1869.79C582.278 1886.1 585.985 1897.22 588.209 1901.67C595.622 1893.52 607.483 1878.69 622.31 1857.93C637.137 1837.17 647.515 1823.83 653.446 1817.9C659.377 1811.97 663.083 1809 665.307 1809C669.014 1809 672.721 1810.49 677.169 1813.45C681.617 1816.42 683.841 1818.64 683.841 1820.87C683.841 1822.35 682.358 1833.47 679.393 1853.48C677.169 1867.57 675.686 1883.14 674.203 1900.93C672.721 1918.72 671.979 1928.36 671.979 1932.07C671.979 1935.77 672.721 1940.22 673.462 1943.93C674.203 1946.89 674.203 1949.86 674.203 1952.82C674.203 1960.24 672.721 1964.68 670.497 1967.65C668.273 1969.87 664.566 1971.36 659.377 1971.36C649.739 1971.36 645.291 1964.68 645.291 1949.86C645.291 1936.51 646.774 1920.2 648.998 1900.93C651.222 1881.65 653.446 1866.83 655.67 1856.45C655.67 1852.74 656.411 1849.78 656.411 1848.29Z" fill="white"/>
<path d="M783.18 1930.58C764.647 1955.05 746.113 1967.65 728.321 1967.65C721.649 1967.65 716.46 1965.42 712.012 1960.23C707.564 1955.05 705.34 1948.37 705.34 1940.96C705.34 1921.68 713.495 1901.67 730.545 1880.17C747.596 1858.67 764.646 1848.29 781.697 1848.29C790.593 1848.29 795.783 1852.74 798.748 1861.64C806.903 1861.64 811.35 1864.6 811.35 1871.27C811.35 1874.24 810.609 1879.43 809.127 1887.58C806.161 1902.41 804.679 1914.27 804.679 1923.17C804.679 1932.06 805.42 1938.74 806.903 1942.44C808.385 1946.15 809.127 1948.37 809.868 1949.86C810.609 1951.34 812.092 1952.08 815.057 1953.56C818.022 1955.05 819.505 1956.53 819.505 1959.49C819.505 1963.2 818.023 1966.17 814.316 1968.39C810.609 1970.61 806.903 1972.1 802.455 1972.1C787.628 1971.35 781.697 1957.27 783.18 1930.58ZM776.508 1871.27C769.094 1871.27 760.199 1879.43 748.337 1895C736.476 1911.31 731.287 1924.65 731.287 1935.77C731.287 1941.7 732.769 1944.67 734.993 1944.67C743.148 1944.67 753.527 1937.25 766.129 1922.43C778.732 1907.6 784.663 1894.26 784.663 1883.14C784.663 1879.43 783.921 1876.46 782.439 1874.24C780.215 1872.02 778.732 1871.27 776.508 1871.27Z" fill="white"/>
<path d="M888.451 1939.48C888.451 1935.77 881.779 1930.58 869.917 1925.39C855.091 1917.98 845.453 1912.05 841.747 1906.86C838.04 1901.67 835.816 1896.48 835.816 1889.81C835.816 1877.21 843.23 1866.09 857.315 1856.45C871.4 1846.81 884.744 1842.36 897.347 1842.36C909.208 1842.36 915.139 1847.55 915.139 1857.93C915.139 1860.9 913.656 1863.12 910.691 1865.34C907.725 1867.57 905.501 1868.31 904.019 1868.31C903.277 1868.31 901.795 1867.57 899.571 1866.83C897.347 1866.09 895.864 1865.34 895.123 1865.34C888.451 1865.34 881.779 1867.57 874.365 1872.02C866.952 1876.47 863.245 1881.65 863.245 1886.84C863.245 1889.81 864.728 1892.03 866.952 1895C869.917 1897.96 875.107 1900.93 883.262 1904.64C895.864 1910.57 904.019 1915.76 907.725 1920.2C911.432 1924.65 913.656 1929.84 913.656 1935.77C913.656 1946.15 906.243 1955.05 892.157 1961.72C878.072 1968.39 862.504 1972.1 844.712 1972.1C832.109 1972.1 825.438 1967.65 825.438 1958.01C825.438 1954.3 826.92 1951.34 829.144 1949.12C832.109 1946.89 835.075 1945.41 838.04 1945.41C839.523 1945.41 841.747 1946.15 844.712 1946.89C847.677 1947.63 849.901 1948.37 852.867 1948.37C859.539 1948.37 866.952 1947.63 874.365 1945.41C881.037 1945.41 886.227 1942.44 888.451 1939.48Z" fill="white"/>
<path d="M981.117 1939.48C981.117 1935.77 974.445 1930.58 962.584 1925.39C947.757 1917.98 938.119 1912.05 934.413 1906.86C930.706 1901.67 928.482 1896.48 928.482 1889.81C928.482 1877.21 935.896 1866.09 949.981 1856.45C964.066 1846.81 977.41 1842.36 990.013 1842.36C1001.87 1842.36 1007.8 1847.55 1007.8 1857.93C1007.8 1860.9 1006.32 1863.12 1003.36 1865.34C1000.39 1867.57 998.167 1868.31 996.685 1868.31C995.943 1868.31 994.461 1867.57 992.237 1866.83C990.013 1866.09 988.53 1865.34 987.789 1865.34C981.117 1865.34 974.445 1867.57 967.031 1872.02C959.618 1876.47 955.911 1881.65 955.911 1886.84C955.911 1889.81 957.394 1892.03 959.618 1895C962.583 1897.96 967.773 1900.93 975.928 1904.64C988.53 1910.57 996.685 1915.76 1000.39 1920.2C1004.1 1924.65 1006.32 1929.84 1006.32 1935.77C1006.32 1946.15 998.909 1955.05 984.824 1961.72C970.738 1968.39 955.17 1972.1 937.378 1972.1C924.775 1972.1 918.104 1967.65 918.104 1958.01C918.104 1954.3 919.586 1951.34 921.81 1949.12C924.776 1946.89 927.741 1945.41 930.706 1945.41C932.189 1945.41 934.413 1946.15 937.378 1946.89C940.343 1947.63 942.567 1948.37 945.533 1948.37C952.205 1948.37 959.618 1947.63 967.031 1945.41C974.445 1945.41 978.893 1942.44 981.117 1939.48Z" fill="white"/>
<path d="M1097.51 1930.58C1078.97 1955.05 1060.44 1967.65 1042.65 1967.65C1035.98 1967.65 1030.79 1965.42 1026.34 1960.23C1021.89 1955.05 1019.67 1948.37 1019.67 1940.96C1019.67 1921.68 1027.82 1901.67 1044.87 1880.17C1061.92 1858.67 1078.97 1848.29 1096.03 1848.29C1104.92 1848.29 1110.11 1852.74 1113.08 1861.64C1121.23 1861.64 1125.68 1864.6 1125.68 1871.27C1125.68 1874.24 1124.94 1879.43 1123.45 1887.58C1120.49 1902.41 1119.01 1914.27 1119.01 1923.17C1119.01 1932.06 1119.75 1938.74 1121.23 1942.44C1122.71 1946.15 1123.45 1948.37 1124.2 1949.86C1124.94 1951.34 1126.42 1952.08 1129.39 1953.56C1132.35 1955.05 1133.83 1956.53 1133.83 1959.49C1133.83 1963.2 1132.35 1966.17 1128.64 1968.39C1124.94 1970.61 1121.23 1972.1 1116.78 1972.1C1101.96 1971.35 1096.03 1957.27 1097.51 1930.58ZM1090.84 1871.27C1083.42 1871.27 1074.53 1879.43 1062.67 1895C1050.8 1910.56 1045.61 1924.65 1045.61 1935.77C1045.61 1941.7 1047.1 1944.67 1049.32 1944.67C1057.48 1944.67 1067.85 1937.25 1080.46 1922.43C1093.06 1907.6 1098.99 1894.26 1098.99 1883.14C1098.99 1879.43 1098.25 1876.46 1096.77 1874.24C1094.54 1872.02 1093.06 1871.27 1090.84 1871.27Z" fill="white"/>
<path d="M1225.76 1933.55C1217.6 1942.44 1208.71 1949.86 1198.33 1955.79C1187.95 1961.72 1178.31 1964.68 1170.9 1964.68C1163.49 1964.68 1157.55 1962.46 1153.11 1958.01C1148.66 1953.56 1147.18 1947.63 1147.18 1939.48C1147.18 1928.36 1151.62 1915.75 1159.78 1902.41C1167.93 1889.07 1179.79 1877.21 1194.62 1866.83C1209.45 1856.45 1222.79 1852 1234.65 1852C1241.33 1852 1247.26 1853.48 1251.7 1857.19C1253.19 1857.93 1253.93 1858.67 1254.67 1859.41C1256.15 1860.9 1257.63 1863.12 1259.12 1866.09C1260.6 1869.05 1261.34 1872.02 1261.34 1874.24C1261.34 1875.72 1259.86 1880.17 1257.63 1887.58C1254.67 1895 1253.19 1902.41 1251.7 1909.82C1250.96 1917.24 1248.74 1935.03 1245.03 1963.94C1242.07 1989.15 1235.39 2006.94 1224.27 2018.8C1213.15 2030.66 1201.29 2035.85 1187.95 2035.85C1173.86 2035.85 1160.52 2031.4 1147.18 2021.77C1133.83 2012.13 1127.16 2004.71 1127.16 1998.04C1127.16 1992.85 1130.13 1989.89 1135.31 1989.89C1137.54 1989.89 1141.25 1992.11 1147.92 1995.82C1164.23 2006.2 1178.31 2012.13 1190.17 2012.13C1199.07 2012.13 1206.48 2006.2 1212.41 1995.82C1217.6 1983.96 1222.05 1963.2 1225.76 1933.55ZM1227.98 1874.24C1222.79 1874.24 1216.12 1877.21 1207.22 1883.88C1198.33 1890.55 1190.91 1898.7 1183.5 1909.82C1176.09 1920.2 1172.38 1929.1 1172.38 1936.51C1172.38 1940.22 1173.86 1942.44 1176.09 1942.44C1184.98 1942.44 1194.62 1938.74 1203.52 1931.32C1212.41 1923.91 1219.83 1915.01 1225.76 1905.38C1231.69 1895.74 1233.91 1888.33 1233.91 1883.14C1233.91 1880.91 1233.17 1878.69 1231.69 1877.21C1231.69 1874.98 1230.21 1874.24 1227.98 1874.24Z" fill="white"/>
<path d="M1374.02 1929.84C1374.02 1937.25 1368.09 1946.15 1355.49 1956.53C1342.88 1966.91 1328.8 1972.09 1313.23 1972.09C1301.37 1972.09 1291.73 1968.39 1285.06 1960.97C1278.39 1953.56 1274.68 1942.44 1274.68 1929.1C1274.68 1909.08 1282.1 1890.55 1296.18 1872.76C1310.27 1854.96 1325.83 1846.81 1341.4 1846.81C1349.56 1846.81 1355.49 1849.03 1360.68 1854.22C1365.87 1859.41 1368.09 1865.34 1368.09 1872.01C1368.09 1884.62 1362.16 1896.48 1350.3 1907.6C1338.44 1918.72 1322.87 1926.87 1304.33 1930.58C1302.11 1931.32 1301.37 1932.06 1301.37 1934.29C1301.37 1937.99 1302.85 1940.96 1305.82 1943.92C1308.78 1946.89 1313.23 1948.37 1317.68 1948.37C1331.76 1948.37 1346.59 1940.96 1360.68 1926.13C1363.64 1923.17 1365.87 1921.68 1368.83 1921.68C1371.8 1922.43 1374.02 1924.65 1374.02 1929.84ZM1302.11 1910.56C1313.23 1908.34 1323.61 1903.15 1331.76 1895.74C1339.92 1888.32 1344.37 1881.65 1344.37 1875.72C1344.37 1873.5 1343.63 1871.27 1342.14 1869.79C1340.66 1868.31 1339.18 1867.57 1336.95 1867.57C1331.02 1867.57 1323.61 1872.01 1316.2 1881.65C1308.78 1891.29 1304.34 1900.19 1302.11 1910.56Z" fill="white"/>
<path d="M1554.91 879.369C1546.01 879.369 1534.89 887.523 1521.55 904.574C1507.46 921.625 1500.79 934.969 1500.79 944.606C1500.79 946.83 1502.27 949.054 1504.5 951.278C1506.72 953.502 1509.69 954.243 1513.39 954.243C1522.29 954.243 1532.67 946.83 1544.53 932.745C1556.39 918.659 1562.32 905.315 1562.32 891.971C1562.32 887.523 1561.58 884.558 1560.1 882.334C1557.87 880.11 1556.39 879.369 1554.91 879.369Z" fill="white"/>
<path d="M1540.82 290.012C1294.7 73.5423 1152.36 89.1103 1152.36 89.1103C1484.48 243.308 1381.44 611.009 1167.93 676.246C954.428 741.484 806.162 606.561 827.66 442.726C848.418 287.046 1108.63 264.806 1133.09 446.433C1156.81 627.318 980.375 625.094 980.375 625.094C1252.44 692.556 1463.72 264.065 1115.3 110.609C760.199 -46.5537 434.012 330.785 579.314 622.87C740.924 948.316 1298.41 815.617 1331.03 1284.88C1344.37 1479.11 1193.14 1630.34 1012.25 1660C1007.06 1661.48 1004.1 1662.22 1004.1 1662.22C1677.97 1669.63 2092.38 774.102 1540.82 290.012ZM1223.53 890.492L1222.79 892.716C1219.08 906.06 1216.86 917.18 1216.12 926.076C1215.38 934.972 1214.64 941.644 1214.64 946.833C1214.64 951.281 1215.38 957.212 1216.86 963.884C1216.86 965.366 1216.86 966.108 1216.86 966.849C1216.86 968.332 1215.38 970.556 1212.41 973.521C1209.45 976.486 1205.74 977.969 1202.77 977.969C1193.14 977.969 1188.69 970.556 1188.69 956.47C1188.69 944.609 1190.17 929.782 1193.88 912.732C1194.62 909.025 1195.36 905.318 1196.1 901.612C1198.33 889.009 1199.81 881.596 1199.81 879.372C1199.81 874.182 1201.29 869.734 1203.52 866.028C1205.74 862.321 1208.71 860.838 1213.15 860.838C1217.6 860.838 1222.05 862.321 1224.27 864.545C1227.24 866.769 1227.98 868.993 1227.98 871.958C1227.24 875.665 1225.76 881.596 1223.53 890.492ZM1239.84 828.22C1235.39 831.926 1231.69 834.15 1227.98 834.15C1223.53 834.15 1219.83 832.668 1216.86 828.961C1213.9 825.254 1211.67 821.548 1211.67 818.582C1211.67 813.393 1213.15 809.686 1216.86 805.98C1219.83 803.014 1225.01 801.532 1230.95 801.532C1235.39 801.532 1239.84 803.014 1242.81 805.98C1245.77 808.945 1247.25 811.91 1247.25 815.617C1246.51 820.065 1244.29 824.513 1239.84 828.22ZM1445.93 966.849C1442.23 969.814 1437.78 971.297 1433.33 971.297C1425.92 971.297 1420.73 967.59 1416.28 960.918C1412.57 953.505 1409.61 939.42 1408.12 917.921C1407.38 907.542 1406.64 900.87 1405.9 897.164C1405.16 893.457 1403.68 891.974 1402.19 891.974C1400.71 891.974 1398.49 894.198 1395.52 899.388C1392.56 904.577 1387.37 914.214 1379.95 929.782C1373.28 943.126 1368.09 952.764 1363.64 957.953C1359.2 963.142 1354.01 966.108 1348.82 966.108C1344.37 966.108 1340.66 964.625 1336.21 960.918C1331.77 957.212 1329.54 944.609 1329.54 922.369C1329.54 902.353 1328.06 892.716 1325.84 892.716C1322.87 892.716 1315.46 901.612 1304.34 919.404C1293.22 937.196 1284.32 952.764 1278.39 966.849C1277.65 974.262 1273.2 977.969 1266.53 977.969C1256.89 977.969 1252.44 971.297 1252.44 957.953C1252.44 936.454 1253.93 917.921 1256.15 902.353C1257.63 890.492 1259.12 878.63 1259.12 866.769C1259.12 863.804 1259.86 861.58 1262.08 860.097C1263.56 857.873 1266.53 857.132 1269.49 857.132C1279.87 857.132 1285.06 863.804 1285.06 876.406C1285.06 880.854 1282.84 891.233 1279.13 908.284C1276.91 918.662 1275.43 926.076 1275.43 930.524C1295.44 886.044 1313.97 863.804 1330.28 863.804C1336.96 863.804 1342.15 866.769 1345.85 871.958C1349.56 877.148 1351.78 889.009 1351.78 906.801C1351.78 923.11 1352.52 931.265 1354.01 931.265C1355.49 931.265 1359.94 923.11 1367.35 907.542C1375.51 889.75 1382.92 878.63 1388.85 872.7C1394.78 866.769 1401.45 864.545 1407.38 864.545C1415.54 864.545 1420.73 868.252 1424.43 874.924C1428.14 881.596 1430.36 893.457 1431.85 909.025C1432.59 921.628 1434.07 931.265 1436.29 937.937C1437.78 944.609 1441.48 949.057 1445.93 950.54C1449.64 952.022 1451.12 954.988 1451.12 957.953C1452.6 960.918 1450.38 963.884 1445.93 966.849ZM1560.84 947.574C1543.05 966.108 1525.25 975.745 1508.2 975.745C1500.05 975.745 1494.86 972.78 1492.64 966.108C1491.15 971.297 1490.41 978.71 1488.93 988.348L1483.74 1029.86C1483 1036.53 1481.52 1041.72 1478.55 1043.95C1476.33 1046.91 1473.36 1047.65 1469.65 1047.65C1466.69 1047.65 1463.72 1046.17 1460.76 1043.95C1457.79 1041.72 1456.31 1038.76 1456.31 1035.79C1456.31 1029.86 1457.05 1023.19 1459.28 1015.78C1469.65 973.521 1475.59 929.782 1476.33 884.561V882.337C1476.33 872.7 1476.33 866.769 1477.07 863.062C1477.81 860.097 1479.29 857.132 1481.52 854.908C1483.74 852.684 1487.45 851.201 1491.89 851.201C1499.31 851.201 1503.76 857.132 1503.76 868.993C1503.76 873.441 1503.01 882.337 1500.79 893.457L1500.05 900.87C1508.2 887.526 1517.84 876.406 1528.96 867.51C1540.08 858.614 1549.72 854.166 1558.61 854.166C1566.77 854.166 1573.44 857.132 1578.63 862.321C1584.56 868.252 1586.79 874.924 1586.79 883.82C1587.53 907.542 1578.63 928.3 1560.84 947.574ZM1648.32 851.201C1644.61 863.804 1642.39 877.889 1640.16 892.716C1638.68 907.542 1637.2 919.404 1637.2 927.558C1637.2 936.454 1637.94 947.574 1639.42 959.436C1639.42 962.401 1640.16 964.625 1640.16 965.366C1640.16 969.814 1638.68 973.521 1635.71 976.486C1632.75 979.452 1629.04 980.934 1625.33 980.934C1620.15 980.934 1616.44 978.71 1614.96 973.521C1612.73 969.073 1611.99 960.918 1611.99 949.057C1611.99 923.852 1614.96 894.94 1620.89 860.838C1626.82 827.478 1631.27 807.462 1634.97 800.79C1638.68 794.86 1643.13 791.894 1647.57 791.894C1654.99 791.894 1658.69 796.342 1658.69 804.497C1658.69 808.204 1657.95 812.652 1657.21 817.1C1655.73 822.289 1652.76 833.409 1648.32 851.201ZM1766.93 960.918C1763.96 977.228 1759.52 992.054 1754.33 1004.66C1748.4 1018 1742.47 1026.9 1736.54 1031.34C1729.86 1035.79 1722.45 1038.76 1713.55 1038.76C1703.92 1038.76 1695.02 1037.28 1686.12 1033.57C1678.71 1030.6 1672.04 1026.16 1666.85 1020.97C1661.66 1015.78 1658.69 1011.33 1658.69 1007.62C1658.69 1004.66 1659.44 1001.69 1660.92 999.468C1662.4 997.244 1664.63 996.502 1667.59 996.502C1669.81 996.502 1672.04 997.244 1673.52 999.468C1682.42 1011.33 1695.76 1017.26 1712.81 1017.26C1719.48 1017.26 1726.9 1009.85 1732.83 995.02C1739.5 980.193 1743.21 962.401 1745.43 942.385C1723.19 959.436 1706.88 968.332 1695.02 968.332C1687.61 968.332 1681.68 965.366 1676.49 959.436C1672.04 953.505 1669.81 946.092 1669.81 937.196C1669.81 928.3 1672.04 916.438 1675.75 900.129C1679.45 883.82 1683.16 873.441 1686.12 869.734C1689.09 866.028 1693.54 863.804 1699.47 863.804C1703.17 863.804 1705.4 865.286 1707.62 868.252C1709.11 871.217 1710.59 874.182 1710.59 877.889C1710.59 878.63 1708.36 885.302 1703.17 895.681C1697.24 909.025 1693.54 920.145 1693.54 929.782C1693.54 934.972 1694.28 938.678 1695.76 940.902C1697.24 943.126 1698.73 944.609 1700.21 944.609C1703.92 944.609 1707.62 943.868 1712.81 941.644C1718 939.42 1723.19 935.713 1729.86 931.265C1736.53 926.076 1740.98 922.369 1742.47 919.404C1744.69 916.438 1746.17 913.473 1746.91 909.025C1748.4 904.577 1749.14 895.681 1749.88 881.596C1749.88 873.441 1750.62 868.252 1751.36 866.028C1752.1 863.804 1752.84 862.321 1755.07 860.097C1757.29 858.614 1759.52 857.132 1763.22 857.132C1767.67 857.132 1771.38 857.873 1772.86 860.097C1775.08 862.321 1775.83 866.769 1775.83 874.182L1773.6 909.025C1771.38 927.558 1769.15 944.609 1766.93 960.918Z" fill="white"/>
<path d="M956.652 1149.22C956.652 1149.22 952.204 1146.25 949.98 1144.77C944.05 1141.07 938.119 1138.1 932.188 1135.88C901.052 1122.53 867.692 1115.12 832.108 1115.12C688.29 1115.12 571.9 1236.7 571.9 1387.19C571.9 1537.68 688.29 1659.26 832.108 1659.26C843.97 1659.26 855.09 1658.52 866.21 1657.03C737.218 1653.33 633.431 1543.61 633.431 1407.2C633.431 1291.56 709.047 1193.7 811.351 1165.53C791.335 1187.03 778.732 1216.68 778.732 1249.3C778.732 1315.28 829.884 1369.4 893.639 1369.4C957.394 1369.4 1008.55 1316.02 1008.55 1249.3C1007.8 1207.04 987.047 1170.72 956.652 1149.22Z" fill="white"/>
</svg>
