<svg width="6044" height="1234" viewBox="0 0 6044 1234" fill="none" xmlns="http://www.w3.org/2000/svg">
<g clip-path="url(#clip0_1909_1502)">
<path d="M1769.15 703.705H1467.57V136.109H1569.68V609.658H1769.15V703.705ZM2082.98 673.749C2069.44 685.702 2051.15 695.352 2027.82 702.985C2004.63 710.619 1980.29 714.363 1954.8 714.363C1926.71 714.363 1902.52 709.466 1882.21 699.817C1861.9 690.023 1845.34 676.053 1832.38 657.618C1819.42 639.327 1809.77 617.003 1803.57 590.791C1797.38 564.579 1794.21 534.766 1794.21 501.209C1794.21 428.189 1808.62 374.324 1837.56 339.47C1866.51 304.617 1906.55 287.19 1957.97 287.19C1975.25 287.19 1991.96 289.782 2008.23 294.823C2024.51 300.008 2038.91 308.649 2051.58 320.747C2064.26 332.845 2074.63 349.12 2082.4 369.427C2090.18 389.734 2094.21 415.227 2094.21 446.048C2094.21 458.002 2093.49 470.676 2092.2 484.214C2090.9 497.752 2088.74 512.298 2086.15 527.997H1889.12C1890.28 561.554 1897.19 587.19 1910.15 605.049C1923.11 622.908 1944 631.838 1972.51 631.838C1989.8 631.838 2005.64 629.101 2019.9 623.772C2034.16 618.444 2045.1 612.683 2052.74 606.778L2082.98 673.749ZM1956.53 369.571C1935.93 369.571 1920.52 377.78 1910.3 394.343C1900.07 410.906 1894.02 433.95 1892.44 463.618H2004.34C2005.93 432.797 2002.76 409.466 1994.55 393.479C1986.48 377.636 1973.81 369.571 1956.53 369.571ZM2177.89 136.109C2187.69 134.525 2198.63 133.229 2210.73 132.509C2222.83 131.789 2235.36 130.924 2248.03 130.06C2260.71 129.196 2273.09 128.764 2284.9 128.476C2296.85 128.188 2307.37 128.044 2316.59 128.044C2361.38 128.044 2398.82 134.957 2428.92 148.783C2459.03 162.61 2482.93 182.053 2501.08 207.113C2519.23 232.317 2532.05 262.418 2539.53 297.559C2547.02 332.701 2550.91 371.876 2550.91 415.083C2550.91 454.545 2547.31 492.279 2539.97 528.141C2532.62 564.147 2519.8 595.688 2501.51 623.052C2483.08 650.417 2458.31 672.164 2426.91 688.295C2395.51 704.426 2356.05 712.635 2308.52 712.635C2301.46 712.635 2291.96 712.347 2280.15 711.771C2268.19 711.195 2255.81 710.619 2242.85 709.754C2229.88 708.89 2217.5 708.17 2205.54 707.306C2193.59 706.442 2184.52 705.578 2178.04 704.426V136.109H2177.89ZM2326.96 222.091C2318.31 222.091 2309.53 222.235 2300.6 222.523C2291.67 222.811 2284.76 223.531 2279.86 224.54V615.275C2281.44 615.851 2284.32 616.283 2288.36 616.427C2292.39 616.715 2296.71 617.003 2301.32 617.291C2305.93 617.579 2310.25 617.867 2314.28 618.155C2318.31 618.444 2321.19 618.588 2322.78 618.588C2347.12 618.588 2367.14 612.971 2382.84 601.593C2398.54 590.215 2410.78 575.092 2419.71 556.225C2428.64 537.358 2434.83 515.611 2438.29 490.983C2441.74 466.355 2443.61 440.575 2443.61 413.498C2443.61 388.582 2442.17 364.53 2439.15 341.343C2436.13 318.155 2430.51 297.703 2422.16 280.133C2413.8 262.562 2401.85 248.447 2386.44 237.934C2371.17 227.276 2351.3 222.091 2326.96 222.091ZM2904.35 673.749C2890.81 685.702 2872.52 695.352 2849.18 702.985C2826 710.619 2801.66 714.363 2776.16 714.363C2748.08 714.363 2723.88 709.466 2703.58 699.817C2683.27 690.023 2666.71 676.053 2653.74 657.618C2640.78 639.327 2631.13 617.003 2624.94 590.791C2618.75 564.579 2615.58 534.766 2615.58 501.209C2615.58 428.189 2629.98 374.324 2658.93 339.47C2687.88 304.617 2727.92 287.19 2779.33 287.19C2796.62 287.19 2813.32 289.782 2829.6 294.823C2845.87 300.008 2860.27 308.649 2872.95 320.747C2885.62 332.845 2895.99 349.12 2903.77 369.427C2911.55 389.734 2915.58 415.227 2915.58 446.048C2915.58 458.002 2914.86 470.676 2913.56 484.214C2912.27 497.752 2910.11 512.298 2907.51 527.997H2710.49C2711.64 561.554 2718.56 587.19 2731.52 605.049C2744.48 622.908 2765.36 631.838 2793.88 631.838C2811.16 631.838 2827.01 629.101 2841.26 623.772C2855.52 618.444 2866.47 612.683 2874.1 606.778L2904.35 673.749ZM2777.89 369.571C2757.3 369.571 2741.89 377.78 2731.66 394.343C2721.44 410.906 2715.39 433.95 2713.8 463.618H2825.71C2827.29 432.797 2824.12 409.466 2815.92 393.479C2807.85 377.636 2795.18 369.571 2777.89 369.571ZM3188.94 393.911C3175.97 389.014 3164.02 386.566 3153.22 386.566C3138.67 386.566 3126 390.599 3115.48 398.664C3104.97 406.729 3097.77 418.107 3094.02 432.653V703.417H2997.53V298.28H3071.27L3082.65 346.959H3085.96C3093.02 329.101 3103.1 315.274 3116.35 305.193C3129.6 295.255 3144.86 290.214 3162.15 290.214C3175.11 290.214 3187.78 292.951 3200.31 298.28L3188.94 393.911ZM3253.03 183.925C3253.03 167.65 3258.21 154.256 3268.44 143.742C3278.66 133.229 3293.35 127.9 3312.22 127.9C3331.09 127.9 3346.21 133.085 3357.59 143.31C3368.97 153.536 3374.58 167.074 3374.58 183.781C3374.58 200.488 3368.97 213.738 3357.59 223.531C3346.21 233.325 3331.09 238.078 3312.22 238.078C3293.35 238.078 3278.66 233.037 3268.44 223.099C3258.07 213.306 3253.03 200.2 3253.03 183.925ZM3263.54 298.28H3360.04V703.705H3263.54V298.28ZM3697.34 681.814C3683.8 692.616 3667.67 700.681 3648.66 706.154C3629.79 711.627 3610.78 714.219 3591.91 714.219C3564.4 714.219 3541.22 709.178 3522.64 699.241C3504.06 689.303 3488.65 674.901 3476.84 656.322C3464.88 637.743 3456.39 615.275 3451.35 589.063C3446.16 562.851 3443.57 533.47 3443.57 501.065C3443.57 430.205 3456.24 377.06 3481.74 341.343C3507.08 305.625 3544.39 287.766 3593.64 287.766C3617.98 287.766 3637.86 289.926 3653.27 294.247C3668.68 298.568 3682.36 304.04 3694.17 310.522L3671.41 390.743C3661.62 385.846 3652.4 382.245 3643.47 379.797C3634.54 377.348 3623.89 376.196 3611.5 376.196C3588.74 376.196 3571.75 386.134 3560.37 405.865C3548.99 425.596 3543.38 457.281 3543.38 501.209C3543.38 537.934 3549.14 568.035 3560.8 591.223C3572.47 614.411 3590.9 626.077 3616.4 626.077C3629.94 626.077 3641.46 624.348 3650.82 620.748C3660.32 617.291 3669.11 612.827 3677.17 607.354L3697.34 681.814ZM3881.4 535.918H3858.64V703.705H3762.15V136.109H3858.64V470.964L3878.09 459.586L3945.35 298.28H4049.91L3975.3 458.866L3940.45 486.374L3978.62 513.883L4061.29 703.561H3952.69L3881.4 535.918ZM4541.46 463.762H4386.63V703.705H4284.52V136.109H4386.63V369.571H4541.46V136.109H4643.57V703.705H4541.46V463.762ZM4720.62 501.065C4720.62 429.197 4734.74 375.62 4762.82 340.478C4790.91 305.337 4830.08 287.766 4880.35 287.766C4934.36 287.766 4974.68 305.625 5001.18 341.343C5027.68 377.06 5040.93 430.205 5040.93 501.065C5040.93 573.508 5026.82 627.085 4998.73 661.939C4970.65 696.792 4931.19 714.219 4880.35 714.219C4773.77 714.219 4720.62 643.216 4720.62 501.065ZM4820.29 501.065C4820.29 541.535 4824.9 572.932 4834.11 595.112C4843.33 617.291 4858.74 628.381 4880.35 628.381C4900.94 628.381 4916.21 618.732 4926.15 599.577C4936.08 580.421 4941.12 547.584 4941.12 501.065C4941.12 459.442 4936.52 427.757 4927.3 406.153C4918.08 384.55 4902.38 373.748 4880.2 373.748C4861.34 373.748 4846.5 383.397 4835.99 402.553C4825.62 421.708 4820.29 454.545 4820.29 501.065ZM5307.66 393.911C5294.7 389.014 5282.75 386.566 5271.95 386.566C5257.4 386.566 5244.73 390.599 5234.21 398.664C5223.7 406.729 5216.5 418.107 5212.75 432.653V703.417H5116.26V298.28H5190L5201.37 346.959H5204.69C5211.74 329.101 5221.83 315.274 5235.08 305.193C5248.33 295.255 5263.59 290.214 5280.88 290.214C5293.84 290.214 5306.51 292.951 5319.04 298.28L5307.66 393.911ZM5575.26 703.705V457.281C5575.26 427.613 5571.8 406.729 5564.75 394.919C5557.69 382.965 5545.88 377.06 5529.03 377.06C5514.91 377.06 5502.82 381.381 5492.59 390.022C5482.36 398.664 5475.02 409.466 5470.7 422.428V703.849H5374.2V298.28H5451.25L5462.63 345.375H5465.08C5474.87 329.677 5487.98 316.283 5504.83 305.193C5521.54 294.103 5543.43 288.63 5570.51 288.63C5586.78 288.63 5601.18 291.078 5613.86 295.975C5626.53 300.872 5637.19 308.793 5645.83 319.883C5654.47 330.973 5660.95 345.807 5665.27 364.53C5669.59 383.109 5671.75 406.297 5671.75 433.806V703.849H5575.26V703.705ZM6032.53 673.749C6019 685.702 6000.7 695.352 5977.37 702.985C5954.18 710.619 5929.84 714.363 5904.35 714.363C5876.27 714.363 5852.07 709.466 5831.76 699.817C5811.46 690.023 5794.89 676.053 5781.93 657.618C5768.97 639.327 5759.32 617.003 5753.13 590.791C5746.94 564.579 5743.77 534.766 5743.77 501.209C5743.77 428.189 5758.17 374.324 5787.12 339.47C5816.07 304.617 5856.1 287.19 5907.52 287.19C5924.8 287.19 5941.51 289.782 5957.79 294.823C5974.06 300.008 5988.46 308.649 6001.14 320.747C6013.81 332.845 6024.18 349.12 6031.96 369.427C6039.73 389.734 6043.77 415.227 6043.77 446.048C6043.77 458.002 6043.05 470.676 6041.75 484.214C6040.45 497.752 6038.29 512.298 6035.7 527.997H5838.68C5839.83 561.554 5846.74 587.19 5859.71 605.049C5872.67 622.908 5893.55 631.838 5922.07 631.838C5939.35 631.838 5955.19 629.101 5969.45 623.772C5983.71 618.444 5994.66 612.683 6002.29 606.778L6032.53 673.749ZM5906.08 369.571C5885.49 369.571 5870.08 377.78 5859.85 394.343C5849.62 410.906 5843.57 433.95 5841.99 463.618H5953.9C5955.48 432.797 5952.31 409.466 5944.1 393.479C5936.04 377.636 5923.36 369.571 5906.08 369.571Z" fill="#332F2E"/>
<path d="M1466.7 976.483C1473.32 974.899 1480.38 973.891 1488.01 973.315C1495.64 972.739 1503.13 972.595 1510.62 972.595C1518.54 972.595 1526.61 973.315 1534.82 974.899C1543.03 976.483 1550.52 979.364 1557.29 983.396C1564.06 987.573 1569.53 993.19 1573.7 1000.54C1577.88 1007.88 1580.04 1017.1 1580.04 1028.33C1580.04 1039.42 1578.03 1048.78 1574.14 1056.27C1570.1 1063.91 1564.92 1070.1 1558.29 1074.85C1551.67 1079.6 1544.18 1083.06 1535.68 1085.08C1527.19 1087.09 1518.54 1088.25 1509.47 1088.25H1505.15C1503.13 1088.25 1501.12 1088.25 1498.96 1088.1C1496.8 1087.96 1494.64 1087.81 1492.62 1087.67C1490.6 1087.53 1489.02 1087.38 1488.15 1087.09V1156.08H1466.7V976.483ZM1511.05 991.174C1506.59 991.174 1502.27 991.318 1498.09 991.462C1493.92 991.606 1490.6 992.038 1488.3 992.758V1067.94C1489.16 1068.23 1490.6 1068.51 1492.48 1068.51C1494.35 1068.66 1496.36 1068.66 1498.38 1068.8C1500.4 1068.95 1502.41 1068.95 1504.29 1068.95H1508.46C1514.37 1068.95 1520.13 1068.37 1525.89 1067.22C1531.65 1066.07 1536.98 1064.05 1541.59 1061.17C1546.2 1058.29 1549.94 1054.11 1552.82 1048.78C1555.7 1043.45 1557.14 1036.54 1557.14 1028.33C1557.14 1021.27 1555.85 1015.37 1553.11 1010.62C1550.37 1005.86 1546.92 1002.12 1542.45 999.239C1537.99 996.358 1533.09 994.342 1527.47 993.19C1521.86 992.038 1516.53 991.174 1511.05 991.174ZM1643.7 1065.35C1643.7 1035.1 1650.04 1011.91 1662.86 995.782C1675.67 979.652 1693.82 971.586 1717.58 971.586C1730.4 971.586 1741.49 973.891 1750.71 978.356C1760.07 982.82 1767.7 989.157 1773.9 997.367C1780.09 1005.58 1784.55 1015.37 1787.58 1026.89C1790.6 1038.41 1792.04 1051.23 1792.04 1065.35C1792.04 1095.59 1785.56 1118.78 1772.74 1134.91C1759.93 1151.04 1741.49 1159.1 1717.58 1159.1C1704.91 1159.1 1694.11 1156.8 1684.75 1152.34C1675.53 1147.87 1667.75 1141.53 1661.7 1133.32C1655.51 1125.12 1651.05 1115.32 1648.16 1103.8C1645.14 1092.42 1643.7 1079.6 1643.7 1065.35ZM1666.46 1065.35C1666.46 1075.43 1667.46 1084.93 1669.48 1093.86C1671.5 1102.79 1674.52 1110.71 1678.7 1117.63C1682.87 1124.4 1688.2 1129.87 1694.68 1133.9C1701.17 1137.93 1708.8 1139.95 1717.58 1139.95C1733.71 1139.95 1746.24 1133.9 1755.46 1121.66C1764.68 1109.42 1769.14 1090.69 1769.14 1065.2C1769.14 1055.41 1768.14 1045.9 1766.12 1036.83C1764.1 1027.76 1761.08 1019.83 1756.76 1012.92C1752.58 1006.15 1747.11 1000.68 1740.63 996.646C1734.15 992.614 1726.37 990.598 1717.44 990.598C1701.6 990.598 1689.07 996.647 1679.99 1008.89C1670.92 1021.13 1666.46 1040 1666.46 1065.35ZM1872.55 974.611H1971.35V993.766H1894.16V1053.1H1964.87V1072.26H1894.16V1136.78H1972.65V1155.94H1872.55V974.611ZM2172.84 993.91H2116.38V1156.22H2094.93V993.91H2038.47V974.755H2172.99V993.91H2172.84ZM2391.04 1086.52L2349.56 1145.71L2336.02 1134.76L2360.94 1097.32L2373.61 1086.66L2360.94 1077.3L2334.44 1040.86L2347.97 1029.77L2391.04 1086.52ZM2438.28 1086.52L2396.8 1146.29L2382.83 1135.05L2408.18 1097.32L2420.56 1086.66L2408.18 1077.3L2381.24 1040.57L2394.93 1029.2L2438.28 1086.52ZM2709.62 1109.99C2709.62 1102.79 2707.46 1096.74 2703.14 1092.28C2698.82 1087.67 2693.49 1083.64 2687.01 1080.04C2680.52 1076.44 2673.47 1073.12 2665.83 1070.1C2658.2 1066.93 2651.14 1063.19 2644.66 1058.86C2638.18 1054.4 2632.71 1049.07 2628.53 1042.59C2624.21 1036.11 2622.05 1027.9 2622.05 1017.82C2622.05 1003.7 2626.95 992.47 2636.89 984.117C2646.68 975.763 2660.79 971.73 2678.94 971.73C2689.45 971.73 2699.1 972.451 2707.74 974.035C2716.39 975.619 2723.16 977.635 2727.91 979.94L2721.43 999.095C2717.39 997.079 2711.63 995.206 2704 993.478C2696.37 991.75 2687.58 990.742 2677.93 990.742C2666.55 990.742 2657.91 993.334 2652.3 998.375C2646.53 1003.42 2643.8 1009.46 2643.8 1016.38C2643.8 1023.15 2645.96 1028.76 2650.28 1033.23C2654.6 1037.69 2659.93 1041.73 2666.41 1045.33C2672.89 1048.93 2679.95 1052.38 2687.58 1055.84C2695.21 1059.3 2702.27 1063.33 2708.75 1067.94C2715.23 1072.55 2720.71 1078.02 2724.88 1084.36C2729.2 1090.69 2731.36 1098.76 2731.36 1108.26C2731.36 1116.04 2729.92 1123.1 2727.19 1129.29C2724.45 1135.49 2720.42 1140.81 2714.95 1145.42C2709.47 1150.03 2703.14 1153.34 2695.5 1155.79C2687.87 1158.24 2679.23 1159.39 2669.58 1159.39C2656.62 1159.39 2645.96 1158.38 2637.46 1156.37C2628.96 1154.35 2622.48 1152.19 2617.73 1149.74L2624.93 1130.59C2628.96 1132.75 2634.72 1134.91 2642.5 1137.07C2650.28 1139.23 2659.06 1140.24 2668.71 1140.24C2674.48 1140.24 2679.8 1139.66 2684.85 1138.51C2689.89 1137.36 2694.21 1135.63 2697.81 1133.04C2701.41 1130.59 2704.29 1127.42 2706.45 1123.53C2708.61 1119.64 2709.62 1115.18 2709.62 1109.99ZM2809.57 976.483C2816.19 974.899 2823.25 973.891 2830.88 973.315C2838.52 972.739 2846.01 972.595 2853.5 972.595C2861.42 972.595 2869.48 973.315 2877.69 974.899C2885.9 976.483 2893.39 979.364 2900.16 983.396C2906.93 987.573 2912.4 993.19 2916.58 1000.54C2920.76 1007.88 2922.92 1017.1 2922.92 1028.33C2922.92 1039.42 2920.9 1048.78 2917.01 1056.27C2912.98 1063.91 2907.79 1070.1 2901.17 1074.85C2894.54 1079.6 2887.05 1083.06 2878.56 1085.08C2870.06 1087.09 2861.42 1088.25 2852.34 1088.25H2848.02C2846.01 1088.25 2843.99 1088.25 2841.83 1088.1C2839.67 1087.96 2837.51 1087.81 2835.49 1087.67C2833.48 1087.53 2831.89 1087.38 2831.03 1087.09V1156.08H2809.57V976.483ZM2853.78 991.174C2849.32 991.174 2845 991.318 2840.82 991.462C2836.65 991.606 2833.33 992.038 2831.03 992.758V1067.94C2831.89 1068.23 2833.33 1068.51 2835.21 1068.51C2837.08 1068.66 2839.09 1068.66 2841.11 1068.8C2843.13 1068.95 2845.14 1068.95 2847.02 1068.95H2851.19C2857.1 1068.95 2862.86 1068.37 2868.62 1067.22C2874.38 1066.07 2879.71 1064.05 2884.32 1061.17C2888.93 1058.29 2892.67 1054.11 2895.55 1048.78C2898.43 1043.45 2899.87 1036.54 2899.87 1028.33C2899.87 1021.27 2898.58 1015.37 2895.84 1010.62C2893.1 1005.86 2889.65 1002.12 2885.18 999.239C2880.72 996.358 2875.82 994.342 2870.2 993.19C2864.59 992.038 2859.4 991.174 2853.78 991.174ZM2998.53 974.611H3097.33V993.766H3020.13V1053.1H3090.85V1072.26H3020.13V1136.78H3098.62V1155.94H2998.53V974.611ZM3267.71 1105.82H3201.17L3183.17 1156.08H3161.71L3230.41 971.73H3240.2L3309.19 1156.08H3286.43L3267.71 1105.82ZM3208.08 1087.09H3261.23L3241.06 1031.93L3234.58 1004.42H3234.29L3227.81 1032.36L3208.08 1087.09ZM3410.87 1072.11H3398.62V1156.08H3377.17V974.611H3398.62V1059.15L3410.29 1055.55L3471.21 974.611H3496.13L3435.49 1052.67L3424.55 1061.17L3437.8 1071.54L3504.19 1156.08H3476.97L3410.87 1072.11ZM3579.37 974.611H3678.17V993.766H3600.98V1053.1H3671.69V1072.26H3600.98V1136.78H3679.47V1155.94H3579.37V974.611ZM3762.43 976.483C3769.05 975.331 3776.54 974.323 3785.18 973.603C3793.68 972.883 3801.6 972.595 3808.66 972.595C3816.58 972.595 3824.21 973.459 3831.27 975.187C3838.47 976.915 3844.81 979.796 3850.14 983.684C3855.47 987.573 3859.93 992.902 3863.24 999.239C3866.56 1005.58 3868.14 1013.35 3868.14 1022.57C3868.14 1036.69 3864.25 1048.21 3856.48 1056.99C3848.7 1065.78 3838.9 1071.68 3826.95 1074.56L3839.34 1084.21L3884.42 1156.08H3859.21L3809.24 1077.73L3783.89 1073.84V1156.08H3762.43V976.483ZM3809.09 991.174H3802.03C3799.59 991.174 3797.28 991.318 3794.98 991.462C3792.67 991.606 3790.66 991.75 3788.64 992.038C3786.62 992.182 3785.04 992.47 3783.89 992.758V1059.58H3804.05C3816 1059.58 3825.8 1056.7 3833.58 1050.8C3841.35 1044.89 3845.24 1035.82 3845.24 1023.29C3845.24 1013.93 3842.07 1006.3 3835.59 1000.25C3829.4 994.198 3820.47 991.174 3809.09 991.174ZM4118.6 1086.52L4077.12 1145.71L4063.58 1134.76L4088.5 1097.32L4101.17 1086.66L4088.5 1077.3L4062 1040.86L4075.53 1029.77L4118.6 1086.52ZM4165.84 1086.52L4124.36 1146.29L4110.39 1135.05L4135.74 1097.32L4148.12 1086.66L4135.74 1077.3L4108.8 1040.57L4122.49 1029.2L4165.84 1086.52ZM4433.14 1105.82H4366.61L4348.6 1156.08H4327.14L4395.84 971.73H4405.64L4474.62 1156.08H4451.87L4433.14 1105.82ZM4373.52 1087.09H4426.66L4406.5 1031.93L4400.02 1004.42H4399.73L4393.25 1032.36L4373.52 1087.09ZM4542.75 974.611C4546.06 974.035 4549.66 973.747 4553.69 973.459C4557.73 973.171 4562.05 973.027 4566.37 972.883C4570.83 972.739 4575.15 972.739 4579.33 972.595C4583.51 972.451 4587.54 972.451 4591.14 972.451C4605.68 972.451 4618.21 974.755 4628.87 979.22C4639.53 983.684 4648.32 990.021 4655.23 998.087C4662.14 1006.15 4667.33 1015.8 4670.64 1027.04C4673.95 1038.27 4675.68 1050.66 4675.68 1064.05C4675.68 1076.29 4674.1 1088.1 4670.93 1099.48C4667.76 1110.86 4662.72 1120.79 4655.8 1129.58C4648.89 1138.37 4639.96 1145.28 4628.87 1150.61C4617.78 1155.94 4604.39 1158.53 4588.69 1158.53C4585.95 1158.53 4582.35 1158.53 4577.89 1158.38C4573.42 1158.24 4568.96 1158.1 4564.35 1157.81C4559.74 1157.52 4555.42 1157.38 4551.39 1157.23C4547.36 1157.09 4544.62 1156.8 4542.89 1156.51V974.611H4542.75ZM4591.71 991.75H4584.37C4581.63 991.75 4579.04 991.894 4576.45 992.038C4573.86 992.182 4571.55 992.326 4569.25 992.614C4567.09 992.758 4565.36 992.902 4564.21 993.19V1138.37C4565.07 1138.51 4566.65 1138.65 4569.1 1138.8C4571.55 1138.94 4574 1138.94 4576.59 1139.09C4579.18 1139.23 4581.63 1139.23 4584.08 1139.37C4586.53 1139.52 4588.11 1139.52 4588.98 1139.52C4601.08 1139.52 4611.16 1137.5 4619.51 1133.32C4627.72 1129.15 4634.35 1123.53 4639.24 1116.62C4644.14 1109.56 4647.6 1101.64 4649.76 1092.57C4651.77 1083.49 4652.92 1074.13 4652.92 1064.48C4652.92 1055.98 4651.92 1047.49 4650.04 1038.99C4648.17 1030.49 4644.86 1022.71 4640.25 1015.8C4635.64 1008.89 4629.3 1003.27 4621.53 998.807C4613.75 994.342 4603.67 991.75 4591.71 991.75ZM4796.8 1099.34L4803 1126.84H4803.28L4810.05 1098.9L4853.84 974.755H4875.3L4806.6 1159.1H4796.95L4726.95 974.755H4750.57L4796.8 1099.34ZM4926.71 1065.35C4926.71 1035.1 4933.05 1011.91 4945.87 995.782C4958.69 979.652 4976.83 971.586 5000.6 971.586C5013.41 971.586 5024.5 973.891 5033.72 978.356C5043.08 982.82 5050.72 989.157 5056.91 997.367C5063.1 1005.58 5067.57 1015.37 5070.59 1026.89C5073.62 1038.41 5075.06 1051.23 5075.06 1065.35C5075.06 1095.59 5068.58 1118.78 5055.76 1134.91C5042.94 1151.04 5024.5 1159.1 5000.6 1159.1C4987.92 1159.1 4977.12 1156.8 4967.76 1152.34C4958.54 1147.87 4950.76 1141.53 4944.72 1133.32C4938.52 1125.12 4934.06 1115.32 4931.18 1103.8C4928.15 1092.42 4926.71 1079.6 4926.71 1065.35ZM4949.47 1065.35C4949.47 1075.43 4950.48 1084.93 4952.49 1093.86C4954.51 1102.79 4957.53 1110.71 4961.71 1117.63C4965.89 1124.4 4971.22 1129.87 4977.7 1133.9C4984.18 1137.93 4991.81 1139.95 5000.6 1139.95C5016.73 1139.95 5029.26 1133.9 5038.48 1121.66C5047.69 1109.42 5052.16 1090.69 5052.16 1065.2C5052.16 1055.41 5051.15 1045.9 5049.13 1036.83C5047.12 1027.76 5044.09 1019.83 5039.77 1012.92C5035.59 1006.15 5030.12 1000.68 5023.64 996.646C5017.16 992.614 5009.38 990.598 5000.45 990.598C4984.61 990.598 4972.08 996.647 4963.01 1008.89C4953.93 1021.13 4949.47 1040 4949.47 1065.35ZM5271.65 1148.59C5266.46 1152.62 5259.84 1155.36 5251.92 1156.94C5244 1158.53 5235.5 1159.25 5226.57 1159.25C5215.62 1159.25 5205.54 1157.38 5196.04 1153.63C5186.53 1149.89 5178.18 1144.27 5171.12 1136.64C5164.06 1129 5158.45 1119.35 5154.27 1107.4C5150.09 1095.59 5148.08 1081.48 5148.08 1065.35C5148.08 1048.35 5150.38 1034.09 5154.99 1022.14C5159.6 1010.33 5165.65 1000.68 5173.14 993.046C5180.63 985.557 5189.12 980.084 5198.34 976.627C5207.56 973.171 5217.21 971.442 5226.86 971.442C5237.23 971.442 5245.72 972.019 5252.21 973.171C5258.69 974.323 5264.45 975.763 5269.06 977.779L5263.87 996.935C5255.52 992.758 5243.71 990.742 5228.3 990.742C5221.24 990.742 5214.18 992.038 5207.27 994.63C5200.36 997.223 5194.16 1001.4 5188.69 1007.3C5183.22 1013.21 5178.9 1020.84 5175.59 1030.35C5172.27 1039.85 5170.69 1051.52 5170.69 1065.35C5170.69 1077.73 5172.27 1088.68 5175.3 1098.04C5178.47 1107.4 5182.64 1115.18 5188.12 1121.37C5193.59 1127.56 5199.93 1132.32 5207.27 1135.34C5214.62 1138.51 5222.68 1139.95 5231.32 1139.95C5239.1 1139.95 5245.87 1139.23 5251.63 1137.65C5257.39 1136.06 5262.29 1134.04 5266.32 1131.74L5271.65 1148.59ZM5426.62 1105.82H5360.08L5342.08 1156.08H5320.47L5389.17 971.73H5398.97L5467.95 1156.08H5445.2L5426.62 1105.82ZM5366.99 1087.09H5420.14L5399.97 1031.93L5393.49 1004.42H5393.2L5386.72 1032.36L5366.99 1087.09ZM5636.03 993.91H5579.57V1156.22H5558.11V993.91H5501.65V974.755H5636.17V993.91H5636.03ZM5706.74 974.611H5805.54V993.766H5728.35V1053.1H5799.06V1072.26H5728.35V1136.78H5806.84V1155.94H5706.74V974.611Z" fill="#332F2E"/>
<path d="M74.4181 1219.6C68.9452 1225.07 62.8963 1229.68 56.5592 1233.42H559.633C567.698 1120.36 582.533 948.112 608.601 747.631C414.457 905.049 218.153 1074.56 74.4181 1219.6ZM357.712 1091.7C385.509 1091.7 407.976 1114.17 407.976 1141.97C407.976 1169.76 385.509 1192.23 357.712 1192.23C329.916 1192.23 307.448 1169.76 307.448 1141.97C307.448 1114.31 329.916 1091.7 357.712 1091.7ZM1034.91 300.151C1100.01 258.096 1166.26 217.913 1233.23 180.755V101.254C1233.23 45.6613 1188.15 0.582008 1132.56 0.582008H1099.43C1082.15 76.9144 1059.39 181.187 1034.91 300.151ZM885.558 530.156C832.557 570.483 776.964 613.545 720.363 658.337C684.501 860.978 653.968 1068.08 642.734 1233.57H805.193C816.139 1081.19 839.326 821.371 885.558 530.156ZM230.828 124.01C235.868 92.4689 266.401 71.5855 297.654 78.7867L298.519 78.9307C328.187 85.8438 346.766 115.369 339.709 145.037C296.79 328.091 153.343 924.78 69.0893 1093.29C69.0893 1093.29 302.551 853.056 630.348 592.374C658.721 403.847 696.743 199.334 747.583 0.437988H101.783C45.7575 0.437988 0.246094 45.9494 0.246094 101.974V913.546C84.7878 671.587 199.43 322.186 230.828 124.01ZM1006.97 439.133C955.265 703.128 903.705 1007.31 888.438 1233.57H1132.41C1188.01 1233.57 1233.09 1188.49 1233.09 1132.89V279.555C1177.64 315.849 1098.86 371.298 1006.97 439.133ZM1102.17 1155.36C1074.37 1155.36 1051.9 1132.89 1051.9 1105.1C1051.9 1077.3 1074.37 1054.83 1102.17 1054.83C1129.97 1054.83 1152.43 1077.3 1152.43 1105.1C1152.58 1132.89 1129.97 1155.36 1102.17 1155.36ZM853.729 0.582008C827.372 117.529 787.766 300.151 749.456 500.199C801.592 460.881 855.313 421.706 910.474 383.396C933.374 257.232 960.594 127.755 993.143 0.582008H853.729Z" fill="#332F2E"/>
</g>
<defs>
<clipPath id="clip0_1909_1502">
<rect width="6044" height="1234" fill="white"/>
</clipPath>
</defs>
</svg>
