<svg width="843" height="245" viewBox="0 0 843 245" fill="none" xmlns="http://www.w3.org/2000/svg">
<path d="M219.249 195.743C214.396 202.449 208.484 208.802 201.514 214.713C194.543 220.625 186.867 225.831 178.397 230.154C169.927 234.566 160.75 238.007 150.956 240.565C141.074 243.124 130.839 244.359 120.163 244.359C102.517 244.359 86.4584 241.36 71.8118 235.36C57.2534 229.36 44.6361 220.978 34.1364 210.125C23.5485 199.361 15.4311 186.567 9.60774 171.92C3.78438 157.186 0.960938 141.039 0.960938 123.392C0.960938 105.746 3.87261 90.217 9.60774 75.2174C15.4311 60.3061 23.5485 47.3359 34.1364 36.3068C44.6361 25.2777 57.3416 16.6309 71.9882 10.2782C86.7231 3.92542 102.958 0.749023 120.781 0.749023C142.31 0.749023 161.191 4.71953 177.25 12.5722C193.308 20.4249 206.72 31.807 217.396 46.6301L181.573 81.0407C174.603 71.3351 166.397 63.4825 156.868 57.5709C147.339 51.6593 136.045 48.7476 122.81 48.7476C112.399 48.7476 102.958 50.6887 94.664 54.4828C86.2819 58.2768 79.2233 63.5707 73.4882 70.2764C67.6648 76.9821 63.2532 84.8348 60.0768 93.7463C56.9887 102.658 55.4005 112.099 55.4005 122.069C55.4005 132.039 56.9887 141.745 60.0768 150.568C63.165 159.391 67.6648 166.979 73.4882 173.509C79.3116 180.038 86.1937 185.067 94.3111 188.773C102.429 192.479 111.605 194.332 121.751 194.332C130.134 194.332 137.369 193.449 143.457 191.773C149.633 190.008 155.015 187.714 159.78 184.802C164.544 181.891 168.779 178.538 172.485 174.744C176.191 170.95 179.809 167.068 183.25 163.097L219.072 195.743H219.249Z" fill="#332F2E"/>
<path d="M408.599 219.389C398.188 227.948 387.953 234.212 377.806 238.183C367.659 242.153 356.277 244.095 343.572 244.095C332.013 244.095 321.514 242.418 312.073 239.065C302.632 235.712 294.603 231.036 287.897 225.125C281.191 219.213 275.986 212.154 272.456 203.949C268.839 195.743 267.074 186.655 267.074 176.685C267.074 163.009 270.692 149.95 277.839 137.598C284.985 125.245 296.632 114.128 312.602 104.422C307.308 97.2754 303.426 89.8638 300.956 82.364C298.485 74.8643 297.338 67.7174 297.338 61.0117C297.338 52.6296 299.014 44.8651 302.367 37.5418C305.72 30.2185 310.485 23.8658 316.661 18.3954C322.837 12.9249 330.249 8.60153 338.896 5.33692C347.542 2.07231 357.336 0.484131 368.277 0.484131C385.218 0.484131 398.894 4.45464 409.482 12.3073C419.981 20.1601 427.922 29.6891 433.305 40.8065L397.835 62.6882C394.129 54.8355 389.982 49.2768 385.306 46.0122C380.63 42.7476 375.689 41.1594 370.395 41.1594C363.424 41.1594 357.866 43.1888 353.542 47.2475C349.219 51.3062 347.101 56.3354 347.101 62.3353C347.101 67.0116 348.337 71.4232 350.719 75.7466C353.189 80.07 356.013 84.1287 359.277 88.0992L413.54 152.421L444.863 116.598L478.568 146.156L442.745 186.832L486.509 238.624H425.011L408.688 219.478L408.599 219.389ZM338.366 136.01C329.984 142.009 324.249 147.921 320.984 153.744C317.72 159.568 316.132 165.832 316.132 172.538C316.132 180.92 318.955 187.626 324.69 192.743C330.337 197.861 338.102 200.419 347.807 200.419C354.513 200.419 360.336 199.184 365.365 196.625C370.306 194.067 375.512 190.449 380.806 185.861L338.366 136.186V136.01Z" fill="#332F2E"/>
<path d="M736.378 195.743C731.525 202.449 725.613 208.802 718.643 214.713C711.672 220.625 703.996 225.831 695.526 230.154C687.055 234.566 677.879 238.007 668.085 240.565C658.203 243.124 647.968 244.359 637.292 244.359C619.646 244.359 603.587 241.36 588.941 235.36C574.382 229.36 561.765 220.978 551.265 210.125C540.766 199.273 532.56 186.567 526.737 171.92C520.913 157.186 518.09 141.039 518.09 123.392C518.09 105.746 521.002 90.217 526.737 75.2174C532.56 60.3061 540.677 47.3359 551.265 36.3068C561.853 25.2777 574.471 16.6309 589.117 10.2782C603.852 3.92542 620.087 0.749023 637.91 0.749023C659.439 0.749023 678.32 4.71953 694.379 12.5722C710.437 20.4249 723.848 31.807 734.525 46.6301L698.702 81.0407C691.732 71.3351 683.526 63.4825 673.997 57.5709C664.468 51.6593 653.174 48.7476 639.939 48.7476C629.528 48.7476 620.087 50.6887 611.793 54.4828C603.411 58.2768 596.352 63.5707 590.617 70.2764C584.882 76.9821 580.382 84.8348 577.206 93.7463C574.118 102.658 572.529 112.099 572.529 122.069C572.529 132.039 574.118 141.745 577.206 150.568C580.294 159.391 584.794 166.979 590.617 173.509C596.44 180.038 603.323 185.067 611.44 188.773C619.557 192.479 628.734 194.332 638.88 194.332C647.262 194.332 654.498 193.449 660.586 191.773C666.674 190.096 672.144 187.714 676.909 184.802C681.673 181.891 685.908 178.538 689.614 174.744C693.32 170.95 696.937 167.068 700.379 163.097L736.201 195.743H736.378Z" fill="#332F2E"/>
<path d="M829.636 233.332C815.165 245.684 793.46 243.92 781.108 229.449C768.755 214.979 770.52 193.274 784.99 180.922C799.46 168.569 821.165 170.334 833.518 184.804C838.812 191.068 841.723 198.921 841.723 207.127C841.723 217.185 837.312 226.803 829.636 233.332Z" fill="#332F2E"/>
</svg>
