<svg width="2417" height="207" viewBox="0 0 2417 207" fill="none" xmlns="http://www.w3.org/2000/svg">
<g clip-path="url(#clip0_1902_1504)">
<path d="M184.7 165.289C180.604 170.989 175.557 176.332 169.679 181.32C163.802 186.307 157.271 190.7 150.146 194.381C142.962 198.122 135.244 201.031 126.932 203.227C118.62 205.365 109.893 206.434 100.927 206.434C86.0253 206.434 72.4293 203.881 60.0801 198.775C47.7309 193.669 37.1035 186.544 28.1978 177.46C19.2921 168.317 12.3457 157.571 7.47726 145.103C2.54945 132.635 0.115234 118.98 0.115234 104.078C0.115234 89.1755 2.54945 75.9951 7.47726 63.349C12.4051 50.703 19.2921 39.7193 28.1978 30.398C37.1035 21.0768 47.7903 13.7147 60.2582 8.37133C72.6074 2.96856 86.3815 0.296856 101.462 0.296856C119.689 0.296856 135.6 3.62164 149.256 10.2712C162.852 16.9208 174.191 26.5389 183.216 39.0662L152.937 68.1581C147.059 59.9055 140.112 53.3153 132.038 48.3281C124.023 43.341 114.405 40.8474 103.243 40.8474C94.3966 40.8474 86.5003 42.4504 79.4351 45.7158C72.3699 48.9218 66.3734 53.434 61.505 59.0743C56.5772 64.7739 52.8368 71.3641 50.1651 78.9043C47.4934 86.4444 46.1873 94.4595 46.1873 102.89C46.1873 111.321 47.4934 119.574 50.1651 126.995C52.8368 134.476 56.5772 140.947 61.505 146.409C66.3734 151.871 72.3106 156.206 79.1382 159.352C86.0253 162.499 93.7436 164.043 102.352 164.043C109.418 164.043 115.533 163.33 120.757 161.846C125.982 160.362 130.554 158.402 134.591 155.968C138.628 153.534 142.19 150.684 145.337 147.419C148.484 144.153 151.512 140.888 154.48 137.563L184.76 165.23L184.7 165.289ZM199.365 63.5271H239.975L241.459 80.8635C244.962 76.1732 249.83 71.661 256.005 67.3269C262.18 62.9928 270.195 60.8554 279.991 60.8554C283.731 60.8554 286.878 61.0336 289.55 61.4492C292.221 61.8648 294.774 62.5178 297.327 63.5271L290.559 100.872C286.225 99.5061 281.178 98.7936 275.241 98.7936C265.267 98.7936 257.133 101.762 250.958 107.759C244.784 113.755 241.696 122.245 241.696 133.17V201.387H199.365V63.5271ZM393.449 188.503C388.759 193.966 382.822 198.181 375.638 201.15C368.454 204.118 360.498 205.543 351.652 205.543C346.724 205.543 341.618 204.831 336.215 203.465C330.813 202.099 325.825 199.784 321.194 196.578C316.564 193.372 312.764 188.978 309.736 183.516C306.708 178.054 305.164 171.167 305.164 162.914C305.164 154.662 306.767 147.715 310.033 141.422C313.239 135.129 317.692 129.904 323.391 125.689C329.091 121.473 335.8 118.267 343.518 116.13C351.236 113.993 359.667 112.924 368.691 112.924C373.56 112.924 378.547 113.043 383.534 113.221C388.521 113.399 391.787 113.696 393.39 114.111V111.143C393.39 107.64 392.677 104.612 391.193 102.178C389.709 99.7435 387.75 97.6656 385.315 96.0032C382.881 94.3408 380.091 93.1534 376.944 92.5003C373.797 91.7878 370.473 91.491 366.97 91.491C357.589 91.491 349.752 92.6784 343.577 94.9939C337.403 97.3687 332.178 99.981 327.844 102.95L310.508 77.0638C313.476 74.9264 316.801 72.7297 320.482 70.5923C324.222 68.4549 328.616 66.4957 333.722 64.7146C338.828 62.9334 344.527 61.5085 350.939 60.4398C357.292 59.3712 364.595 58.8368 372.847 58.8368C393.805 58.8368 409.301 64.4771 419.335 75.7576C429.309 87.0381 434.356 102.178 434.356 121.177V201.446H394.637L393.449 188.503ZM393.449 140.591C392.44 140.413 390.599 140.175 387.868 139.878C385.137 139.582 381.991 139.463 378.488 139.463C366.732 139.463 358.42 141.125 353.492 144.45C348.565 147.775 346.13 152.465 346.13 158.58C346.13 169.98 353.017 175.62 366.732 175.62C370.057 175.62 373.322 175.086 376.588 174.017C379.794 172.948 382.644 171.405 385.137 169.445C387.571 167.486 389.59 165.052 391.134 162.083C392.677 159.115 393.509 155.731 393.509 151.812V140.65L393.449 140.591ZM477.281 96.775H454.958V63.5271H477.281V56.462C477.281 46.6657 478.884 38.235 482.15 31.1699C485.356 24.1047 489.63 18.2863 494.915 13.6554C500.199 9.02442 506.254 5.64026 513.023 3.38416C519.791 1.12805 526.678 0 533.743 0C541.165 0 548.764 1.06868 556.364 3.20604C564.023 5.3434 570.969 9.08379 577.262 14.3678C574.294 18.88 571.325 23.3329 568.297 27.7263C565.269 32.1198 562.241 36.5726 559.332 41.0848C556.364 38.9475 553.158 37.2851 549.655 36.0977C546.152 34.9102 542.471 34.3165 538.79 34.3165C532.912 34.3165 528.222 36.157 524.659 39.8974C521.157 43.6378 519.375 48.9218 519.375 55.7495V63.4084H552.03V96.6563H519.375V201.328H477.341V96.775H477.281ZM585.812 96.775H564.023V63.5271H585.812V21.7892H628.143V63.5271H663.707V96.775H628.143V151.159C628.143 157.809 629.45 162.974 632.121 166.595C634.793 170.217 638.949 172.058 644.589 172.058C648.923 172.058 652.604 171.345 655.751 169.861C658.898 168.377 661.807 166.655 664.597 164.696L681.637 190.581C668.278 201.149 653.792 206.434 638.118 206.434C628.322 206.434 620.069 205.009 613.419 202.159C606.77 199.309 601.367 195.39 597.27 190.403C593.174 185.416 590.205 179.36 588.424 172.295C586.643 165.23 585.752 157.393 585.752 148.784V96.7156L585.812 96.775ZM812.253 185.297C803.407 192.541 794.739 197.825 786.249 201.15C777.699 204.474 768.081 206.137 757.276 206.137C747.479 206.137 738.574 204.712 730.677 201.862C722.722 199.012 715.953 195.094 710.254 190.106C704.554 185.119 700.22 179.123 697.192 172.176C694.164 165.23 692.62 157.512 692.62 149.081C692.62 137.504 695.648 126.461 701.764 116.011C707.819 105.503 717.616 96.1813 731.152 87.9287C726.64 81.8728 723.375 75.6389 721.297 69.2268C719.219 62.8741 718.209 56.8182 718.209 51.1186C718.209 44.0534 719.634 37.4632 722.484 31.2886C725.334 25.114 729.371 19.7112 734.536 15.1396C739.702 10.5087 745.995 6.88705 753.357 4.09661C760.719 1.36554 768.972 0 778.234 0C792.542 0 804.179 3.32478 813.085 9.97435C821.99 16.6239 828.699 24.6984 833.211 34.079L803.229 52.6028C800.082 45.9533 796.579 41.263 792.661 38.4725C788.742 35.7414 784.527 34.3759 780.015 34.3759C774.137 34.3759 769.387 36.0977 765.766 39.5412C762.144 42.9847 760.304 47.2594 760.304 52.306C760.304 56.2245 761.313 60.0242 763.391 63.6459C765.469 67.2675 767.844 70.7704 770.575 74.0952L816.469 128.479L842.948 98.1999L871.446 123.195L841.167 157.63L878.215 201.446H826.146L812.313 185.297H812.253ZM752.823 114.705C745.758 119.811 740.889 124.798 738.099 129.726C735.368 134.654 734.002 139.938 734.002 145.578C734.002 152.643 736.377 158.343 741.186 162.618C745.995 166.952 752.526 169.089 760.719 169.089C766.419 169.089 771.347 168.02 775.562 165.883C779.777 163.746 784.111 160.718 788.624 156.74L752.763 114.705H752.823ZM1077.82 165.289C1073.72 170.989 1068.68 176.332 1062.8 181.32C1056.92 186.307 1050.39 190.7 1043.27 194.381C1036.08 198.122 1028.36 201.031 1020.05 203.227C1011.74 205.365 1003.01 206.434 994.048 206.434C979.146 206.434 965.55 203.881 953.201 198.775C940.851 193.669 930.224 186.544 921.318 177.46C912.412 168.317 905.466 157.571 900.598 145.103C895.67 132.635 893.236 118.98 893.236 104.078C893.236 89.1755 895.67 75.9951 900.598 63.349C905.525 50.703 912.412 39.7193 921.318 30.398C930.224 21.0768 940.911 13.7147 953.379 8.37133C965.847 2.96856 979.621 0.296856 994.701 0.296856C1012.93 0.296856 1028.84 3.62164 1042.49 10.2712C1056.09 16.9208 1067.43 26.5389 1076.45 39.0662L1046.18 68.1581C1040.3 59.9055 1033.35 53.3153 1025.28 48.3281C1017.26 43.341 1007.64 40.8474 996.482 40.8474C987.636 40.8474 979.739 42.4504 972.674 45.7158C965.609 48.9218 959.613 53.434 954.744 59.0743C949.816 64.7739 946.076 71.3641 943.404 78.9043C940.732 86.4444 939.426 94.4595 939.426 102.89C939.426 111.321 940.732 119.574 943.404 126.995C946.076 134.476 949.816 140.947 954.744 146.409C959.613 151.871 965.55 156.206 972.377 159.352C979.264 162.499 986.983 164.043 995.591 164.043C1002.66 164.043 1008.77 163.33 1014 161.846C1019.22 160.362 1023.79 158.402 1027.83 155.968C1031.87 153.534 1035.43 150.684 1038.58 147.419C1041.72 144.153 1044.75 140.888 1047.72 137.563L1078 165.23L1077.82 165.289ZM1095.75 132.338C1095.75 122.126 1097.53 112.568 1101.21 103.662C1104.83 94.7564 1109.88 86.9788 1116.35 80.2698C1122.82 73.6202 1130.6 68.3362 1139.74 64.5365C1148.89 60.7367 1158.92 58.7774 1169.91 58.7774C1180.89 58.7774 1190.86 60.6773 1199.89 64.5365C1208.91 68.3362 1216.63 73.6202 1223.1 80.2698C1229.57 86.9194 1234.62 94.7564 1238.24 103.662C1241.86 112.568 1243.7 122.126 1243.7 132.338C1243.7 142.55 1241.86 152.109 1238.24 161.015C1234.62 169.92 1229.57 177.757 1223.1 184.407C1216.63 191.056 1208.91 196.34 1199.89 200.259C1190.86 204.177 1180.89 206.137 1169.91 206.137C1158.92 206.137 1148.89 204.177 1139.74 200.259C1130.6 196.34 1122.82 191.056 1116.35 184.407C1109.88 177.757 1104.83 169.98 1101.21 161.015C1097.59 152.109 1095.75 142.55 1095.75 132.338ZM1169.85 169.386C1175.13 169.386 1179.82 168.377 1183.98 166.299C1188.13 164.221 1191.58 161.43 1194.43 157.927C1197.28 154.424 1199.35 150.447 1200.72 145.994C1202.08 141.6 1202.8 137.029 1202.8 132.338C1202.8 127.648 1202.08 123.076 1200.72 118.683C1199.35 114.289 1197.22 110.371 1194.43 106.927C1191.58 103.484 1188.07 100.753 1183.98 98.6749C1179.88 96.5969 1175.13 95.5876 1169.85 95.5876C1164.56 95.5876 1159.81 96.5969 1155.6 98.6749C1151.38 100.753 1147.88 103.484 1145.15 106.927C1142.42 110.371 1140.28 114.289 1138.79 118.683C1137.31 123.076 1136.6 127.648 1136.6 132.338C1136.6 137.029 1137.31 141.6 1138.79 145.994C1140.28 150.387 1142.36 154.365 1145.15 157.927C1147.88 161.43 1151.38 164.221 1155.6 166.299C1159.81 168.377 1164.56 169.386 1169.85 169.386ZM1270.42 63.5271H1311.03L1312.51 78.8449C1316.85 73.5609 1322.31 69.1674 1328.96 65.6051C1335.61 62.1022 1343.45 60.3211 1352.47 60.3211C1357.93 60.3211 1362.86 60.9148 1367.2 62.1022C1371.53 63.2897 1375.27 64.7739 1378.54 66.6738C1381.74 68.5143 1384.59 70.5923 1387.08 72.8484C1389.52 75.1045 1391.54 77.3013 1393.14 79.4386C1398.84 73.3828 1405.73 68.6331 1413.86 65.3083C1422 61.9835 1430.49 60.3211 1439.27 60.3211C1456.91 60.3211 1470.38 65.3083 1479.7 75.342C1489.03 85.3757 1493.66 98.9717 1493.66 116.249V201.506H1451.32V122.958C1451.32 114.705 1449.48 108.352 1445.86 103.84C1442.24 99.3279 1436.78 97.0719 1429.54 97.0719C1421.28 97.0719 1414.75 99.9217 1409.82 105.621C1404.9 111.321 1402.46 118.564 1402.46 127.411V201.506H1361.61V122.958C1361.61 114.705 1359.77 108.352 1356.15 103.84C1352.53 99.3279 1347.07 97.0719 1339.83 97.0719C1331.81 97.0719 1325.28 99.9217 1320.29 105.621C1315.31 111.321 1312.81 118.564 1312.81 127.411V201.506H1270.48V63.5271H1270.42ZM1525.66 63.5271H1566.27L1567.75 78.8449C1572.09 73.5609 1577.55 69.1674 1584.2 65.6051C1590.85 62.1022 1598.68 60.3211 1607.71 60.3211C1613.17 60.3211 1618.1 60.9148 1622.43 62.1022C1626.77 63.2897 1630.51 64.7739 1633.77 66.6738C1636.98 68.5143 1639.83 70.5923 1642.32 72.8484C1644.76 75.1045 1646.77 77.3013 1648.38 79.4386C1654.08 73.3828 1660.96 68.6331 1669.1 65.3083C1677.23 61.9835 1685.72 60.3211 1694.51 60.3211C1712.14 60.3211 1725.62 65.3083 1734.94 75.342C1744.26 85.3164 1748.89 98.9717 1748.89 116.249V201.506H1706.56V122.958C1706.56 114.705 1704.72 108.352 1701.1 103.84C1697.48 99.3279 1692.02 97.0719 1684.77 97.0719C1676.52 97.0719 1669.99 99.9217 1665.06 105.621C1660.13 111.321 1657.7 118.564 1657.7 127.411V201.506H1616.85V122.958C1616.85 114.705 1615.01 108.352 1611.39 103.84C1607.77 99.3279 1602.31 97.0719 1595.06 97.0719C1587.05 97.0719 1580.52 99.9217 1575.53 105.621C1570.54 111.321 1568.05 118.564 1568.05 127.411V201.506H1525.72V63.5271H1525.66ZM1911.21 186.425C1909.61 187.435 1907.3 189.038 1904.15 191.294C1901 193.55 1896.96 195.747 1891.92 197.884C1886.93 200.021 1880.99 201.921 1874.11 203.643C1867.22 205.305 1859.38 206.137 1850.6 206.137C1838.84 206.137 1828.27 204.296 1818.83 200.675C1809.45 197.053 1801.44 192.006 1794.85 185.535C1788.26 179.063 1783.27 171.286 1779.83 162.143C1776.38 152.999 1774.66 142.966 1774.66 131.982C1774.66 122.364 1776.26 113.102 1779.53 104.196C1782.73 95.2907 1787.42 87.5131 1793.48 80.8041C1799.54 74.1546 1807.02 68.8112 1815.8 64.7739C1824.65 60.7367 1834.62 58.7181 1845.79 58.7181C1856.95 58.7181 1866.74 60.6773 1875.18 64.5958C1883.61 68.5143 1890.73 73.9765 1896.49 80.9229C1902.25 87.8693 1906.64 96.2407 1909.55 105.918C1912.52 115.596 1913.94 126.282 1913.94 137.8V144.866H1815.74C1815.92 152.346 1819.25 158.818 1825.6 164.399C1831.95 169.98 1840.74 172.77 1851.9 172.77C1863.06 172.77 1871.79 171.167 1878.68 167.902C1885.57 164.696 1890.55 161.846 1893.7 159.53L1911.04 186.307L1911.21 186.425ZM1874.17 117.911C1874.17 114.943 1873.57 111.974 1872.38 108.946C1871.2 105.918 1869.42 103.128 1867.1 100.575C1864.73 98.0218 1861.82 95.9438 1858.25 94.2814C1854.75 92.619 1850.48 91.7878 1845.61 91.7878C1840.74 91.7878 1836.41 92.619 1832.67 94.2814C1828.93 95.9438 1825.84 98.0812 1823.4 100.575C1820.97 103.128 1819.07 105.918 1817.82 108.946C1816.58 111.974 1815.92 115.002 1815.92 117.911H1874.17ZM1939.71 63.5271H1980.32L1981.81 80.8635C1985.31 76.1732 1990.18 71.661 1996.35 67.3269C2002.53 62.9928 2010.48 60.8554 2020.34 60.8554C2024.08 60.8554 2027.22 61.0336 2029.9 61.4492C2032.57 61.8648 2035.12 62.5178 2037.67 63.5271L2030.91 100.872C2026.57 99.5061 2021.47 98.7936 2015.59 98.7936C2005.61 98.7936 1997.48 101.762 1991.31 107.759C1985.13 113.755 1982.04 122.245 1982.04 133.17V201.387H1939.71V63.5271ZM2177.61 183.219C2171.91 189.513 2164.43 194.856 2155.11 199.368C2145.79 203.881 2134.75 206.137 2122.04 206.137C2110.88 206.137 2100.73 204.296 2091.58 200.675C2082.44 197.053 2074.66 191.947 2068.19 185.357C2061.72 178.767 2056.67 170.989 2053.05 161.965C2049.43 152.94 2047.59 143.025 2047.59 132.279C2047.59 122.067 2049.43 112.508 2053.17 103.603C2056.91 94.697 2062.02 86.9194 2068.61 80.2104C2075.2 73.5609 2083.03 68.2768 2092.12 64.4771C2101.26 60.6773 2111.18 58.7181 2121.98 58.7181C2134.51 58.7181 2145.43 60.7961 2154.64 64.8927C2163.84 68.9893 2171.62 74.5108 2177.85 81.3385L2152.26 109.005C2149.11 105.503 2145.31 102.356 2140.8 99.6248C2136.29 96.8937 2130.29 95.5282 2122.87 95.5282C2117.77 95.5282 2113.19 96.5375 2109.22 98.6155C2105.18 100.693 2101.74 103.365 2098.95 106.69C2096.1 110.015 2093.96 113.874 2092.47 118.327C2090.99 122.72 2090.28 127.411 2090.28 132.279C2090.28 136.791 2090.99 141.244 2092.47 145.637C2093.96 150.031 2096.1 153.949 2098.95 157.393C2101.79 160.836 2105.24 163.627 2109.22 165.764C2113.25 167.902 2117.77 168.97 2122.87 168.97C2130.11 168.97 2136.23 167.545 2141.1 164.696C2146.03 161.846 2149.95 158.758 2152.85 155.434L2177.55 183.101L2177.61 183.219ZM2324.38 186.425C2322.83 187.435 2320.46 189.038 2317.31 191.294C2314.17 193.55 2310.13 195.747 2305.08 197.884C2300.09 200.021 2294.16 201.921 2287.27 203.643C2280.38 205.305 2272.55 206.137 2263.76 206.137C2252 206.137 2241.44 204.296 2232 200.675C2222.56 197.053 2214.6 192.006 2208.01 185.535C2201.42 179.063 2196.43 171.286 2192.99 162.143C2189.55 152.999 2187.82 142.966 2187.82 131.982C2187.82 122.364 2189.43 113.102 2192.69 104.196C2195.9 95.2907 2200.59 87.5131 2206.64 80.8041C2212.7 74.0952 2220.18 68.8112 2228.97 64.7739C2237.81 60.7367 2247.79 58.7181 2258.95 58.7181C2270.11 58.7181 2279.91 60.6773 2288.34 64.5958C2296.77 68.5143 2303.89 73.9765 2309.65 80.9229C2315.41 87.8693 2319.81 96.2407 2322.72 105.918C2325.68 115.596 2327.11 126.282 2327.11 137.8V144.866H2228.91C2229.09 152.346 2232.41 158.818 2238.76 164.399C2245.12 169.98 2253.9 172.77 2265.07 172.77C2276.23 172.77 2284.96 171.167 2291.84 167.902C2298.73 164.696 2303.72 161.846 2306.86 159.53L2324.2 186.307L2324.38 186.425ZM2287.33 117.911C2287.33 114.943 2286.74 111.974 2285.55 108.946C2284.36 105.918 2282.58 103.128 2280.26 100.575C2277.89 98.0218 2274.98 95.9438 2271.42 94.2814C2267.92 92.619 2263.7 91.7878 2258.77 91.7878C2253.84 91.7878 2249.57 92.619 2245.83 94.2814C2242.09 95.9438 2239 98.0812 2236.57 100.575C2234.13 103.128 2232.23 105.918 2230.99 108.946C2229.74 111.974 2229.09 115.002 2229.09 117.911H2287.33Z" fill="#F2F2F2"/>
<path d="M2406.85 199.665C2394.68 209.996 2376.45 208.512 2366.12 196.4C2355.79 184.229 2357.28 166.002 2369.39 155.671C2381.5 145.341 2399.78 146.825 2410.12 158.937C2414.57 164.161 2417 170.811 2417 177.698C2417 186.188 2413.26 194.203 2406.85 199.665Z" fill="#EF5340"/>
</g>
<defs>
<clipPath id="clip0_1902_1504">
<rect width="2417" height="206.552" fill="white"/>
</clipPath>
</defs>
</svg>
