<svg width="2360" height="882" viewBox="0 0 2360 882" fill="none" xmlns="http://www.w3.org/2000/svg">
<mask id="mask0_1904_1515" style="mask-type:luminance" maskUnits="userSpaceOnUse" x="0" y="0" width="2360" height="882">
<path d="M0 0.552246H2359.69V881.552H0V0.552246Z" fill="white"/>
</mask>
<g mask="url(#mask0_1904_1515)">
<path d="M136.904 43.0102C138.567 38.5042 137.265 32.5527 136.253 27.4927C132.302 8.19227 119.676 -5.39752 101.267 3.18043C91.1227 7.90314 78.7859 33.5648 82.4243 38.3115C123.121 91.4659 81.9182 131.681 64.3527 175.944C54.1363 201.679 28.0891 224.93 45.7029 249.292C34.3539 268.905 22.3544 282.951 17.5113 299.169C-8.825 386.996 -4.12641 474.895 22.9087 561.687C34.4022 598.553 48.9075 634.503 62.3529 670.768C69.1235 689.032 77.1474 704.308 61.4372 725.127C48.9798 741.633 57.6782 765.293 80.9544 767.8C83.9664 768.112 86.5686 768.715 88.9541 769.414C89.4601 800.256 89.8456 850.736 90.1348 881.578H97.8452C102.303 881.578 105.917 878.012 106.014 873.554C106.761 836.713 108.255 781.052 111.17 757.799C118.254 742.571 125.507 726.669 132.784 710.308C156.71 647.781 185.216 586.505 200.395 522.003C230.899 392.515 201.479 266.664 155.217 144.572C142.783 111.778 123.121 80.6471 136.952 43.0342L136.904 43.0102ZM142.663 612.071C130.567 531.665 118.182 449.163 105.773 366.635C101.387 367.237 97.0261 367.839 92.6407 368.467C94.9056 382.972 97.9418 397.406 99.3152 411.983C106.206 485.763 114.399 559.472 118.11 633.42C119.049 652.021 105.122 671.346 98.0139 690.357C94.0623 689.826 90.1106 689.296 86.159 688.742C75.6294 660.816 64.666 633.059 54.6182 604.962C25.3663 523.136 9.22245 439.668 25.7036 352.637C32.6432 316.035 30.2336 272.012 88.2313 275.074C79.5087 255.627 63.6057 237.363 67.4851 225.606C79.316 189.631 98.7369 156.162 116.592 118.79C201.239 273.387 212.492 535.664 142.687 612.095L142.663 612.071ZM524.935 412.078C513.61 406.271 501.058 403.378 487.25 403.378C476.216 403.378 466.312 405.258 457.564 409.041C448.818 412.824 441.686 418.198 436.169 425.185V340.996H414.362V537.808H435.06V515.181C440.409 523.277 447.662 529.639 456.867 534.216C466.071 538.819 476.552 541.108 488.335 541.108C501.587 541.108 513.827 538.168 525.056 532.289C536.285 526.41 545.152 518.217 551.706 507.737C558.235 497.231 561.513 485.376 561.513 472.124C561.513 458.87 558.235 447.016 551.706 436.51C545.176 426.029 536.236 417.884 524.935 412.078ZM524.093 508.531C514.431 517.736 501.877 522.337 486.408 522.337C470.939 522.337 458.144 517.736 448.578 508.531C439.012 499.327 434.216 487.184 434.216 472.098C434.216 457.015 439.012 444.919 448.578 435.812C458.144 426.703 470.746 422.149 486.408 422.149C502.069 422.149 514.431 426.751 524.093 435.955C533.754 445.16 538.598 457.208 538.598 472.124C538.598 487.039 533.754 499.374 524.093 508.555V508.531ZM705.602 340.996H683.796V537.808H705.602V340.996ZM957.64 423.524C947.16 410.08 930.123 403.38 906.582 403.38C892.776 403.38 880.27 406.271 869.043 412.078C857.814 417.886 848.947 426.029 842.416 436.511C835.862 447.017 832.61 458.872 832.61 472.124C832.61 485.378 835.862 497.256 842.416 507.738C848.947 518.219 857.79 526.412 868.898 532.291C880.029 538.17 892.318 541.11 905.738 541.11C919.161 541.11 929.448 539.64 938.172 536.7C946.917 533.761 953.762 528.508 958.749 520.966V537.808H979.447V406.682H957.64V423.524ZM945.207 508.533C935.641 517.738 923.039 522.339 907.401 522.339C891.763 522.339 879.378 517.738 869.716 508.533C860.055 499.329 855.235 487.184 855.235 472.1C855.235 457.017 860.055 445.138 869.716 435.933C879.378 426.729 891.932 422.127 907.401 422.127C922.872 422.127 935.641 426.681 945.207 435.788C954.773 444.897 959.567 456.993 959.567 472.076C959.567 487.16 954.773 499.329 945.207 508.509V508.533ZM1177.66 522.339C1167.15 522.339 1157.92 520.219 1149.9 516.001C1141.9 511.762 1135.68 505.833 1131.27 498.196C1126.86 490.557 1124.65 481.859 1124.65 472.1C1124.65 462.341 1126.86 453.667 1131.27 446.03C1135.68 438.391 1141.9 432.488 1149.9 428.368C1157.9 424.247 1167.05 422.151 1177.37 422.151C1185.63 422.151 1193.17 423.5 1199.99 426.151C1206.81 428.825 1212.31 432.464 1216.55 437.066L1231.73 422.705C1225.1 416.465 1217.1 411.669 1207.7 408.343C1198.31 405.043 1188.19 403.38 1177.34 403.38C1163.18 403.38 1150.33 406.321 1138.81 412.199C1127.32 418.078 1118.28 426.248 1111.76 436.633C1105.23 447.041 1101.95 458.848 1101.95 472.1C1101.95 485.354 1105.23 497.233 1111.76 507.713C1118.28 518.195 1127.25 526.388 1138.67 532.267C1150.09 538.146 1162.96 541.086 1177.32 541.086C1188.36 541.086 1198.57 539.326 1207.94 535.857C1217.34 532.362 1225.51 527.399 1232.52 520.942L1217.61 506.58C1207.29 517.062 1193.97 522.315 1177.58 522.315L1177.66 522.339ZM1481.57 406.68H1451.5L1376.95 476.797V340.996H1355.17V537.808H1376.95V504.123L1405.38 477.351L1456.46 537.808H1483.23L1420.59 463.835L1481.57 406.68ZM1708.07 412.078C1696.74 406.271 1684.19 403.378 1670.38 403.378C1659.35 403.378 1649.44 405.258 1640.7 409.041C1631.95 412.824 1624.82 418.198 1619.3 425.185V340.996H1597.49V537.808H1618.19V515.181C1623.52 523.277 1630.79 529.639 1640 534.216C1649.2 538.819 1659.68 541.108 1671.47 541.108C1684.72 541.108 1696.96 538.168 1708.19 532.289C1719.42 526.41 1728.28 518.217 1734.81 507.737C1741.34 497.231 1744.62 485.376 1744.62 472.124C1744.62 458.87 1741.34 447.016 1734.81 436.51C1728.28 426.029 1719.37 417.884 1708.04 412.078H1708.07ZM1707.25 508.531C1697.59 517.736 1685.03 522.337 1669.56 522.337C1654.09 522.337 1641.3 517.736 1631.73 508.531C1622.17 499.327 1617.37 487.184 1617.37 472.098C1617.37 457.015 1622.17 444.919 1631.73 435.812C1641.3 426.703 1653.93 422.149 1669.56 422.149C1685.2 422.149 1697.59 426.751 1707.25 435.955C1716.91 445.16 1721.73 457.208 1721.73 472.124C1721.73 487.039 1716.91 499.374 1707.25 508.555V508.531ZM1890.4 406.679H1868.59V537.806H1890.4V406.679ZM1879.64 356.151C1875.4 356.151 1871.77 357.5 1868.74 360.151C1865.69 362.825 1864.19 366.077 1864.19 369.957C1864.19 373.837 1865.69 377.09 1868.74 379.764C1871.77 382.438 1875.4 383.763 1879.64 383.763C1883.9 383.763 1887.5 382.414 1890.55 379.764C1893.57 377.114 1895.1 373.837 1895.1 369.957C1895.1 366.077 1893.57 362.825 1890.55 360.151C1887.5 357.477 1883.86 356.151 1879.64 356.151ZM2068.47 407.525C2060.19 410.296 2053.66 414.971 2048.87 421.597V406.682H2027.06V537.808H2048.87V460.776C2048.87 452.68 2051.03 445.74 2055.35 439.933C2059.66 434.125 2065.33 429.717 2072.34 426.681C2079.35 423.645 2086.7 422.127 2094.44 422.127C2101.25 422.127 2107.03 423.043 2111.84 424.897L2117.9 405.862C2112.74 404.199 2106.3 403.38 2098.59 403.38C2086.81 403.38 2076.75 404.753 2068.47 407.525ZM2337.87 340.996V425.185C2332.35 418.198 2325.23 412.824 2316.47 409.041C2307.74 405.258 2297.82 403.378 2286.79 403.378C2272.99 403.378 2260.47 406.271 2249.26 412.078C2238.03 417.884 2229.16 426.029 2222.61 436.51C2216.08 447.016 2212.79 458.87 2212.79 472.124C2212.79 485.376 2216.08 497.255 2222.61 507.737C2229.12 518.217 2237.97 526.41 2249.11 532.289C2260.24 538.168 2272.42 541.108 2285.69 541.108C2297.46 541.108 2307.99 538.819 2317.3 534.216C2326.6 529.615 2333.8 523.277 2338.97 515.181V537.808H2359.68V340.996H2337.87ZM2325.59 508.531C2315.92 517.736 2303.37 522.337 2287.9 522.337C2272.42 522.337 2259.63 517.736 2250.1 508.531C2240.5 499.327 2235.73 487.184 2235.73 472.098C2235.73 457.015 2240.52 445.136 2250.1 435.931C2259.67 426.727 2272.26 422.125 2287.9 422.125C2303.53 422.125 2315.92 426.727 2325.59 435.931C2335.25 445.136 2340.08 457.184 2340.08 472.098C2340.08 487.015 2335.25 499.351 2325.59 508.531Z" fill="#332F2E"/>
</g>
</svg>
