<svg width="4472" height="615" viewBox="0 0 4472 615" fill="none" xmlns="http://www.w3.org/2000/svg">
<g clip-path="url(#clip0_1904_1528)">
<path d="M314.262 1.40503C296.164 1.40503 278.417 3.07431 261.197 6.06146L12.8244 254.434C9.83725 271.654 8.16797 289.401 8.16797 307.499C8.16797 310.574 8.34368 313.561 8.43154 316.549L323.312 1.58074C320.324 1.49289 317.337 1.40503 314.262 1.40503Z" fill="#332F2E"/>
<path d="M392.456 11.5079C376.553 7.29077 360.212 4.39149 343.519 2.81006L9.57422 336.755C11.1556 353.536 14.0549 369.877 18.2721 385.691L392.456 11.5079Z" fill="#332F2E"/>
<path d="M510.713 72.7461L79.5098 503.949C88.2955 514.404 97.6962 524.244 107.712 533.469L540.145 100.948C531.008 90.9325 521.168 81.5318 510.713 72.7461Z" fill="#332F2E"/>
<path d="M119.131 543.395C172.109 587.236 240.11 613.681 314.262 613.681C483.299 613.681 620.356 476.623 620.356 307.586C620.356 233.435 593.999 165.433 550.07 112.456L119.131 543.395Z" fill="#332F2E"/>
<path d="M450.001 33.0332C436.823 26.5318 423.205 20.9089 409.06 16.3403L23.1914 402.209C27.76 416.354 33.3828 430.06 39.8843 443.15L450.001 33.0332Z" fill="#332F2E"/>
<path d="M233.701 12.1233C129.415 40.5011 47.3564 122.648 18.9785 226.846L233.701 12.1233Z" fill="#332F2E"/>
<path d="M498.851 63.2559C487.781 54.9095 476.096 47.2659 463.972 40.4131L47.2656 457.12C54.1185 469.244 61.6742 480.929 70.1085 491.999L498.851 63.2559Z" fill="#332F2E"/>
<path d="M793.168 445.61L820.228 385.692C849.221 406.777 892.447 421.537 933.739 421.537C980.919 421.537 1000.07 405.811 1000.07 384.725C1000.07 320.326 800.109 364.606 800.109 236.862C800.109 178.349 847.288 129.764 945.073 129.764C988.299 129.764 1032.49 140.043 1064.47 160.25L1039.87 220.696C1007.98 202.509 975.032 193.724 944.546 193.724C897.367 193.724 879.18 211.383 879.18 232.996C879.18 296.429 1079.14 252.676 1079.14 378.927C1079.14 436.385 1031.44 485.585 933.212 485.585C878.653 485.409 823.654 469.156 793.168 445.61ZM1695.81 135.562H1775.41V414.684H1947.87V479.523H1695.81V135.562ZM2295.79 405.811H2136.06L2105.58 479.523H2024.05L2177.36 135.562H2255.99L2409.74 479.523H2326.19L2295.79 405.811ZM2270.75 345.365L2216.19 213.667L2161.63 345.365H2270.75ZM2738.5 479.435L2672.17 383.583H2598.9V479.435H2519.3V135.562H2668.22C2760.11 135.562 2817.57 183.269 2817.57 260.319C2817.57 311.892 2791.57 349.758 2746.85 368.911L2823.99 479.435H2738.5ZM2663.82 200.401H2598.98V320.326H2663.82C2712.5 320.326 2737.01 297.747 2737.01 260.407C2737.01 222.453 2712.5 200.401 2663.82 200.401ZM3033.79 199.434V290.367H3192.99V354.239H3033.79V479.523H2954.19V135.562H3214.16V199.434H3033.79ZM3341.9 135.562H3421.5V414.684H3593.97V479.523H3341.9V135.562ZM3705.02 328.145V135.562H3784.62V325.246C3784.62 390.612 3813.08 417.584 3861.32 417.584C3909.99 417.584 3937.93 390.612 3937.93 325.246V135.562H4016.56V328.145C4016.56 429.357 3958.57 485.409 3860.79 485.409C3763 485.409 3705.02 429.357 3705.02 328.145ZM4380.64 479.435L4297.61 360.037L4216.08 479.435H4124.71L4251.93 304.512L4131.04 135.562H4221.44L4300.51 247.141L4378.18 135.562H4464.19L4344.27 301.612L4472.54 479.523H4380.64V479.435ZM1463.96 240.552C1476.43 258.738 1483.73 281.493 1483.73 307.499C1483.73 374.094 1436.63 419.692 1374.08 419.692C1348.16 419.692 1324.97 411.785 1306.61 397.904L1253.45 451.057C1285.78 474.867 1327.25 488.836 1374.08 488.836C1484.25 488.836 1565.87 412.224 1565.87 307.499C1565.87 259.265 1548.39 217.094 1518.96 185.553L1463.96 240.552ZM1239.75 439.899L1293.51 386.131C1275.33 366.539 1264.35 339.479 1264.35 307.499C1264.35 240.903 1311.44 195.305 1373.99 195.305C1405.53 195.305 1433.12 206.902 1452.71 226.846L1506.22 173.341C1472.39 143.733 1426.53 126.162 1373.99 126.162C1263.29 126.162 1182.2 203.3 1182.2 307.499C1182.2 361.092 1203.81 407.392 1239.75 439.899Z" fill="#332F2E"/>
</g>
<defs>
<clipPath id="clip0_1904_1528">
<rect width="4471.93" height="615" fill="white"/>
</clipPath>
</defs>
</svg>
