<svg width="744" height="1249" viewBox="0 0 744 1249" fill="none" xmlns="http://www.w3.org/2000/svg">
<g clip-path="url(#clip0_1909_1498)">
<path fill-rule="evenodd" clip-rule="evenodd" d="M690.912 1133.57C670.666 1016.85 607.687 978.591 438.702 875.93C412.305 859.886 383.24 842.235 351.197 822.369C111.845 674.022 0.353516 547.886 0.353516 425.441V230.029C58.8411 355.329 176.89 470.587 375.364 597.821L408.513 619.034C618.706 753.403 734.493 827.406 742.759 970.437C746.422 1034.17 721.033 1095.05 690.912 1133.57ZM443.832 1249C236.441 1249 66.1698 1067.09 52.9392 837.913C144.755 971.036 284.351 1049.5 432.312 1049.5C489.303 1049.5 543.736 1037.16 590.199 1013.74C637.05 1054.41 656.205 1093.19 664.065 1162.81C634.593 1196.03 590.751 1221.37 537.001 1236.22C506.307 1244.7 474.964 1249 443.832 1249Z" fill="white"/>
<path fill-rule="evenodd" clip-rule="evenodd" d="M342.796 539.418C140.629 402.521 37.6978 282.192 0.431123 140.096C0.382303 130.417 0.284661 121.952 0.187019 113.652C-0.301193 68.9652 -0.74058 29.7909 11.4159 0C43.3612 110.584 119.034 197.66 186.325 275.073C271.598 373.222 321.836 457.904 342.796 539.418Z" fill="white"/>
</g>
<defs>
<clipPath id="clip0_1909_1498">
<rect width="744" height="1249" fill="white"/>
</clipPath>
</defs>
</svg>
