<svg width="4542" height="1249" viewBox="0 0 4542 1249" fill="none" xmlns="http://www.w3.org/2000/svg">
<g clip-path="url(#clip0_1909_1498)">
<path fill-rule="evenodd" clip-rule="evenodd" d="M2682.46 786.674C2636.45 786.674 2599.03 749.645 2599.03 704.181V518.269C2599.03 472.855 2636.45 435.812 2682.46 435.812H2842.24V474.406C2842.24 480.645 2836.95 485.929 2830.61 485.929H2682.46C2666.4 485.929 2653.37 498.828 2653.37 514.715V589.544C2658.27 587.218 2664.04 585.94 2670.13 585.94H2826.28V624.536C2826.28 630.79 2820.96 636.027 2814.65 636.027H2653.37V707.804C2653.37 723.691 2666.4 736.556 2682.46 736.556H2830.61C2836.95 736.556 2842.24 741.824 2842.24 748.046V786.674H2682.46ZM2986.17 786.674C2940.19 786.674 2902.76 749.645 2902.76 704.181V518.269C2902.76 472.855 2940.19 435.812 2986.17 435.812H3142.8V474.406C3142.8 480.645 3137.48 485.929 3131.17 485.929H2986.17C2970.14 485.929 2957.08 498.828 2957.08 514.715V707.804C2957.08 723.691 2970.14 736.556 2986.17 736.556H3131.17C3137.48 736.556 3142.8 741.824 3142.8 748.046V786.674H2986.17ZM3414.58 643.369L3359.06 485.918H3340.71C3339.39 485.918 3338.3 486.79 3337.78 488.179L3283.25 643.369H3414.58ZM3475.19 786.677C3468.79 786.677 3463.15 782.571 3461.47 776.689L3432.27 693.486H3265.61L3236.31 777.012C3234.75 782.426 3228.86 786.677 3222.69 786.677H3177.18L3291.4 464.923C3297.83 447.467 3314.5 435.815 3332.92 435.815H3387.37C3391.78 435.815 3396 438.385 3397.91 442.134L3398.05 442.425L3520.7 786.677H3475.19ZM3604.63 786.674V485.929H3502.12V447.287C3502.12 441.081 3507.48 435.812 3513.79 435.812H3762.8V474.406C3762.8 480.645 3757.51 485.929 3751.2 485.929H3658.95V775.197C3658.95 781.728 3654 786.674 3647.35 786.674H3604.63ZM4023.14 482.286C4007.13 482.286 3994.07 495.215 3994.07 511.07V707.731C3994.07 723.618 4007.13 736.546 4023.14 736.546H4126.53C4142.56 736.546 4155.6 723.618 4155.6 707.731V511.07C4155.6 495.215 4142.56 482.286 4126.53 482.286H4023.14ZM4023.14 786.665C3977.15 786.665 3939.73 749.638 3939.73 704.175V514.706C3939.73 469.163 3977.15 432.199 4023.14 432.199H4126.53C4172.56 432.199 4209.94 469.163 4209.94 514.706V704.175C4209.94 749.638 4172.56 786.665 4126.53 786.665H4023.14ZM4496.39 786.674C4491.15 786.674 4484.95 782.828 4482.56 778.09L4326.26 490.212C4325.01 488.032 4321.44 485.929 4318.9 485.929H4316.79V775.197C4316.79 781.404 4311.45 786.674 4305.18 786.674H4262.45V447.287C4262.45 441.081 4267.78 435.812 4274.07 435.812H4326.26C4342.9 435.812 4362.21 447.287 4370.09 461.832L4463.42 635.995L4491.38 690.331C4490.44 678.259 4489.85 666.848 4489.31 655.55C4488.79 645.335 4488.29 634.864 4487.51 624.066L4487.49 623.68V447.287C4487.49 441.081 4492.83 435.812 4499.1 435.812H4541.81V786.674H4496.39ZM3832.74 786.674C3826.43 786.674 3821.12 781.404 3821.12 775.197V435.812H3863.83C3870.15 435.812 3875.44 441.081 3875.44 447.287V786.674H3832.74ZM2327.59 480.935C2324.09 480.935 2321.64 483.345 2321.64 486.769V734.68C2321.64 737.525 2323.91 740.548 2327.59 740.548H2450.83C2468.68 740.548 2483.19 726.212 2483.19 708.562V512.889C2483.19 495.256 2468.68 480.935 2450.83 480.935H2327.59ZM2302.06 785.655C2285.66 785.655 2272.31 772.452 2272.31 756.224V465.243C2272.31 449.015 2285.66 435.812 2302.06 435.812H2450.83C2495.88 435.812 2532.51 472.015 2532.51 516.557V704.892C2532.51 749.436 2495.88 785.655 2450.83 785.655H2302.06ZM1101.44 585.215C1119.29 585.215 1133.79 570.816 1133.79 553.232V512.891C1133.79 495.258 1119.29 480.938 1101.44 480.938H979.576C976.079 480.938 973.642 483.347 973.642 486.774V585.215H1101.44ZM973.642 734.682C973.642 737.528 975.883 740.55 979.576 740.55H1101.44C1119.29 740.55 1133.79 726.003 1133.79 708.112V662.276C1133.79 644.661 1119.29 630.293 1101.44 630.293H973.642V734.682ZM954.076 785.657C937.664 785.657 924.325 772.438 924.325 756.226V464.339C924.325 448.597 937.239 435.815 953.127 435.815H1101.44C1146.49 435.815 1183.14 472.017 1183.14 516.559V551.388C1183.14 577.12 1165.16 599.665 1146.49 607.843C1168.71 617.96 1183.14 643.546 1183.14 664.118V704.411C1183.14 749.18 1146.49 785.657 1101.44 785.657H954.076ZM1302.41 480.935C1298.76 480.935 1296.49 483.99 1296.49 486.769V582.077C1296.49 585.683 1299.56 587.913 1302.41 587.913H1422.44C1440.31 587.913 1454.81 573.593 1454.81 555.943V512.889C1454.81 495.256 1440.31 480.935 1422.44 480.935H1302.41ZM1472.04 785.655C1467.46 785.655 1462.88 782.035 1461.13 778.576L1391.43 633.02H1320.48C1308.09 633.02 1300.77 629.821 1296.49 625.828V776.814C1296.49 781.599 1292.42 785.655 1287.58 785.655H1247.17V465.243C1247.17 449.015 1260.51 435.812 1276.9 435.812H1422.44C1470.53 435.812 1504.11 467.328 1504.11 512.451V556.881C1504.11 592.114 1481.66 618.555 1442.3 629.739L1516.94 785.655H1472.04ZM1789.58 646.13L1731.34 480.938H1710.66C1708.14 480.938 1705.99 482.473 1705.02 485.012L1648.45 646.13H1789.58ZM1846.91 785.657C1841.73 785.657 1837.17 782.328 1835.83 777.577L1805.49 691.24H1632.56L1602.15 777.739C1600.93 782.135 1596.02 785.657 1591.09 785.657H1549.01L1663.45 463.354C1669.52 446.901 1685.32 435.815 1702.77 435.815H1757.92C1761.32 435.815 1764.69 437.77 1766.08 440.631L1766.14 440.758L1888.97 785.657H1846.91ZM1927.07 786.681V444.644C1927.07 439.859 1931.14 435.819 1935.98 435.819H1988.79C2004.49 435.819 2023.32 446.953 2030.72 460.724L2125.29 637.101L2160.29 705.144C2158.47 687.349 2157.66 670.929 2156.89 654.944C2156.38 644.779 2155.87 634.306 2155.11 623.542V444.644C2155.11 439.859 2159.18 435.819 2164.01 435.819H2204.44V785.662H2161.22C2156.99 785.662 2151.76 782.367 2149.83 778.52L1991.39 486.744C1989.61 483.579 1985.02 480.942 1981.39 480.942H1976.39V777.904C1976.39 782.657 1972.32 786.681 1967.48 786.681H1927.07ZM690.912 1133.56C670.666 1016.85 607.687 978.591 438.702 875.93C412.305 859.886 383.24 842.235 351.197 822.369C111.845 674.021 0.353516 547.886 0.353516 425.441V230.029C58.8411 355.329 176.89 470.587 375.364 597.821L408.513 619.034C618.706 753.403 734.493 827.406 742.759 970.437C746.422 1034.17 721.033 1095.05 690.912 1133.56ZM443.832 1249C236.441 1249 66.1698 1067.09 52.9392 837.913C144.755 971.036 284.351 1049.5 432.312 1049.5C489.303 1049.5 543.736 1037.16 590.199 1013.74C637.05 1054.41 656.205 1093.19 664.065 1162.81C634.593 1196.03 590.751 1221.37 537.001 1236.22C506.307 1244.7 474.964 1249 443.832 1249Z" fill="#332F2E"/>
<path fill-rule="evenodd" clip-rule="evenodd" d="M342.796 539.418C140.629 402.521 37.6978 282.192 0.431123 140.096C0.382303 130.417 0.284661 121.952 0.187019 113.652C-0.301193 68.9652 -0.74058 29.7909 11.4159 0C43.3612 110.584 119.034 197.66 186.325 275.073C271.598 373.222 321.836 457.904 342.796 539.418Z" fill="#332F2E"/>
</g>
<defs>
<clipPath id="clip0_1909_1498">
<rect width="4541.82" height="1249" fill="white"/>
</clipPath>
</defs>
</svg>
